  0
SECTION
  2
HEADER
  9
$ACADVER
  1
AC1009
  9
$INSBASE
 10
0.0
 20
0.0
 30
0.0
  9
$EXTMIN
 10
-0.144
 20
-0.115
 30
-0.0000000000000025
  9
$EXTMAX
 10
155.9487590129789112
 20
50.698141872380603
 30
0.0
  9
$LIMMIN
 10
0.0
 20
0.0
  9
$LIMMAX
 10
12.0
 20
9.0
  9
$ORTHOMODE
 70
     0
  9
$REGENMODE
 70
     1
  9
$FILLMODE
 70
     1
  9
$QTEXTMODE
 70
     0
  9
$MIRRTEXT
 70
     1
  9
$DRAGMODE
 70
     2
  9
$LTSCALE
 40
1.0
  9
$OSMODE
 70
    37
  9
$ATTMODE
 70
     1
  9
$TEXTSIZE
 40
2.203384564496218
  9
$TRACEWID
 40
0.05
  9
$TEXTSTYLE
  7
SIMPLEX
  9
$CLAYER
  8
1
  9
$CELTYPE
  6
BYLAYER
  9
$CECOLOR
 62
   256
  9
$DIMSCALE
 40
1.0
  9
$DIMASZ
 40
0.18
  9
$DIMEXO
 40
0.0625
  9
$DIMDLI
 40
0.38
  9
$DIMRND
 40
0.0
  9
$DIMDLE
 40
0.0
  9
$DIMEXE
 40
0.18
  9
$DIMTP
 40
0.0
  9
$DIMTM
 40
0.0
  9
$DIMTXT
 40
0.18
  9
$DIMCEN
 40
0.09
  9
$DIMTSZ
 40
0.0
  9
$DIMTOL
 70
     0
  9
$DIMLIM
 70
     0
  9
$DIMTIH
 70
     1
  9
$DIMTOH
 70
     1
  9
$DIMSE1
 70
     0
  9
$DIMSE2
 70
     0
  9
$DIMTAD
 70
     0
  9
$DIMZIN
 70
     0
  9
$DIMBLK
  1

  9
$DIMASO
 70
     1
  9
$DIMSHO
 70
     1
  9
$DIMPOST
  1

  9
$DIMAPOST
  1

  9
$DIMALT
 70
     0
  9
$DIMALTD
 70
     2
  9
$DIMALTF
 40
25.3999999999999986
  9
$DIMLFAC
 40
1.0
  9
$DIMTOFL
 70
     0
  9
$DIMTVP
 40
0.0
  9
$DIMTIX
 70
     0
  9
$DIMSOXD
 70
     0
  9
$DIMSAH
 70
     0
  9
$DIMBLK1
  1

  9
$DIMBLK2
  1

  9
$DIMSTYLE
  2
STANDARD
  9
$DIMCLRD
 70
     0
  9
$DIMCLRE
 70
     0
  9
$DIMCLRT
 70
     0
  9
$DIMTFAC
 40
1.0
  9
$DIMGAP
 40
0.09
  9
$LUNITS
 70
     2
  9
$LUPREC
 70
     4
  9
$SKETCHINC
 40
0.1
  9
$FILLETRAD
 40
0.5
  9
$AUNITS
 70
     0
  9
$AUPREC
 70
     0
  9
$MENU
  1
.
  9
$ELEVATION
 40
0.0
  9
$PELEVATION
 40
0.0
  9
$THICKNESS
 40
0.0
  9
$LIMCHECK
 70
     0
  9
$BLIPMODE
 70
     0
  9
$CHAMFERA
 40
0.5
  9
$CHAMFERB
 40
0.5
  9
$SKPOLY
 70
     0
  9
$TDCREATE
 40
2452380.7308101849630475
  9
$TDUPDATE
 40
2457983.451180555857718
  9
$TDINDWG
 40
0.6162564815
  9
$TDUSRTIMER
 40
0.6162564815
  9
$USRTIMER
 70
     1
  9
$ANGBASE
 50
0.0
  9
$ANGDIR
 70
     0
  9
$PDMODE
 70
     0
  9
$PDSIZE
 40
0.0
  9
$PLINEWID
 40
0.0
  9
$COORDS
 70
     1
  9
$SPLFRAME
 70
     0
  9
$SPLINETYPE
 70
     6
  9
$SPLINESEGS
 70
     8
  9
$ATTDIA
 70
     1
  9
$ATTREQ
 70
     1
  9
$HANDLING
 70
     1
  9
$HANDSEED
  5
E8E
  9
$SURFTAB1
 70
     6
  9
$SURFTAB2
 70
     6
  9
$SURFTYPE
 70
     6
  9
$SURFU
 70
     6
  9
$SURFV
 70
     6
  9
$UCSNAME
  2

  9
$UCSORG
 10
0.0
 20
0.0
 30
0.0
  9
$UCSXDIR
 10
1.0
 20
0.0
 30
0.0
  9
$UCSYDIR
 10
0.0
 20
1.0
 30
0.0
  9
$PUCSNAME
  2

  9
$PUCSORG
 10
0.0
 20
0.0
 30
0.0
  9
$PUCSXDIR
 10
1.0
 20
0.0
 30
0.0
  9
$PUCSYDIR
 10
0.0
 20
1.0
 30
0.0
  9
$USERI1
 70
     0
  9
$USERI2
 70
     0
  9
$USERI3
 70
     0
  9
$USERI4
 70
     0
  9
$USERI5
 70
     0
  9
$USERR1
 40
0.0
  9
$USERR2
 40
0.0
  9
$USERR3
 40
0.0
  9
$USERR4
 40
0.0
  9
$USERR5
 40
0.0
  9
$WORLDVIEW
 70
     1
  9
$SHADEDGE
 70
     3
  9
$SHADEDIF
 70
    70
  9
$TILEMODE
 70
     1
  9
$MAXACTVP
 70
    64
  9
$PLIMCHECK
 70
     0
  9
$PEXTMIN
 10
1.049999952316284
 20
0.7999999523162842
 30
0.0
  9
$PEXTMAX
 10
9.4499995708465594
 20
7.1999995708465576
 30
0.0
  9
$PLIMMIN
 10
0.0
 20
0.0
  9
$PLIMMAX
 10
12.0
 20
9.0
  9
$UNITMODE
 70
     0
  9
$VISRETAIN
 70
     1
  9
$PLINEGEN
 70
     0
  9
$PSLTSCALE
 70
     1
  0
ENDSEC
  0
SECTION
  2
TABLES
  0
TABLE
  2
VPORT
 70
     1
  0
VPORT
  2
*ACTIVE
 70
     0
 10
0.0
 20
0.0
 11
1.0
 21
1.0
 12
135.8445864634213933
 22
50.2387520347181606
 13
0.0
 23
0.0
 14
0.5
 24
0.5
 15
0.5
 25
0.5
 16
0.0
 26
0.0
 36
1.0
 17
0.0
 27
0.0
 37
0.0
 40
84.8387707628879042
 41
2.1093922651933701
 42
50.0
 43
0.0
 44
0.0
 50
0.0
 51
0.0
 71
     8
 72
   100
 73
     1
 74
     3
 75
     0
 76
     0
 77
     0
 78
     0
  0
ENDTAB
  0
TABLE
  2
LTYPE
 70
    25
  0
LTYPE
  2
CONTINUOUS
 70
     0
  3
Solid line
 72
    65
 73
     0
 40
0.0
  0
LTYPE
  2
BORDER
 70
     0
  3
Border __ __ . __ __ . __ __ . __ __ . __ __ .
 72
    65
 73
     6
 40
1.75
 49
0.5
 49
-0.25
 49
0.5
 49
-0.25
 49
0.0
 49
-0.25
  0
LTYPE
  2
BORDER2
 70
     0
  3
Border (.5x) __.__.__.__.__.__.__.__.__.__.__.
 72
    65
 73
     6
 40
0.875
 49
0.25
 49
-0.125
 49
0.25
 49
-0.125
 49
0.0
 49
-0.125
  0
LTYPE
  2
BORDERX2
 70
     0
  3
Border (2x) ____  ____  .  ____  ____  .  ___
 72
    65
 73
     6
 40
3.5
 49
1.0
 49
-0.5
 49
1.0
 49
-0.5
 49
0.0
 49
-0.5
  0
LTYPE
  2
CENTER
 70
     0
  3
Center ____ _ ____ _ ____ _ ____ _ ____ _ ____
 72
    65
 73
     4
 40
2.0
 49
1.25
 49
-0.25
 49
0.25
 49
-0.25
  0
LTYPE
  2
CENTER2
 70
     0
  3
Center (.5x) ___ _ ___ _ ___ _ ___ _ ___ _ ___
 72
    65
 73
     4
 40
1.125
 49
0.75
 49
-0.125
 49
0.125
 49
-0.125
  0
LTYPE
  2
CENTERX2
 70
     0
  3
Center (2x) ________  __  ________  __  _____
 72
    65
 73
     4
 40
4.0
 49
2.5
 49
-0.5
 49
0.5
 49
-0.5
  0
LTYPE
  2
DASHDOT
 70
     0
  3
Dash dot __ . __ . __ . __ . __ . __ . __ . __
 72
    65
 73
     4
 40
1.0
 49
0.5
 49
-0.25
 49
0.0
 49
-0.25
  0
LTYPE
  2
DASHDOT2
 70
     0
  3
Dash dot (.5x) _._._._._._._._._._._._._._._.
 72
    65
 73
     4
 40
0.5
 49
0.25
 49
-0.125
 49
0.0
 49
-0.125
  0
LTYPE
  2
DASHDOTX2
 70
     0
  3
Dash dot (2x) ____  .  ____  .  ____  .  ___
 72
    65
 73
     4
 40
2.0
 49
1.0
 49
-0.5
 49
0.0
 49
-0.5
  0
LTYPE
  2
DASHED
 70
     0
  3
Dashed __ __ __ __ __ __ __ __ __ __ __ __ __ _
 72
    65
 73
     2
 40
0.75
 49
0.5
 49
-0.25
  0
LTYPE
  2
DASHED2
 70
     0
  3
Dashed (.5x) _ _ _ _ _ _ _ _ _ _ _ _ _ _ _ _ _
 72
    65
 73
     2
 40
0.375
 49
0.25
 49
-0.125
  0
LTYPE
  2
DASHEDX2
 70
     0
  3
Dashed (2x) ____  ____  ____  ____  ____  ___
 72
    65
 73
     2
 40
1.5
 49
1.0
 49
-0.5
  0
LTYPE
  2
DIVIDE
 70
     0
  3
Divide ____ . . ____ . . ____ . . ____ . . ____
 72
    65
 73
     6
 40
1.25
 49
0.5
 49
-0.25
 49
0.0
 49
-0.25
 49
0.0
 49
-0.25
  0
LTYPE
  2
DIVIDE2
 70
     0
  3
Divide (.5x) __..__..__..__..__..__..__..__.._
 72
    65
 73
     6
 40
0.625
 49
0.25
 49
-0.125
 49
0.0
 49
-0.125
 49
0.0
 49
-0.125
  0
LTYPE
  2
DIVIDEX2
 70
     0
  3
Divide (2x) ________  .  .  ________  .  .  _
 72
    65
 73
     6
 40
2.5
 49
1.0
 49
-0.5
 49
0.0
 49
-0.5
 49
0.0
 49
-0.5
  0
LTYPE
  2
DOT
 70
     0
  3
Dot . . . . . . . . . . . . . . . . . . . . . .
 72
    65
 73
     2
 40
0.25
 49
0.0
 49
-0.25
  0
LTYPE
  2
DOT2
 70
     0
  3
Dot (.5x) .....................................
 72
    65
 73
     2
 40
0.125
 49
0.0
 49
-0.125
  0
LTYPE
  2
DOTX2
 70
     0
  3
Dot (2x) .  .  .  .  .  .  .  .  .  .  .  .  . 
 72
    65
 73
     2
 40
0.5
 49
0.0
 49
-0.5
  0
LTYPE
  2
HIDDEN
 70
     0
  3
Hidden __ __ __ __ __ __ __ __ __ __ __ __ __ _
 72
    65
 73
     2
 40
0.375
 49
0.25
 49
-0.125
  0
LTYPE
  2
HIDDEN2
 70
     0
  3
Hidden (.5x) _ _ _ _ _ _ _ _ _ _ _ _ _ _ _ _ _
 72
    65
 73
     2
 40
0.1875
 49
0.125
 49
-0.0625
  0
LTYPE
  2
HIDDENX2
 70
     0
  3
Hidden (2x) ____ ____ ____ ____ ____ ____ ____
 72
    65
 73
     2
 40
0.75
 49
0.5
 49
-0.25
  0
LTYPE
  2
PHANTOM
 70
     0
  3
Phantom ______  __  __  ______  __  __  ______
 72
    65
 73
     6
 40
2.5
 49
1.25
 49
-0.25
 49
0.25
 49
-0.25
 49
0.25
 49
-0.25
  0
LTYPE
  2
PHANTOM2
 70
     0
  3
Phantom (.5x) ___ _ _ ___ _ _ ___ _ _ ___ _ _
 72
    65
 73
     6
 40
1.25
 49
0.625
 49
-0.125
 49
0.125
 49
-0.125
 49
0.125
 49
-0.125
  0
LTYPE
  2
PHANTOMX2
 70
     0
  3
Phantom (2x) ____________    ____    ____   _
 72
    65
 73
     6
 40
5.0
 49
2.5
 49
-0.5
 49
0.5
 49
-0.5
 49
0.5
 49
-0.5
  0
ENDTAB
  0
TABLE
  2
LAYER
 70
     6
  0
LAYER
  2
0
 70
     0
 62
     7
  6
CONTINUOUS
  0
LAYER
  2
1
 70
     0
 62
    12
  6
CONTINUOUS
  0
LAYER
  2
2
 70
     0
 62
     7
  6
CONTINUOUS
  0
LAYER
  2
3
 70
     4
 62
     7
  6
CONTINUOUS
  0
LAYER
  2
4
 70
     0
 62
     7
  6
CONTINUOUS
  0
LAYER
  2
DEFPOINTS
 70
     0
 62
     7
  6
CONTINUOUS
  0
ENDTAB
  0
TABLE
  2
STYLE
 70
     5
  0
STYLE
  2
STANDARD
 70
     0
 40
0.0
 41
1.0
 50
0.0
 71
     0
 42
0.2
  3
txt
  4

  0
STYLE
  2

 70
     1
 40
0.0
 41
1.0
 50
0.0
 71
     0
 42
0.2
  3
ltypeshp.shx
  4

  0
STYLE
  2
SIMPLEX
 70
     0
 40
0.0
 41
1.0
 50
0.0
 71
     0
 42
2.203384564496218
  3
simplex.shx
  4

  0
STYLE
  2
BIGFONT
 70
     0
 40
0.0
 41
1.0
 50
0.0
 71
     0
 42
0.2
  3
simplex.shx
  4
bigfont.shx
  0
STYLE
  2
ANNOTATIVE
 70
     0
 40
0.0
 41
1.0
 50
0.0
 71
     0
 42
0.2
  3
txt
  4

  0
ENDTAB
  0
TABLE
  2
VIEW
 70
     0
  0
ENDTAB
  0
TABLE
  2
UCS
 70
     0
  0
ENDTAB
  0
TABLE
  2
APPID
 70
     9
  0
APPID
  2
ACAD
 70
     0
  0
APPID
  2
ACAD_NAV_VCDISPLAY
 70
     0
  0
APPID
  2
ACADANNOTATIVE
 70
     0
  0
APPID
  2
ACDBBLOCKREPETAG
 70
     0
  0
APPID
  2
ACDBDYNAMICBLOCKTRUENAME
 70
     0
  0
APPID
  2
ACDBDYNAMICBLOCKGUID
 70
     0
  0
APPID
  2
ACDBBLOCKREPBTAG
 70
     0
  0
APPID
  2
ACAD_EXEMPT_FROM_CAD_STANDARDS
 70
     0
  0
APPID
  2
ACAD_MLEADERVER
 70
     0
  0
ENDTAB
  0
TABLE
  2
DIMSTYLE
 70
     2
  0
DIMSTYLE
  2
STANDARD
 70
     0
  3

  4

  5

  6

  7

 40
1.0
 41
0.18
 42
0.0625
 43
0.38
 44
0.18
 45
0.0
 46
0.0
 47
0.0
 48
0.0
140
0.18
141
0.09
142
0.0
143
25.3999999999999986
144
1.0
145
0.0
146
1.0
147
0.09
 71
     0
 72
     0
 73
     1
 74
     1
 75
     0
 76
     0
 77
     0
 78
     0
170
     0
171
     2
172
     0
173
     0
174
     0
175
     0
176
     0
177
     0
178
     0
  0
DIMSTYLE
  2
ANNOTATIVE
 70
     0
  3

  4

  5

  6

  7

 40
1.0
 41
0.18
 42
0.0625
 43
0.38
 44
0.18
 45
0.0
 46
0.0
 47
0.0
 48
0.0
140
0.18
141
0.09
142
0.0
143
25.3999999999999986
144
1.0
145
0.0
146
1.0
147
0.09
 71
     0
 72
     0
 73
     1
 74
     1
 75
     0
 76
     0
 77
     0
 78
     0
170
     0
171
     2
172
     0
173
     0
174
     0
175
     0
176
     0
177
     0
178
     0
  0
ENDTAB
  0
ENDSEC
  0
SECTION
  2
BLOCKS
  0
BLOCK
  8
0
  2
$MODEL_SPACE
 70
     0
 10
0.0
 20
0.0
 30
0.0
  3
$MODEL_SPACE
  1

  0
ENDBLK
  5
21
  8
0
  0
BLOCK
 67
     1
  8
0
  2
$PAPER_SPACE
 70
     0
 10
0.0
 20
0.0
 30
0.0
  3
$PAPER_SPACE
  1

  0
ENDBLK
  5
1D
 67
     1
  8
0
  0
BLOCK
  8
0
  2
A$C01555FB2
 70
     0
 10
0.0
 20
0.0
 30
0.0
  3
A$C01555FB2
  1

  0
ARC
  5
742
  8
1
 10
0.1599649793428597
 20
0.1599650116411958
 30
0.0
 40
0.159965035496846
 50
90.0
 51
180.0000000000005116
  0
ENDBLK
  5
744
  8
0
  0
BLOCK
  8
0
  2
A$C6E443151
 70
     0
 10
0.0
 20
0.0
 30
0.0
  3
A$C6E443151
  1

  0
ARC
  5
74C
  8
1
 10
0.159965035496846
 20
0.0000000000000014
 30
0.0
 40
0.159965035496846
 50
90.0
 51
180.0000000000005116
  0
ENDBLK
  5
74E
  8
0
  0
BLOCK
  8
0
  2
*U2
 70
     1
 10
0.0
 20
0.0
 30
0.0
  3
*U2
  1

  0
TEXT
  5
A41
  8
0
 10
-0.018075896915434
 20
0.1910416666666667
 30
0.0
 40
0.078125
  1
0
 72
     1
 11
0.001455353084566
 21
0.165
 31
0.0
 73
     1
1001
ACDBBLOCKREPETAG
1070
     1
1071
        0
1005
A41
  0
SOLID
  5
A42
  8
0
 10
1.0
 20
0.125
 30
0.0
 11
1.0
 21
0.0600000000000023
 31
0.0
 12
2.0
 22
0.125
 32
0.0
 13
2.0
 23
0.0600000000000023
 33
0.0
1001
ACDBBLOCKREPETAG
1070
     1
1071
        1
1005
A42
  0
SOLID
  5
A43
  8
0
 10
0.5
 20
0.0600000000000023
 30
0.0
 11
0.5
 21
0.0
 31
0.0
 12
1.0
 22
0.0600000000000023
 32
0.0
 13
1.0
 23
0.0
 33
0.0
1001
ACDBBLOCKREPETAG
1070
     1
1071
        2
1005
A43
  0
SOLID
  5
A44
  8
0
 10
0.25
 20
0.125
 30
0.0
 11
0.25
 21
0.0600000000000023
 31
0.0
 12
0.5
 22
0.125
 32
0.0
 13
0.5
 23
0.0600000000000023
 33
0.0
1001
ACDBBLOCKREPETAG
1070
     1
1071
        3
1005
A44
  0
SOLID
  5
A45
  8
0
 10
0.0
 20
0.0600000000000023
 30
0.0
 11
0.0
 21
0.0
 31
0.0
 12
0.25
 22
0.0600000000000023
 32
0.0
 13
0.25
 23
0.0
 33
0.0
1001
ACDBBLOCKREPETAG
1070
     1
1071
        4
1005
A45
  0
LINE
  5
A46
  8
0
 10
0.5
 20
0.0
 30
0.0
 11
0.5
 21
0.125
 31
0.0
1001
ACDBBLOCKREPETAG
1070
     1
1071
        5
1005
A46
  0
LINE
  5
A47
  8
0
 10
0.25
 20
0.0
 30
0.0
 11
0.25
 21
0.125
 31
0.0
1001
ACDBBLOCKREPETAG
1070
     1
1071
        6
1005
A47
  0
LINE
  5
A48
  8
0
 10
2.0
 20
0.125
 30
0.0
 11
2.0
 21
0.165
 31
0.0
1001
ACDBBLOCKREPETAG
1070
     1
1071
        7
1005
A48
  0
LINE
  5
A49
  8
0
 10
2.0
 20
0.0
 30
0.0
 11
2.0
 21
0.125
 31
0.0
1001
ACDBBLOCKREPETAG
1070
     1
1071
        8
1005
A49
  0
LINE
  5
A4A
  8
0
 10
1.0
 20
0.0
 30
0.0
 11
1.0
 21
0.125
 31
0.0
1001
ACDBBLOCKREPETAG
1070
     1
1071
        9
1005
A4A
  0
LINE
  5
A4B
  8
0
 10
2.0
 20
0.125
 30
0.0
 11
0.0
 21
0.125
 31
0.0
1001
ACDBBLOCKREPETAG
1070
     1
1071
       10
1005
A4B
  0
LINE
  5
A4C
  8
0
 10
0.0
 20
0.0
 30
0.0
 11
0.0
 21
0.125
 31
0.0
1001
ACDBBLOCKREPETAG
1070
     1
1071
       11
1005
A4C
  0
LINE
  5
A4D
  8
0
 10
0.0
 20
0.125
 30
0.0
 11
0.0
 21
0.165
 31
0.0
1001
ACDBBLOCKREPETAG
1070
     1
1071
       12
1005
A4D
  0
LINE
  5
A4E
  8
0
 10
1.0
 20
0.125
 30
0.0
 11
1.0
 21
0.165
 31
0.0
1001
ACDBBLOCKREPETAG
1070
     1
1071
       13
1005
A4E
  0
TEXT
  5
A4F
  8
0
 10
-0.018075896915434
 20
0.1910416666666667
 30
0.0
 40
0.078125
  1
0
 72
     1
 11
0.001455353084566
 21
0.165
 31
0.0
 73
     1
1001
ACDBBLOCKREPETAG
1070
     1
1071
       14
1005
A4F
  0
TEXT
  5
A50
  8
0
 10
0.9678182479835109
 20
0.1910416666666667
 30
0.0
 40
0.078125
  1
1'
 72
     1
 11
1.0003703313168439
 21
0.165
 31
0.0
 73
     1
1001
ACDBBLOCKREPETAG
1070
     1
1071
       15
1005
A50
  0
TEXT
  5
A51
  8
0
 10
1.954427083333333
 20
0.1910416666666667
 30
0.0
 40
0.078125
  1
2'
 72
     1
 11
2.0
 21
0.165
 31
0.0
 73
     1
1001
ACDBBLOCKREPETAG
1070
     1
1071
       16
1005
A51
  0
TEXT
  5
A52
  8
0
 10
0.9547974146501776
 20
0.1910416666666667
 30
0.0
 40
0.078125
  1
2'
 72
     1
 11
1.0003703313168439
 21
0.165
 31
0.0
 73
     1
1001
ACDBBLOCKREPETAG
1070
     1
1071
       17
1005
A52
  0
TEXT
  5
A53
  8
0
 10
1.954427083333333
 20
0.1910416666666667
 30
0.0
 40
0.078125
  1
4'
 72
     1
 11
2.0
 21
0.165
 31
0.0
 73
     1
1001
ACDBBLOCKREPETAG
1070
     1
1071
       18
1005
A53
  0
TEXT
  5
A54
  8
0
 10
0.9547974146501776
 20
0.1910416666666667
 30
0.0
 40
0.078125
  1
5'
 72
     1
 11
1.0003703313168439
 21
0.165
 31
0.0
 73
     1
1001
ACDBBLOCKREPETAG
1070
     1
1071
       19
1005
A54
  0
TEXT
  5
A55
  8
0
 10
1.934895833333333
 20
0.1910416666666667
 30
0.0
 40
0.078125
  1
10'
 72
     1
 11
2.0
 21
0.165
 31
0.0
 73
     1
1001
ACDBBLOCKREPETAG
1070
     1
1071
       20
1005
A55
  0
TEXT
  5
A56
  8
0
 10
0.9352661646501776
 20
0.1910416666666667
 30
0.0
 40
0.078125
  1
10'
 72
     1
 11
1.0003703313168439
 21
0.165
 31
0.0
 73
     1
1001
ACDBBLOCKREPETAG
1070
     1
1071
       21
1005
A56
  0
TEXT
  5
A57
  8
0
 10
1.921875
 20
0.1910416666666667
 30
0.0
 40
0.078125
  1
20'
 72
     1
 11
2.0
 21
0.165
 31
0.0
 73
     1
1001
ACDBBLOCKREPETAG
1070
     1
1071
       22
1005
A57
  0
TEXT
  5
A58
  8
0
 10
0.9222453313168443
 20
0.1910416666666667
 30
0.0
 40
0.078125
  1
20'
 72
     1
 11
1.0003703313168439
 21
0.165
 31
0.0
 73
     1
1001
ACDBBLOCKREPETAG
1070
     1
1071
       23
1005
A58
  0
TEXT
  5
A59
  8
0
 10
1.921875
 20
0.1910416666666667
 30
0.0
 40
0.078125
  1
40'
 72
     1
 11
2.0
 21
0.165
 31
0.0
 73
     1
1001
ACDBBLOCKREPETAG
1070
     1
1071
       24
1005
A59
  0
TEXT
  5
A5A
  8
0
 10
0.9222453313168443
 20
0.1910416666666667
 30
0.0
 40
0.078125
  1
30'
 72
     1
 11
1.0003703313168439
 21
0.165
 31
0.0
 73
     1
1001
ACDBBLOCKREPETAG
1070
     1
1071
       25
1005
A5A
  0
TEXT
  5
A5B
  8
0
 10
1.921875
 20
0.1910416666666667
 30
0.0
 40
0.078125
  1
60'
 72
     1
 11
2.0
 21
0.165
 31
0.0
 73
     1
1001
ACDBBLOCKREPETAG
1070
     1
1071
       26
1005
A5B
  0
TEXT
  5
A5C
  8
0
 10
0.9222453313168443
 20
0.1910416666666667
 30
0.0
 40
0.078125
  1
50'
 72
     1
 11
1.0003703313168439
 21
0.165
 31
0.0
 73
     1
1001
ACDBBLOCKREPETAG
1070
     1
1071
       27
1005
A5C
  0
TEXT
  5
A5D
  8
0
 10
1.90234375
 20
0.1910416666666667
 30
0.0
 40
0.078125
  1
100'
 72
     1
 11
2.0
 21
0.165
 31
0.0
 73
     1
1001
ACDBBLOCKREPETAG
1070
     1
1071
       28
1005
A5D
  0
TEXT
  5
A5E
  8
0
 10
0.9027140813168443
 20
0.1910416666666667
 30
0.0
 40
0.078125
  1
100'
 72
     1
 11
1.0003703313168439
 21
0.165
 31
0.0
 73
     1
1001
ACDBBLOCKREPETAG
1070
     1
1071
       29
1005
A5E
  0
TEXT
  5
A5F
  8
0
 10
1.8893229166666661
 20
0.1910416666666667
 30
0.0
 40
0.078125
  1
200'
 72
     1
 11
2.0
 21
0.165
 31
0.0
 73
     1
1001
ACDBBLOCKREPETAG
1070
     1
1071
       30
1005
A5F
  0
TEXT
  5
A60
  8
0
 10
0.8896932479835109
 20
0.1910416666666667
 30
0.0
 40
0.078125
  1
200'
 72
     1
 11
1.0003703313168439
 21
0.165
 31
0.0
 73
     1
1001
ACDBBLOCKREPETAG
1070
     1
1071
       31
1005
A60
  0
TEXT
  5
A61
  8
0
 10
1.8893229166666661
 20
0.1910416666666667
 30
0.0
 40
0.078125
  1
400'
 72
     1
 11
2.0
 21
0.165
 31
0.0
 73
     1
1001
ACDBBLOCKREPETAG
1070
     1
1071
       32
1005
A61
  0
TEXT
  5
A62
  8
0
 10
0.8896932479835109
 20
0.1910416666666667
 30
0.0
 40
0.078125
  1
500'
 72
     1
 11
1.0003703313168439
 21
0.165
 31
0.0
 73
     1
1001
ACDBBLOCKREPETAG
1070
     1
1071
       33
1005
A62
  0
TEXT
  5
A63
  8
0
 10
1.8697916666666661
 20
0.1910416666666667
 30
0.0
 40
0.078125
  1
1000'
 72
     1
 11
2.0
 21
0.165
 31
0.0
 73
     1
1001
ACDBBLOCKREPETAG
1070
     1
1071
       34
1005
A63
  0
TEXT
  5
A64
  8
0
 10
0.8701619979835111
 20
0.1910416666666667
 30
0.0
 40
0.078125
  1
1000'
 72
     1
 11
1.0003703313168439
 21
0.165
 31
0.0
 73
     1
1001
ACDBBLOCKREPETAG
1070
     1
1071
       35
1005
A64
  0
TEXT
  5
A65
  8
0
 10
1.856770833333333
 20
0.1910416666666667
 30
0.0
 40
0.078125
  1
2000'
 72
     1
 11
2.0
 21
0.165
 31
0.0
 73
     1
1001
ACDBBLOCKREPETAG
1070
     1
1071
       36
1005
A65
  0
TEXT
  5
A66
  8
0
 10
0.8571411646501776
 20
0.1910416666666667
 30
0.0
 40
0.078125
  1
2000'
 72
     1
 11
1.0003703313168439
 21
0.165
 31
0.0
 73
     1
1001
ACDBBLOCKREPETAG
1070
     1
1071
       37
1005
A66
  0
TEXT
  5
A67
  8
0
 10
1.856770833333333
 20
0.1910416666666667
 30
0.0
 40
0.078125
  1
4000'
 72
     1
 11
2.0
 21
0.165
 31
0.0
 73
     1
1001
ACDBBLOCKREPETAG
1070
     1
1071
       38
1005
A67
  0
TEXT
  5
A68
  8
0
 10
0.8571411646501776
 20
0.1910416666666667
 30
0.0
 40
0.078125
  1
5000'
 72
     1
 11
1.0003703313168439
 21
0.165
 31
0.0
 73
     1
1001
ACDBBLOCKREPETAG
1070
     1
1071
       39
1005
A68
  0
TEXT
  5
A69
  8
0
 10
1.837239583333333
 20
0.1910416666666667
 30
0.0
 40
0.078125
  1
10000'
 72
     1
 11
2.0
 21
0.165
 31
0.0
 73
     1
1001
ACDBBLOCKREPETAG
1070
     1
1071
       40
1005
A69
  0
LINE
  5
A6A
  8
0
 10
0.0
 20
0.0
 30
0.0
 11
2.0
 21
0.0
 31
0.0
1001
ACDBBLOCKREPETAG
1070
     1
1071
       41
1005
A6A
  0
LINE
  5
A6B
  8
0
 10
0.0
 20
0.0600000000000023
 30
0.0
 11
1.0
 21
0.0600000000000023
 31
0.0
1001
ACDBBLOCKREPETAG
1070
     1
1071
       42
1005
A6B
  0
ENDBLK
  5
A6C
  8
0
  0
BLOCK
  8
0
  2
*U3
 70
     1
 10
0.0
 20
0.0
 30
0.0
  3
*U3
  1

  0
TEXT
  5
A71
  8
0
 10
-0.018075896915434
 20
0.1910416666666667
 30
0.0
 40
0.078125
  1
0
 72
     1
 11
0.001455353084566
 21
0.165
 31
0.0
 73
     1
1001
ACDBBLOCKREPETAG
1070
     1
1071
        0
1005
A71
  0
SOLID
  5
A72
  8
0
 10
1.0
 20
0.125
 30
0.0
 11
1.0
 21
0.0600000000000023
 31
0.0
 12
2.0
 22
0.125
 32
0.0
 13
2.0
 23
0.0600000000000023
 33
0.0
1001
ACDBBLOCKREPETAG
1070
     1
1071
        1
1005
A72
  0
SOLID
  5
A73
  8
0
 10
0.5
 20
0.0600000000000023
 30
0.0
 11
0.5
 21
0.0
 31
0.0
 12
1.0
 22
0.0600000000000023
 32
0.0
 13
1.0
 23
0.0
 33
0.0
1001
ACDBBLOCKREPETAG
1070
     1
1071
        2
1005
A73
  0
SOLID
  5
A74
  8
0
 10
0.25
 20
0.125
 30
0.0
 11
0.25
 21
0.0600000000000023
 31
0.0
 12
0.5
 22
0.125
 32
0.0
 13
0.5
 23
0.0600000000000023
 33
0.0
1001
ACDBBLOCKREPETAG
1070
     1
1071
        3
1005
A74
  0
SOLID
  5
A75
  8
0
 10
0.0
 20
0.0600000000000023
 30
0.0
 11
0.0
 21
0.0
 31
0.0
 12
0.25
 22
0.0600000000000023
 32
0.0
 13
0.25
 23
0.0
 33
0.0
1001
ACDBBLOCKREPETAG
1070
     1
1071
        4
1005
A75
  0
LINE
  5
A76
  8
0
 10
0.5
 20
0.0
 30
0.0
 11
0.5
 21
0.125
 31
0.0
1001
ACDBBLOCKREPETAG
1070
     1
1071
        5
1005
A76
  0
LINE
  5
A77
  8
0
 10
0.25
 20
0.0
 30
0.0
 11
0.25
 21
0.125
 31
0.0
1001
ACDBBLOCKREPETAG
1070
     1
1071
        6
1005
A77
  0
LINE
  5
A78
  8
0
 10
2.0
 20
0.125
 30
0.0
 11
2.0
 21
0.165
 31
0.0
1001
ACDBBLOCKREPETAG
1070
     1
1071
        7
1005
A78
  0
LINE
  5
A79
  8
0
 10
2.0
 20
0.0
 30
0.0
 11
2.0
 21
0.125
 31
0.0
1001
ACDBBLOCKREPETAG
1070
     1
1071
        8
1005
A79
  0
LINE
  5
A7A
  8
0
 10
1.0
 20
0.0
 30
0.0
 11
1.0
 21
0.125
 31
0.0
1001
ACDBBLOCKREPETAG
1070
     1
1071
        9
1005
A7A
  0
LINE
  5
A7B
  8
0
 10
2.0
 20
0.125
 30
0.0
 11
0.0
 21
0.125
 31
0.0
1001
ACDBBLOCKREPETAG
1070
     1
1071
       10
1005
A7B
  0
LINE
  5
A7C
  8
0
 10
0.0
 20
0.0
 30
0.0
 11
0.0
 21
0.125
 31
0.0
1001
ACDBBLOCKREPETAG
1070
     1
1071
       11
1005
A7C
  0
LINE
  5
A7D
  8
0
 10
0.0
 20
0.125
 30
0.0
 11
0.0
 21
0.165
 31
0.0
1001
ACDBBLOCKREPETAG
1070
     1
1071
       12
1005
A7D
  0
LINE
  5
A7E
  8
0
 10
1.0
 20
0.125
 30
0.0
 11
1.0
 21
0.165
 31
0.0
1001
ACDBBLOCKREPETAG
1070
     1
1071
       13
1005
A7E
  0
TEXT
  5
A7F
  8
0
 10
-0.018075896915434
 20
0.1910416666666667
 30
0.0
 40
0.078125
  1
0
 72
     1
 11
0.001455353084566
 21
0.165
 31
0.0
 73
     1
1001
ACDBBLOCKREPETAG
1070
     1
1071
       14
1005
A7F
  0
TEXT
  5
A80
  8
0
 10
0.9678182479835109
 20
0.1910416666666667
 30
0.0
 40
0.078125
  1
1'
 72
     1
 11
1.0003703313168439
 21
0.165
 31
0.0
 73
     1
1001
ACDBBLOCKREPETAG
1070
     1
1071
       15
1005
A80
  0
TEXT
  5
A81
  8
0
 10
1.954427083333333
 20
0.1910416666666667
 30
0.0
 40
0.078125
  1
2'
 72
     1
 11
2.0
 21
0.165
 31
0.0
 73
     1
1001
ACDBBLOCKREPETAG
1070
     1
1071
       16
1005
A81
  0
TEXT
  5
A82
  8
0
 10
0.9547974146501776
 20
0.1910416666666667
 30
0.0
 40
0.078125
  1
2'
 72
     1
 11
1.0003703313168439
 21
0.165
 31
0.0
 73
     1
1001
ACDBBLOCKREPETAG
1070
     1
1071
       17
1005
A82
  0
TEXT
  5
A83
  8
0
 10
1.954427083333333
 20
0.1910416666666667
 30
0.0
 40
0.078125
  1
4'
 72
     1
 11
2.0
 21
0.165
 31
0.0
 73
     1
1001
ACDBBLOCKREPETAG
1070
     1
1071
       18
1005
A83
  0
TEXT
  5
A84
  8
0
 10
0.9547974146501776
 20
0.1910416666666667
 30
0.0
 40
0.078125
  1
5'
 72
     1
 11
1.0003703313168439
 21
0.165
 31
0.0
 73
     1
1001
ACDBBLOCKREPETAG
1070
     1
1071
       19
1005
A84
  0
TEXT
  5
A85
  8
0
 10
1.934895833333333
 20
0.1910416666666667
 30
0.0
 40
0.078125
  1
10'
 72
     1
 11
2.0
 21
0.165
 31
0.0
 73
     1
1001
ACDBBLOCKREPETAG
1070
     1
1071
       20
1005
A85
  0
TEXT
  5
A86
  8
0
 10
0.9352661646501776
 20
0.1910416666666667
 30
0.0
 40
0.078125
  1
10'
 72
     1
 11
1.0003703313168439
 21
0.165
 31
0.0
 73
     1
1001
ACDBBLOCKREPETAG
1070
     1
1071
       21
1005
A86
  0
TEXT
  5
A87
  8
0
 10
1.921875
 20
0.1910416666666667
 30
0.0
 40
0.078125
  1
20'
 72
     1
 11
2.0
 21
0.165
 31
0.0
 73
     1
1001
ACDBBLOCKREPETAG
1070
     1
1071
       22
1005
A87
  0
TEXT
  5
A88
  8
0
 10
0.9222453313168443
 20
0.1910416666666667
 30
0.0
 40
0.078125
  1
20'
 72
     1
 11
1.0003703313168439
 21
0.165
 31
0.0
 73
     1
1001
ACDBBLOCKREPETAG
1070
     1
1071
       23
1005
A88
  0
TEXT
  5
A89
  8
0
 10
1.921875
 20
0.1910416666666667
 30
0.0
 40
0.078125
  1
40'
 72
     1
 11
2.0
 21
0.165
 31
0.0
 73
     1
1001
ACDBBLOCKREPETAG
1070
     1
1071
       24
1005
A89
  0
TEXT
  5
A8A
  8
0
 10
0.9222453313168443
 20
0.1910416666666667
 30
0.0
 40
0.078125
  1
30'
 72
     1
 11
1.0003703313168439
 21
0.165
 31
0.0
 73
     1
1001
ACDBBLOCKREPETAG
1070
     1
1071
       25
1005
A8A
  0
TEXT
  5
A8B
  8
0
 10
1.921875
 20
0.1910416666666667
 30
0.0
 40
0.078125
  1
60'
 72
     1
 11
2.0
 21
0.165
 31
0.0
 73
     1
1001
ACDBBLOCKREPETAG
1070
     1
1071
       26
1005
A8B
  0
TEXT
  5
A8C
  8
0
 10
0.9222453313168443
 20
0.1910416666666667
 30
0.0
 40
0.078125
  1
50'
 72
     1
 11
1.0003703313168439
 21
0.165
 31
0.0
 73
     1
1001
ACDBBLOCKREPETAG
1070
     1
1071
       27
1005
A8C
  0
TEXT
  5
A8D
  8
0
 10
1.90234375
 20
0.1910416666666667
 30
0.0
 40
0.078125
  1
100'
 72
     1
 11
2.0
 21
0.165
 31
0.0
 73
     1
1001
ACDBBLOCKREPETAG
1070
     1
1071
       28
1005
A8D
  0
TEXT
  5
A8E
  8
0
 10
0.9027140813168443
 20
0.1910416666666667
 30
0.0
 40
0.078125
  1
100'
 72
     1
 11
1.0003703313168439
 21
0.165
 31
0.0
 73
     1
1001
ACDBBLOCKREPETAG
1070
     1
1071
       29
1005
A8E
  0
TEXT
  5
A8F
  8
0
 10
1.8893229166666661
 20
0.1910416666666667
 30
0.0
 40
0.078125
  1
200'
 72
     1
 11
2.0
 21
0.165
 31
0.0
 73
     1
1001
ACDBBLOCKREPETAG
1070
     1
1071
       30
1005
A8F
  0
TEXT
  5
A90
  8
0
 10
0.8896932479835109
 20
0.1910416666666667
 30
0.0
 40
0.078125
  1
200'
 72
     1
 11
1.0003703313168439
 21
0.165
 31
0.0
 73
     1
1001
ACDBBLOCKREPETAG
1070
     1
1071
       31
1005
A90
  0
TEXT
  5
A91
  8
0
 10
1.8893229166666661
 20
0.1910416666666667
 30
0.0
 40
0.078125
  1
400'
 72
     1
 11
2.0
 21
0.165
 31
0.0
 73
     1
1001
ACDBBLOCKREPETAG
1070
     1
1071
       32
1005
A91
  0
TEXT
  5
A92
  8
0
 10
0.8896932479835109
 20
0.1910416666666667
 30
0.0
 40
0.078125
  1
500'
 72
     1
 11
1.0003703313168439
 21
0.165
 31
0.0
 73
     1
1001
ACDBBLOCKREPETAG
1070
     1
1071
       33
1005
A92
  0
TEXT
  5
A93
  8
0
 10
1.8697916666666661
 20
0.1910416666666667
 30
0.0
 40
0.078125
  1
1000'
 72
     1
 11
2.0
 21
0.165
 31
0.0
 73
     1
1001
ACDBBLOCKREPETAG
1070
     1
1071
       34
1005
A93
  0
TEXT
  5
A94
  8
0
 10
0.8701619979835111
 20
0.1910416666666667
 30
0.0
 40
0.078125
  1
1000'
 72
     1
 11
1.0003703313168439
 21
0.165
 31
0.0
 73
     1
1001
ACDBBLOCKREPETAG
1070
     1
1071
       35
1005
A94
  0
TEXT
  5
A95
  8
0
 10
1.856770833333333
 20
0.1910416666666667
 30
0.0
 40
0.078125
  1
2000'
 72
     1
 11
2.0
 21
0.165
 31
0.0
 73
     1
1001
ACDBBLOCKREPETAG
1070
     1
1071
       36
1005
A95
  0
TEXT
  5
A96
  8
0
 10
0.8571411646501776
 20
0.1910416666666667
 30
0.0
 40
0.078125
  1
2000'
 72
     1
 11
1.0003703313168439
 21
0.165
 31
0.0
 73
     1
1001
ACDBBLOCKREPETAG
1070
     1
1071
       37
1005
A96
  0
TEXT
  5
A97
  8
0
 10
1.856770833333333
 20
0.1910416666666667
 30
0.0
 40
0.078125
  1
4000'
 72
     1
 11
2.0
 21
0.165
 31
0.0
 73
     1
1001
ACDBBLOCKREPETAG
1070
     1
1071
       38
1005
A97
  0
TEXT
  5
A98
  8
0
 10
0.8571411646501776
 20
0.1910416666666667
 30
0.0
 40
0.078125
  1
5000'
 72
     1
 11
1.0003703313168439
 21
0.165
 31
0.0
 73
     1
1001
ACDBBLOCKREPETAG
1070
     1
1071
       39
1005
A98
  0
TEXT
  5
A99
  8
0
 10
1.837239583333333
 20
0.1910416666666667
 30
0.0
 40
0.078125
  1
10000'
 72
     1
 11
2.0
 21
0.165
 31
0.0
 73
     1
1001
ACDBBLOCKREPETAG
1070
     1
1071
       40
1005
A99
  0
LINE
  5
A9A
  8
0
 10
0.0
 20
0.0
 30
0.0
 11
2.0
 21
0.0
 31
0.0
1001
ACDBBLOCKREPETAG
1070
     1
1071
       41
1005
A9A
  0
LINE
  5
A9B
  8
0
 10
0.0
 20
0.0600000000000023
 30
0.0
 11
1.0
 21
0.0600000000000023
 31
0.0
1001
ACDBBLOCKREPETAG
1070
     1
1071
       42
1005
A9B
  0
ENDBLK
  5
A9C
  8
0
  0
BLOCK
  8
0
  2
*U4
 70
     1
 10
0.0
 20
0.0
 30
0.0
  3
*U4
  1

  0
TEXT
  5
AC9
  8
0
 10
-0.048544646915434
 20
0.2316666666666667
 30
0.0
 40
0.2
  1
0
 72
     1
 11
0.001455353084566
 21
0.165
 31
0.0
 73
     1
1001
ACDBBLOCKREPETAG
1070
     1
1071
        0
1005
AC9
  0
SOLID
  5
ACA
  8
0
 10
1.0
 20
0.125
 30
0.0
 11
1.0
 21
0.0600000000000023
 31
0.0
 12
2.0
 22
0.125
 32
0.0
 13
2.0
 23
0.0600000000000023
 33
0.0
1001
ACDBBLOCKREPETAG
1070
     1
1071
        1
1005
ACA
  0
SOLID
  5
ACB
  8
0
 10
0.5
 20
0.0600000000000023
 30
0.0
 11
0.5
 21
0.0
 31
0.0
 12
1.0
 22
0.0600000000000023
 32
0.0
 13
1.0
 23
0.0
 33
0.0
1001
ACDBBLOCKREPETAG
1070
     1
1071
        2
1005
ACB
  0
SOLID
  5
ACC
  8
0
 10
0.25
 20
0.125
 30
0.0
 11
0.25
 21
0.0600000000000023
 31
0.0
 12
0.5
 22
0.125
 32
0.0
 13
0.5
 23
0.0600000000000023
 33
0.0
1001
ACDBBLOCKREPETAG
1070
     1
1071
        3
1005
ACC
  0
SOLID
  5
ACD
  8
0
 10
0.0
 20
0.0600000000000023
 30
0.0
 11
0.0
 21
0.0
 31
0.0
 12
0.25
 22
0.0600000000000023
 32
0.0
 13
0.25
 23
0.0
 33
0.0
1001
ACDBBLOCKREPETAG
1070
     1
1071
        4
1005
ACD
  0
LINE
  5
ACE
  8
0
 10
0.5
 20
0.0
 30
0.0
 11
0.5
 21
0.125
 31
0.0
1001
ACDBBLOCKREPETAG
1070
     1
1071
        5
1005
ACE
  0
LINE
  5
ACF
  8
0
 10
0.25
 20
0.0
 30
0.0
 11
0.25
 21
0.125
 31
0.0
1001
ACDBBLOCKREPETAG
1070
     1
1071
        6
1005
ACF
  0
LINE
  5
AD0
  8
0
 10
2.0
 20
0.125
 30
0.0
 11
2.0
 21
0.165
 31
0.0
1001
ACDBBLOCKREPETAG
1070
     1
1071
        7
1005
AD0
  0
LINE
  5
AD1
  8
0
 10
2.0
 20
0.0
 30
0.0
 11
2.0
 21
0.125
 31
0.0
1001
ACDBBLOCKREPETAG
1070
     1
1071
        8
1005
AD1
  0
LINE
  5
AD2
  8
0
 10
1.0
 20
0.0
 30
0.0
 11
1.0
 21
0.125
 31
0.0
1001
ACDBBLOCKREPETAG
1070
     1
1071
        9
1005
AD2
  0
LINE
  5
AD3
  8
0
 10
2.0
 20
0.125
 30
0.0
 11
0.0
 21
0.125
 31
0.0
1001
ACDBBLOCKREPETAG
1070
     1
1071
       10
1005
AD3
  0
LINE
  5
AD4
  8
0
 10
0.0
 20
0.0
 30
0.0
 11
0.0
 21
0.125
 31
0.0
1001
ACDBBLOCKREPETAG
1070
     1
1071
       11
1005
AD4
  0
LINE
  5
AD5
  8
0
 10
0.0
 20
0.125
 30
0.0
 11
0.0
 21
0.165
 31
0.0
1001
ACDBBLOCKREPETAG
1070
     1
1071
       12
1005
AD5
  0
LINE
  5
AD6
  8
0
 10
1.0
 20
0.125
 30
0.0
 11
1.0
 21
0.165
 31
0.0
1001
ACDBBLOCKREPETAG
1070
     1
1071
       13
1005
AD6
  0
TEXT
  5
AD7
  8
0
 10
-0.048544646915434
 20
0.2316666666666667
 30
0.0
 40
0.2
  1
0
 72
     1
 11
0.001455353084566
 21
0.165
 31
0.0
 73
     1
1001
ACDBBLOCKREPETAG
1070
     1
1071
       14
1005
AD7
  0
TEXT
  5
AD8
  8
0
 10
0.9670369979835109
 20
0.2316666666666667
 30
0.0
 40
0.2
  1
1
 72
     1
 11
1.0003703313168439
 21
0.165
 31
0.0
 73
     1
1001
ACDBBLOCKREPETAG
1070
     1
1071
       15
1005
AD8
  0
TEXT
  5
AD9
  8
0
 10
1.9333333333333329
 20
0.2316666666666667
 30
0.0
 40
0.2
  1
2
 72
     1
 11
2.0
 21
0.165
 31
0.0
 73
     1
1001
ACDBBLOCKREPETAG
1070
     1
1071
       16
1005
AD9
  0
TEXT
  5
ADA
  8
0
 10
0.9337036646501777
 20
0.2316666666666667
 30
0.0
 40
0.2
  1
2
 72
     1
 11
1.0003703313168439
 21
0.165
 31
0.0
 73
     1
1001
ACDBBLOCKREPETAG
1070
     1
1071
       17
1005
ADA
  0
TEXT
  5
ADB
  8
0
 10
1.9333333333333329
 20
0.2316666666666667
 30
0.0
 40
0.2
  1
4
 72
     1
 11
2.0
 21
0.165
 31
0.0
 73
     1
1001
ACDBBLOCKREPETAG
1070
     1
1071
       18
1005
ADB
  0
TEXT
  5
ADC
  8
0
 10
0.9337036646501777
 20
0.2316666666666667
 30
0.0
 40
0.2
  1
5
 72
     1
 11
1.0003703313168439
 21
0.165
 31
0.0
 73
     1
1001
ACDBBLOCKREPETAG
1070
     1
1071
       19
1005
ADC
  0
TEXT
  5
ADD
  8
0
 10
1.8833333333333331
 20
0.2316666666666667
 30
0.0
 40
0.2
  1
10
 72
     1
 11
2.0
 21
0.165
 31
0.0
 73
     1
1001
ACDBBLOCKREPETAG
1070
     1
1071
       20
1005
ADD
  0
TEXT
  5
ADE
  8
0
 10
0.8837036646501776
 20
0.2316666666666667
 30
0.0
 40
0.2
  1
10
 72
     1
 11
1.0003703313168439
 21
0.165
 31
0.0
 73
     1
1001
ACDBBLOCKREPETAG
1070
     1
1071
       21
1005
ADE
  0
TEXT
  5
ADF
  8
0
 10
1.8500000000000001
 20
0.2316666666666667
 30
0.0
 40
0.2
  1
20
 72
     1
 11
2.0
 21
0.165
 31
0.0
 73
     1
1001
ACDBBLOCKREPETAG
1070
     1
1071
       22
1005
ADF
  0
TEXT
  5
AE0
  8
0
 10
0.8503703313168443
 20
0.2316666666666667
 30
0.0
 40
0.2
  1
20
 72
     1
 11
1.0003703313168439
 21
0.165
 31
0.0
 73
     1
1001
ACDBBLOCKREPETAG
1070
     1
1071
       23
1005
AE0
  0
TEXT
  5
AE1
  8
0
 10
1.8500000000000001
 20
0.2316666666666667
 30
0.0
 40
0.2
  1
40
 72
     1
 11
2.0
 21
0.165
 31
0.0
 73
     1
1001
ACDBBLOCKREPETAG
1070
     1
1071
       24
1005
AE1
  0
TEXT
  5
AE2
  8
0
 10
0.8503703313168443
 20
0.2316666666666667
 30
0.0
 40
0.2
  1
30
 72
     1
 11
1.0003703313168439
 21
0.165
 31
0.0
 73
     1
1001
ACDBBLOCKREPETAG
1070
     1
1071
       25
1005
AE2
  0
TEXT
  5
AE3
  8
0
 10
1.8500000000000001
 20
0.2316666666666667
 30
0.0
 40
0.2
  1
60
 72
     1
 11
2.0
 21
0.165
 31
0.0
 73
     1
1001
ACDBBLOCKREPETAG
1070
     1
1071
       26
1005
AE3
  0
TEXT
  5
AE4
  8
0
 10
0.8503703313168443
 20
0.2316666666666667
 30
0.0
 40
0.2
  1
50
 72
     1
 11
1.0003703313168439
 21
0.165
 31
0.0
 73
     1
1001
ACDBBLOCKREPETAG
1070
     1
1071
       27
1005
AE4
  0
TEXT
  5
AE5
  8
0
 10
1.8
 20
0.2316666666666667
 30
0.0
 40
0.2
  1
100
 72
     1
 11
2.0
 21
0.165
 31
0.0
 73
     1
1001
ACDBBLOCKREPETAG
1070
     1
1071
       28
1005
AE5
  0
TEXT
  5
AE6
  8
0
 10
0.8003703313168443
 20
0.2316666666666667
 30
0.0
 40
0.2
  1
100
 72
     1
 11
1.0003703313168439
 21
0.165
 31
0.0
 73
     1
1001
ACDBBLOCKREPETAG
1070
     1
1071
       29
1005
AE6
  0
TEXT
  5
AE7
  8
0
 10
1.7666666666666659
 20
0.2316666666666667
 30
0.0
 40
0.2
  1
200
 72
     1
 11
2.0
 21
0.165
 31
0.0
 73
     1
1001
ACDBBLOCKREPETAG
1070
     1
1071
       30
1005
AE7
  0
TEXT
  5
AE8
  8
0
 10
0.767036997983511
 20
0.2316666666666667
 30
0.0
 40
0.2
  1
200
 72
     1
 11
1.0003703313168439
 21
0.165
 31
0.0
 73
     1
1001
ACDBBLOCKREPETAG
1070
     1
1071
       31
1005
AE8
  0
TEXT
  5
AE9
  8
0
 10
1.7666666666666659
 20
0.2316666666666667
 30
0.0
 40
0.2
  1
400
 72
     1
 11
2.0
 21
0.165
 31
0.0
 73
     1
1001
ACDBBLOCKREPETAG
1070
     1
1071
       32
1005
AE9
  0
TEXT
  5
AEA
  8
0
 10
0.767036997983511
 20
0.2316666666666667
 30
0.0
 40
0.2
  1
500
 72
     1
 11
1.0003703313168439
 21
0.165
 31
0.0
 73
     1
1001
ACDBBLOCKREPETAG
1070
     1
1071
       33
1005
AEA
  0
TEXT
  5
AEB
  8
0
 10
1.7166666666666659
 20
0.2316666666666667
 30
0.0
 40
0.2
  1
1000
 72
     1
 11
2.0
 21
0.165
 31
0.0
 73
     1
1001
ACDBBLOCKREPETAG
1070
     1
1071
       34
1005
AEB
  0
TEXT
  5
AEC
  8
0
 10
0.7170369979835111
 20
0.2316666666666667
 30
0.0
 40
0.2
  1
1000
 72
     1
 11
1.0003703313168439
 21
0.165
 31
0.0
 73
     1
1001
ACDBBLOCKREPETAG
1070
     1
1071
       35
1005
AEC
  0
TEXT
  5
AED
  8
0
 10
1.6833333333333329
 20
0.2316666666666667
 30
0.0
 40
0.2
  1
2000
 72
     1
 11
2.0
 21
0.165
 31
0.0
 73
     1
1001
ACDBBLOCKREPETAG
1070
     1
1071
       36
1005
AED
  0
TEXT
  5
AEE
  8
0
 10
0.6837036646501778
 20
0.2316666666666667
 30
0.0
 40
0.2
  1
2000
 72
     1
 11
1.0003703313168439
 21
0.165
 31
0.0
 73
     1
1001
ACDBBLOCKREPETAG
1070
     1
1071
       37
1005
AEE
  0
TEXT
  5
AEF
  8
0
 10
1.6833333333333329
 20
0.2316666666666667
 30
0.0
 40
0.2
  1
4000
 72
     1
 11
2.0
 21
0.165
 31
0.0
 73
     1
1001
ACDBBLOCKREPETAG
1070
     1
1071
       38
1005
AEF
  0
TEXT
  5
AF0
  8
0
 10
0.6837036646501778
 20
0.2316666666666667
 30
0.0
 40
0.2
  1
5000
 72
     1
 11
1.0003703313168439
 21
0.165
 31
0.0
 73
     1
1001
ACDBBLOCKREPETAG
1070
     1
1071
       39
1005
AF0
  0
TEXT
  5
AF1
  8
0
 10
1.6333333333333331
 20
0.2316666666666667
 30
0.0
 40
0.2
  1
10000
 72
     1
 11
2.0
 21
0.165
 31
0.0
 73
     1
1001
ACDBBLOCKREPETAG
1070
     1
1071
       40
1005
AF1
  0
LINE
  5
AF2
  8
0
 10
0.0
 20
0.0
 30
0.0
 11
2.0
 21
0.0
 31
0.0
1001
ACDBBLOCKREPETAG
1070
     1
1071
       41
1005
AF2
  0
LINE
  5
AF3
  8
0
 10
0.0
 20
0.0600000000000023
 30
0.0
 11
1.0
 21
0.0600000000000023
 31
0.0
1001
ACDBBLOCKREPETAG
1070
     1
1071
       42
1005
AF3
  0
ENDBLK
  5
AF4
  8
0
  0
BLOCK
  8
0
  2
*U5
 70
     1
 10
0.0
 20
0.0
 30
0.0
  3
*U5
  1

  0
TEXT
  5
AF9
  8
0
 10
-0.048544646915434
 20
0.2316666666666667
 30
0.0
 40
0.2
  1
0
 72
     1
 11
0.001455353084566
 21
0.165
 31
0.0
 73
     1
1001
ACDBBLOCKREPETAG
1070
     1
1071
        0
1005
AF9
  0
SOLID
  5
AFA
  8
0
 10
1.0
 20
0.125
 30
0.0
 11
1.0
 21
0.0600000000000023
 31
0.0
 12
2.0
 22
0.125
 32
0.0
 13
2.0
 23
0.0600000000000023
 33
0.0
1001
ACDBBLOCKREPETAG
1070
     1
1071
        1
1005
AFA
  0
SOLID
  5
AFB
  8
0
 10
0.5
 20
0.0600000000000023
 30
0.0
 11
0.5
 21
0.0
 31
0.0
 12
1.0
 22
0.0600000000000023
 32
0.0
 13
1.0
 23
0.0
 33
0.0
1001
ACDBBLOCKREPETAG
1070
     1
1071
        2
1005
AFB
  0
SOLID
  5
AFC
  8
0
 10
0.25
 20
0.125
 30
0.0
 11
0.25
 21
0.0600000000000023
 31
0.0
 12
0.5
 22
0.125
 32
0.0
 13
0.5
 23
0.0600000000000023
 33
0.0
1001
ACDBBLOCKREPETAG
1070
     1
1071
        3
1005
AFC
  0
SOLID
  5
AFD
  8
0
 10
0.0
 20
0.0600000000000023
 30
0.0
 11
0.0
 21
0.0
 31
0.0
 12
0.25
 22
0.0600000000000023
 32
0.0
 13
0.25
 23
0.0
 33
0.0
1001
ACDBBLOCKREPETAG
1070
     1
1071
        4
1005
AFD
  0
LINE
  5
AFE
  8
0
 10
0.5
 20
0.0
 30
0.0
 11
0.5
 21
0.125
 31
0.0
1001
ACDBBLOCKREPETAG
1070
     1
1071
        5
1005
AFE
  0
LINE
  5
AFF
  8
0
 10
0.25
 20
0.0
 30
0.0
 11
0.25
 21
0.125
 31
0.0
1001
ACDBBLOCKREPETAG
1070
     1
1071
        6
1005
AFF
  0
LINE
  5
B00
  8
0
 10
2.0
 20
0.125
 30
0.0
 11
2.0
 21
0.165
 31
0.0
1001
ACDBBLOCKREPETAG
1070
     1
1071
        7
1005
B00
  0
LINE
  5
B01
  8
0
 10
2.0
 20
0.0
 30
0.0
 11
2.0
 21
0.125
 31
0.0
1001
ACDBBLOCKREPETAG
1070
     1
1071
        8
1005
B01
  0
LINE
  5
B02
  8
0
 10
1.0
 20
0.0
 30
0.0
 11
1.0
 21
0.125
 31
0.0
1001
ACDBBLOCKREPETAG
1070
     1
1071
        9
1005
B02
  0
LINE
  5
B03
  8
0
 10
2.0
 20
0.125
 30
0.0
 11
0.0
 21
0.125
 31
0.0
1001
ACDBBLOCKREPETAG
1070
     1
1071
       10
1005
B03
  0
LINE
  5
B04
  8
0
 10
0.0
 20
0.0
 30
0.0
 11
0.0
 21
0.125
 31
0.0
1001
ACDBBLOCKREPETAG
1070
     1
1071
       11
1005
B04
  0
LINE
  5
B05
  8
0
 10
0.0
 20
0.125
 30
0.0
 11
0.0
 21
0.165
 31
0.0
1001
ACDBBLOCKREPETAG
1070
     1
1071
       12
1005
B05
  0
LINE
  5
B06
  8
0
 10
1.0
 20
0.125
 30
0.0
 11
1.0
 21
0.165
 31
0.0
1001
ACDBBLOCKREPETAG
1070
     1
1071
       13
1005
B06
  0
TEXT
  5
B07
  8
0
 10
-0.048544646915434
 20
0.2316666666666667
 30
0.0
 40
0.2
  1
0
 72
     1
 11
0.001455353084566
 21
0.165
 31
0.0
 73
     1
1001
ACDBBLOCKREPETAG
1070
     1
1071
       14
1005
B07
  0
TEXT
  5
B08
  8
0
 10
0.9670369979835109
 20
0.2316666666666667
 30
0.0
 40
0.2
  1
1
 72
     1
 11
1.0003703313168439
 21
0.165
 31
0.0
 73
     1
1001
ACDBBLOCKREPETAG
1070
     1
1071
       15
1005
B08
  0
TEXT
  5
B09
  8
0
 10
1.9333333333333329
 20
0.2316666666666667
 30
0.0
 40
0.2
  1
2
 72
     1
 11
2.0
 21
0.165
 31
0.0
 73
     1
1001
ACDBBLOCKREPETAG
1070
     1
1071
       16
1005
B09
  0
TEXT
  5
B0A
  8
0
 10
0.9337036646501777
 20
0.2316666666666667
 30
0.0
 40
0.2
  1
2
 72
     1
 11
1.0003703313168439
 21
0.165
 31
0.0
 73
     1
1001
ACDBBLOCKREPETAG
1070
     1
1071
       17
1005
B0A
  0
TEXT
  5
B0B
  8
0
 10
1.9333333333333329
 20
0.2316666666666667
 30
0.0
 40
0.2
  1
4
 72
     1
 11
2.0
 21
0.165
 31
0.0
 73
     1
1001
ACDBBLOCKREPETAG
1070
     1
1071
       18
1005
B0B
  0
TEXT
  5
B0C
  8
0
 10
0.9337036646501777
 20
0.2316666666666667
 30
0.0
 40
0.2
  1
5
 72
     1
 11
1.0003703313168439
 21
0.165
 31
0.0
 73
     1
1001
ACDBBLOCKREPETAG
1070
     1
1071
       19
1005
B0C
  0
TEXT
  5
B0D
  8
0
 10
1.8833333333333331
 20
0.2316666666666667
 30
0.0
 40
0.2
  1
10
 72
     1
 11
2.0
 21
0.165
 31
0.0
 73
     1
1001
ACDBBLOCKREPETAG
1070
     1
1071
       20
1005
B0D
  0
TEXT
  5
B0E
  8
0
 10
0.8837036646501776
 20
0.2316666666666667
 30
0.0
 40
0.2
  1
10
 72
     1
 11
1.0003703313168439
 21
0.165
 31
0.0
 73
     1
1001
ACDBBLOCKREPETAG
1070
     1
1071
       21
1005
B0E
  0
TEXT
  5
B0F
  8
0
 10
1.8500000000000001
 20
0.2316666666666667
 30
0.0
 40
0.2
  1
20
 72
     1
 11
2.0
 21
0.165
 31
0.0
 73
     1
1001
ACDBBLOCKREPETAG
1070
     1
1071
       22
1005
B0F
  0
TEXT
  5
B10
  8
0
 10
0.8503703313168443
 20
0.2316666666666667
 30
0.0
 40
0.2
  1
20
 72
     1
 11
1.0003703313168439
 21
0.165
 31
0.0
 73
     1
1001
ACDBBLOCKREPETAG
1070
     1
1071
       23
1005
B10
  0
TEXT
  5
B11
  8
0
 10
1.8500000000000001
 20
0.2316666666666667
 30
0.0
 40
0.2
  1
40
 72
     1
 11
2.0
 21
0.165
 31
0.0
 73
     1
1001
ACDBBLOCKREPETAG
1070
     1
1071
       24
1005
B11
  0
TEXT
  5
B12
  8
0
 10
0.8503703313168443
 20
0.2316666666666667
 30
0.0
 40
0.2
  1
30
 72
     1
 11
1.0003703313168439
 21
0.165
 31
0.0
 73
     1
1001
ACDBBLOCKREPETAG
1070
     1
1071
       25
1005
B12
  0
TEXT
  5
B13
  8
0
 10
1.8500000000000001
 20
0.2316666666666667
 30
0.0
 40
0.2
  1
60
 72
     1
 11
2.0
 21
0.165
 31
0.0
 73
     1
1001
ACDBBLOCKREPETAG
1070
     1
1071
       26
1005
B13
  0
TEXT
  5
B14
  8
0
 10
0.8503703313168443
 20
0.2316666666666667
 30
0.0
 40
0.2
  1
50
 72
     1
 11
1.0003703313168439
 21
0.165
 31
0.0
 73
     1
1001
ACDBBLOCKREPETAG
1070
     1
1071
       27
1005
B14
  0
TEXT
  5
B15
  8
0
 10
1.8
 20
0.2316666666666667
 30
0.0
 40
0.2
  1
100
 72
     1
 11
2.0
 21
0.165
 31
0.0
 73
     1
1001
ACDBBLOCKREPETAG
1070
     1
1071
       28
1005
B15
  0
TEXT
  5
B16
  8
0
 10
0.8003703313168443
 20
0.2316666666666667
 30
0.0
 40
0.2
  1
100
 72
     1
 11
1.0003703313168439
 21
0.165
 31
0.0
 73
     1
1001
ACDBBLOCKREPETAG
1070
     1
1071
       29
1005
B16
  0
TEXT
  5
B17
  8
0
 10
1.7666666666666659
 20
0.2316666666666667
 30
0.0
 40
0.2
  1
200
 72
     1
 11
2.0
 21
0.165
 31
0.0
 73
     1
1001
ACDBBLOCKREPETAG
1070
     1
1071
       30
1005
B17
  0
TEXT
  5
B18
  8
0
 10
0.767036997983511
 20
0.2316666666666667
 30
0.0
 40
0.2
  1
200
 72
     1
 11
1.0003703313168439
 21
0.165
 31
0.0
 73
     1
1001
ACDBBLOCKREPETAG
1070
     1
1071
       31
1005
B18
  0
TEXT
  5
B19
  8
0
 10
1.7666666666666659
 20
0.2316666666666667
 30
0.0
 40
0.2
  1
400
 72
     1
 11
2.0
 21
0.165
 31
0.0
 73
     1
1001
ACDBBLOCKREPETAG
1070
     1
1071
       32
1005
B19
  0
TEXT
  5
B1A
  8
0
 10
0.767036997983511
 20
0.2316666666666667
 30
0.0
 40
0.2
  1
500
 72
     1
 11
1.0003703313168439
 21
0.165
 31
0.0
 73
     1
1001
ACDBBLOCKREPETAG
1070
     1
1071
       33
1005
B1A
  0
TEXT
  5
B1B
  8
0
 10
1.7166666666666659
 20
0.2316666666666667
 30
0.0
 40
0.2
  1
1000
 72
     1
 11
2.0
 21
0.165
 31
0.0
 73
     1
1001
ACDBBLOCKREPETAG
1070
     1
1071
       34
1005
B1B
  0
TEXT
  5
B1C
  8
0
 10
0.7170369979835111
 20
0.2316666666666667
 30
0.0
 40
0.2
  1
1000
 72
     1
 11
1.0003703313168439
 21
0.165
 31
0.0
 73
     1
1001
ACDBBLOCKREPETAG
1070
     1
1071
       35
1005
B1C
  0
TEXT
  5
B1D
  8
0
 10
1.6833333333333329
 20
0.2316666666666667
 30
0.0
 40
0.2
  1
2000
 72
     1
 11
2.0
 21
0.165
 31
0.0
 73
     1
1001
ACDBBLOCKREPETAG
1070
     1
1071
       36
1005
B1D
  0
TEXT
  5
B1E
  8
0
 10
0.6837036646501778
 20
0.2316666666666667
 30
0.0
 40
0.2
  1
2000
 72
     1
 11
1.0003703313168439
 21
0.165
 31
0.0
 73
     1
1001
ACDBBLOCKREPETAG
1070
     1
1071
       37
1005
B1E
  0
TEXT
  5
B1F
  8
0
 10
1.6833333333333329
 20
0.2316666666666667
 30
0.0
 40
0.2
  1
4000
 72
     1
 11
2.0
 21
0.165
 31
0.0
 73
     1
1001
ACDBBLOCKREPETAG
1070
     1
1071
       38
1005
B1F
  0
TEXT
  5
B20
  8
0
 10
0.6837036646501778
 20
0.2316666666666667
 30
0.0
 40
0.2
  1
5000
 72
     1
 11
1.0003703313168439
 21
0.165
 31
0.0
 73
     1
1001
ACDBBLOCKREPETAG
1070
     1
1071
       39
1005
B20
  0
TEXT
  5
B21
  8
0
 10
1.6333333333333331
 20
0.2316666666666667
 30
0.0
 40
0.2
  1
10000
 72
     1
 11
2.0
 21
0.165
 31
0.0
 73
     1
1001
ACDBBLOCKREPETAG
1070
     1
1071
       40
1005
B21
  0
LINE
  5
B22
  8
0
 10
0.0
 20
0.0
 30
0.0
 11
2.0
 21
0.0
 31
0.0
1001
ACDBBLOCKREPETAG
1070
     1
1071
       41
1005
B22
  0
LINE
  5
B23
  8
0
 10
0.0
 20
0.0600000000000023
 30
0.0
 11
1.0
 21
0.0600000000000023
 31
0.0
1001
ACDBBLOCKREPETAG
1070
     1
1071
       42
1005
B23
  0
ENDBLK
  5
B24
  8
0
  0
ENDSEC
  0
SECTION
  2
ENTITIES
  0
POLYLINE
  5
5B
  8
3
  6
CONTINUOUS
 62
    40
 66
     1
 10
0.0
 20
0.0
 30
0.0
 70
   129
  0
VERTEX
  5
5D
  8
3
  6
CONTINUOUS
 62
    40
 10
0.144
 20
-0.115
 30
0.0
  0
VERTEX
  5
5E
  8
3
  6
CONTINUOUS
 62
    40
 10
-0.144
 20
-0.115
 30
0.0
  0
VERTEX
  5
5F
  8
3
  6
CONTINUOUS
 62
    40
 10
-0.144
 20
0.115
 30
0.0
  0
VERTEX
  5
60
  8
3
  6
CONTINUOUS
 62
    40
 10
0.144
 20
0.115
 30
0.0
  0
VERTEX
  5
61
  8
3
  6
CONTINUOUS
 62
    40
 10
0.144
 20
-0.115
 30
0.0
  0
SEQEND
  5
5C
  8
3
  6
CONTINUOUS
  0
CIRCLE
  5
62
  8
2
  6
CONTINUOUS
 62
     5
 10
96.9254417611882673
 20
45.5397826600292319
 30
0.0
 40
0.254020574
  0
CIRCLE
  5
63
  8
2
  6
CONTINUOUS
 62
     5
 10
91.8729345707716476
 20
44.4746378093805887
 30
0.0
 40
0.254020574
  0
CIRCLE
  5
64
  8
2
  6
CONTINUOUS
 62
     5
 10
92.8890168667716836
 20
44.4746378093805887
 30
0.0
 40
0.254020574
  0
CIRCLE
  5
65
  8
2
  6
CONTINUOUS
 62
     5
 10
93.9050991627716769
 20
44.474637809380603
 30
0.0
 40
0.254020574
  0
CIRCLE
  5
66
  8
2
  6
CONTINUOUS
 62
     5
 10
94.9211814587716844
 20
44.474637809380603
 30
0.0
 40
0.254020574
  0
CIRCLE
  5
67
  8
2
  6
CONTINUOUS
 62
     5
 10
82.4741733327716844
 20
36.0919588673805904
 30
0.0
 40
0.254020574
  0
CIRCLE
  5
68
  8
2
  6
CONTINUOUS
 62
     5
 10
98.0370904458983858
 20
45.4671816599566228
 30
0.0
 40
0.254020574
  0
CIRCLE
  5
69
  8
2
  6
CONTINUOUS
 62
     5
 10
91.8729345707716476
 20
45.4907201053806034
 30
0.0
 40
0.254020574
  0
CIRCLE
  5
6A
  8
2
  6
CONTINUOUS
 62
     5
 10
98.8758316048479458
 20
45.4022678245964926
 30
0.0
 40
0.254020574
  0
CIRCLE
  5
6B
  8
2
  6
CONTINUOUS
 62
     5
 10
93.9050991627716769
 20
45.4907201053806034
 30
0.0
 40
0.254020574
  0
CIRCLE
  5
6C
  8
2
  6
CONTINUOUS
 62
     5
 10
94.9211814587716844
 20
45.4907201053806034
 30
0.0
 40
0.254020574
  0
CIRCLE
  5
6D
  8
2
  6
CONTINUOUS
 62
     5
 10
99.9374555570215648
 20
45.3730432005777331
 30
0.0
 40
0.254020574
  0
CIRCLE
  5
6E
  8
2
  6
CONTINUOUS
 62
     5
 10
90.8568522747716685
 20
47.253470474129621
 30
0.0
 40
0.254020574
  0
CIRCLE
  5
6F
  8
2
  6
CONTINUOUS
 62
     5
 10
91.8729345707716476
 20
46.5068024013805683
 30
0.0
 40
0.254020574
  0
CIRCLE
  5
70
  8
2
  6
CONTINUOUS
 62
     5
 10
92.8890168667716836
 20
46.2527818273805735
 30
0.0
 40
0.254020574
  0
CIRCLE
  5
71
  8
2
  6
CONTINUOUS
 62
     5
 10
93.9050991627716769
 20
46.5068024013805683
 30
0.0
 40
0.254020574
  0
CIRCLE
  5
72
  8
2
  6
CONTINUOUS
 62
     5
 10
94.9211814587716844
 20
46.5068024013805683
 30
0.0
 40
0.254020574
  0
CIRCLE
  5
73
  8
2
  6
CONTINUOUS
 62
     5
 10
95.937263754771692
 20
46.5068024013805683
 30
0.0
 40
0.254020574
  0
CIRCLE
  5
74
  8
2
  6
CONTINUOUS
 62
     5
 10
82.4741733327716844
 20
35.0505258644767892
 30
0.0
 40
0.2540205740000051
  0
CIRCLE
  5
75
  8
2
  6
CONTINUOUS
 62
     5
 10
86.7925230907716951
 20
35.1124060226050005
 30
0.0
 40
0.2540205740000051
  0
CIRCLE
  5
76
  8
2
  6
CONTINUOUS
 62
     5
 10
86.7925230907716951
 20
36.0919588673805904
 30
0.0
 40
0.254020574
  0
CIRCLE
  5
77
  8
2
  6
CONTINUOUS
 62
     5
 10
96.8766314924861405
 20
44.3297743659695627
 30
0.0
 40
0.254020574
  0
CIRCLE
  5
78
  8
2
  6
CONTINUOUS
 62
     5
 10
82.4741733327716844
 20
37.108041163380598
 30
0.0
 40
0.2540205740000051
  0
CIRCLE
  5
79
  8
2
  6
CONTINUOUS
 62
     5
 10
83.4902556287716635
 20
35.0505258644767892
 30
0.0
 40
0.2540205740000051
  0
CIRCLE
  5
7A
  8
2
  6
CONTINUOUS
 62
     5
 10
86.7925230907716951
 20
37.108041163380598
 30
0.0
 40
0.254020574
  0
CIRCLE
  5
7B
  8
2
  6
CONTINUOUS
 62
     5
 10
85.776440794771645
 20
35.1124060226050005
 30
0.0
 40
0.254020574
  0
CIRCLE
  5
7C
  8
2
  6
CONTINUOUS
 62
     5
 10
96.9533460507716711
 20
46.5068024013805683
 30
0.0
 40
0.2540205740000051
  0
CIRCLE
  5
7D
  8
2
  6
CONTINUOUS
 62
     5
 10
97.9694283467716645
 20
46.5068024013805683
 30
0.0
 40
0.2540205740000051
  0
CIRCLE
  5
7E
  8
2
  6
CONTINUOUS
 62
     5
 10
98.9855106427716578
 20
46.5068024013805683
 30
0.0
 40
0.254020574
  0
CIRCLE
  5
7F
  8
2
  6
CONTINUOUS
 62
     5
 10
100.0015929387715943
 20
46.5068024013805683
 30
0.0
 40
0.254020574
  0
CIRCLE
  5
80
  8
2
  6
CONTINUOUS
 62
     5
 10
95.9449889036483654
 20
45.438149633744608
 30
0.0
 40
0.254020574
  0
CIRCLE
  5
81
  8
2
  6
CONTINUOUS
 62
     5
 10
91.8729345707716476
 20
43.4585555133806025
 30
0.0
 40
0.254020574
  0
CIRCLE
  5
82
  8
2
  6
CONTINUOUS
 62
     5
 10
92.8890168667716836
 20
43.4585555133806025
 30
0.0
 40
0.254020574
  0
CIRCLE
  5
83
  8
2
  6
CONTINUOUS
 62
     5
 10
93.9050991627716769
 20
43.4585555133806025
 30
0.0
 40
0.254020574
  0
CIRCLE
  5
84
  8
2
  6
CONTINUOUS
 62
     5
 10
94.9211814587716844
 20
43.4585555133806025
 30
0.0
 40
0.254020574
  0
CIRCLE
  5
85
  8
2
  6
CONTINUOUS
 62
     5
 10
95.937263754771692
 20
43.4585555133806025
 30
0.0
 40
0.254020574
  0
CIRCLE
  5
86
  8
2
  6
CONTINUOUS
 62
     5
 10
96.9533460507716711
 20
40.9183497733806121
 30
0.0
 40
0.2540205740000051
  0
CIRCLE
  5
87
  8
2
  6
CONTINUOUS
 62
     5
 10
91.5828045295067454
 20
47.5824966760045811
 30
0.0
 40
0.2540205740000051
  0
CIRCLE
  5
88
  8
2
  6
CONTINUOUS
 62
     5
 10
99.9513044837149209
 20
38.7762165512995125
 30
0.0
 40
0.254020574
  0
CIRCLE
  5
89
  8
2
  6
CONTINUOUS
 62
     5
 10
100.0015929387715943
 20
40.9183497733806121
 30
0.0
 40
0.254020574
  0
CIRCLE
  5
8A
  8
2
  6
CONTINUOUS
 62
     5
 10
92.848662385265925
 20
45.4354867596939584
 30
0.0
 40
0.2540205740000051
  0
CIRCLE
  5
8B
  8
2
  6
CONTINUOUS
 62
     5
 10
99.9395710351636808
 20
44.3040834930470666
 30
0.0
 40
0.2540205740000051
  0
CIRCLE
  5
8C
  8
2
  6
CONTINUOUS
 62
     5
 10
97.9080082288492122
 20
44.377915444332757
 30
0.0
 40
0.254020574
  0
CIRCLE
  5
8D
  8
2
  6
CONTINUOUS
 62
     5
 10
98.8314517858489126
 20
44.340995281781943
 30
0.0
 40
0.254020574
  0
CIRCLE
  5
8E
  8
2
  6
CONTINUOUS
 62
     5
 10
96.0342529823174118
 20
39.6807144778103975
 30
0.0
 40
0.2540205740000051
  0
CIRCLE
  5
8F
  8
2
  6
CONTINUOUS
 62
     5
 10
97.5611195744287443
 20
40.3823056164362768
 30
0.0
 40
0.2540205740000051
  0
CIRCLE
  5
90
  8
2
  6
CONTINUOUS
 62
     5
 10
98.4643445211647901
 20
40.2628336848791193
 30
0.0
 40
0.254020574
  0
CIRCLE
  5
91
  8
2
  6
CONTINUOUS
 62
     5
 10
99.283620812198933
 20
39.7103745403528592
 30
0.0
 40
0.254020574
  0
CIRCLE
  5
92
  8
2
  6
CONTINUOUS
 62
     5
 10
87.8086053867716743
 20
37.108041163380598
 30
0.0
 40
0.254020574
  0
CIRCLE
  5
93
  8
2
  6
CONTINUOUS
 62
     5
 10
85.7764407947716876
 20
38.1241234593805984
 30
0.0
 40
0.254020574
  0
CIRCLE
  5
94
  8
2
  6
CONTINUOUS
 62
     5
 10
86.7925230907716951
 20
38.1241234593805984
 30
0.0
 40
0.254020574
  0
CIRCLE
  5
95
  8
2
  6
CONTINUOUS
 62
     5
 10
87.8086053867716743
 20
38.1241234593805984
 30
0.0
 40
0.254020574
  0
CIRCLE
  5
96
  8
2
  6
CONTINUOUS
 62
     5
 10
85.7764407947716876
 20
38.7700514806783687
 30
0.0
 40
0.254020574
  0
CIRCLE
  5
97
  8
2
  6
CONTINUOUS
 62
     5
 10
86.7925230907716951
 20
38.7700514806783687
 30
0.0
 40
0.254020574
  0
CIRCLE
  5
98
  8
2
  6
CONTINUOUS
 62
     5
 10
87.8086053867716743
 20
38.7833035024159472
 30
0.0
 40
0.254020574
  0
CIRCLE
  5
99
  8
2
  6
CONTINUOUS
 62
     5
 10
87.8086053867716743
 20
36.0919588673805904
 30
0.0
 40
0.254020574
  0
CIRCLE
  5
9A
  8
2
  6
CONTINUOUS
 62
     5
 10
96.9533460507716711
 20
35.0758765713805687
 30
0.0
 40
0.2540205740000051
  0
CIRCLE
  5
9B
  8
2
  6
CONTINUOUS
 62
     5
 10
97.9694283467716645
 20
35.0758765713805687
 30
0.0
 40
0.2540205740000051
  0
CIRCLE
  5
9C
  8
2
  6
CONTINUOUS
 62
     5
 10
98.9855106427716578
 20
35.0758765713805687
 30
0.0
 40
0.254020574
  0
CIRCLE
  5
9D
  8
2
  6
CONTINUOUS
 62
     5
 10
96.9533460507716711
 20
35.9649485803806073
 30
0.0
 40
0.2540205740000051
  0
CIRCLE
  5
9E
  8
2
  6
CONTINUOUS
 62
     5
 10
97.9694283467716645
 20
35.9649485803806073
 30
0.0
 40
0.2540205740000051
  0
CIRCLE
  5
9F
  8
2
  6
CONTINUOUS
 62
     5
 10
98.9855106427716578
 20
35.9649485803806073
 30
0.0
 40
0.254020574
  0
CIRCLE
  5
A0
  8
2
  6
CONTINUOUS
 62
     5
 10
96.9533460507716711
 20
36.9810308763805722
 30
0.0
 40
0.2540205740000051
  0
CIRCLE
  5
A1
  8
2
  6
CONTINUOUS
 62
     5
 10
97.9694283467716645
 20
36.9810308763805722
 30
0.0
 40
0.2540205740000051
  0
CIRCLE
  5
A2
  8
2
  6
CONTINUOUS
 62
     5
 10
98.9855106427716578
 20
36.9810308763805722
 30
0.0
 40
0.254020574
  0
CIRCLE
  5
A3
  8
2
  6
CONTINUOUS
 62
     5
 10
100.0015929387715943
 20
35.9649485803806073
 30
0.0
 40
0.254020574
  0
CIRCLE
  5
A4
  8
2
  6
CONTINUOUS
 62
     5
 10
100.0015929387715943
 20
36.9810308763805722
 30
0.0
 40
0.254020574
  0
CIRCLE
  5
A5
  8
2
  6
CONTINUOUS
 62
     5
 10
86.9854162533325024
 20
50.3171110113805682
 30
0.0
 40
0.254020574
  0
CIRCLE
  5
A6
  8
2
  6
CONTINUOUS
 62
     5
 10
89.7602982969570462
 20
50.3171110113805682
 30
0.0
 40
0.254020574
  0
CIRCLE
  5
A7
  8
2
  6
CONTINUOUS
 62
     5
 10
90.729841987771664
 20
50.3171110113805682
 30
0.0
 40
0.254020574
  0
CIRCLE
  5
A8
  8
2
  6
CONTINUOUS
 62
     5
 10
91.7459242837716431
 20
50.3171110113805682
 30
0.0
 40
0.254020574
  0
CIRCLE
  5
A9
  8
2
  6
CONTINUOUS
 62
     5
 10
92.7620065797716791
 20
50.3171110113805682
 30
0.0
 40
0.2540205739999974
  0
CIRCLE
  5
AA
  8
2
  6
CONTINUOUS
 62
     5
 10
93.7780888757716724
 20
50.3171110113805682
 30
0.0
 40
0.254020574
  0
CIRCLE
  5
AB
  8
2
  6
CONTINUOUS
 62
     5
 10
94.7941711717716942
 20
50.3171110113805682
 30
0.0
 40
0.2540205740000051
  0
CIRCLE
  5
AC
  8
2
  6
CONTINUOUS
 62
     5
 10
95.8102534677716733
 20
50.3171110113805682
 30
0.0
 40
0.254020574
  0
CIRCLE
  5
AD
  8
2
  6
CONTINUOUS
 62
     5
 10
96.8263357637716666
 20
50.3171110113805682
 30
0.0
 40
0.254020574
  0
CIRCLE
  5
AE
  8
2
  6
CONTINUOUS
 62
     5
 10
97.8424180597716884
 20
50.3171110113805682
 30
0.0
 40
0.254020574
  0
CIRCLE
  5
AF
  8
2
  6
CONTINUOUS
 62
     5
 10
98.8585003557716959
 20
50.3171110113805682
 30
0.0
 40
0.254020573999995
  0
CIRCLE
  5
B0
  8
2
  6
CONTINUOUS
 62
     5
 10
84.639990942423708
 20
48.0303942528998107
 30
0.0
 40
0.254020574
  0
CIRCLE
  5
B1
  8
2
  6
CONTINUOUS
 62
     5
 10
85.9177528095154344
 20
48.0547419109699376
 30
0.0
 40
0.254020574
  0
CIRCLE
  5
B2
  8
2
  6
CONTINUOUS
 62
     5
 10
83.566350769748226
 20
47.9326120029538529
 30
0.0
 40
0.254020574
  0
CIRCLE
  5
B3
  8
2
  6
CONTINUOUS
 62
     5
 10
89.1842933137804863
 20
48.0141621002723795
 30
0.0
 40
0.254020574
  0
CIRCLE
  5
B4
  8
2
  6
CONTINUOUS
 62
     5
 10
87.1250430928431854
 20
48.0977730411073594
 30
0.0
 40
0.254020574
  0
CIRCLE
  5
B5
  8
2
  6
CONTINUOUS
 62
     5
 10
88.1420516508009655
 20
48.1104749260325022
 30
0.0
 40
0.254020574
  0
CIRCLE
  5
B6
  8
2
  6
CONTINUOUS
 62
     5
 10
83.6426132594080514
 20
48.7455703156678766
 30
0.0
 40
0.254020574
  0
CIRCLE
  5
B7
  8
2
  6
CONTINUOUS
 62
     5
 10
88.3029839904756955
 20
50.3079752329848802
 30
0.0
 40
0.254020574
  0
CIRCLE
  5
B8
  8
2
  6
CONTINUOUS
 62
     5
 10
90.251956757597867
 20
47.9072070913610872
 30
0.0
 40
0.254020574
  0
CIRCLE
  5
B9
  8
2
  6
CONTINUOUS
 62
     5
 10
91.2179387837715154
 20
48.4119567063805718
 30
0.0
 40
0.254020574
  0
CIRCLE
  5
BA
  8
2
  6
CONTINUOUS
 62
     5
 10
92.2182132911220691
 20
47.717670307305518
 30
0.0
 40
0.2540205739999974
  0
CIRCLE
  5
BB
  8
2
  6
CONTINUOUS
 62
     5
 10
93.7780888757716724
 20
48.4119567063805718
 30
0.0
 40
0.254020574
  0
CIRCLE
  5
BC
  8
2
  6
CONTINUOUS
 62
     5
 10
94.7941711717716942
 20
48.4119567063805718
 30
0.0
 40
0.2540205740000051
  0
CIRCLE
  5
BD
  8
2
  6
CONTINUOUS
 62
     5
 10
95.8102534677716733
 20
48.4119567063805718
 30
0.0
 40
0.254020574
  0
CIRCLE
  5
BE
  8
2
  6
CONTINUOUS
 62
     5
 10
90.1629848039461024
 20
48.7201654040749474
 30
0.0
 40
0.254020574
  0
CIRCLE
  5
BF
  8
2
  6
CONTINUOUS
 62
     5
 10
82.4774250060362135
 20
49.7452491911382992
 30
0.0
 40
0.254020574
  0
CIRCLE
  5
C0
  8
2
  6
CONTINUOUS
 62
     5
 10
92.7620065797716791
 20
49.4280390023805865
 30
0.0
 40
0.2540205739999974
  0
CIRCLE
  5
C1
  8
2
  6
CONTINUOUS
 62
     5
 10
93.7780888757716724
 20
49.4280390023805865
 30
0.0
 40
0.254020574
  0
CIRCLE
  5
C2
  8
2
  6
CONTINUOUS
 62
     5
 10
94.7941711717716942
 20
49.4280390023805865
 30
0.0
 40
0.2540205740000051
  0
CIRCLE
  5
C3
  8
2
  6
CONTINUOUS
 62
     5
 10
95.8102534677716733
 20
49.4280390023805865
 30
0.0
 40
0.254020574
  0
CIRCLE
  5
C4
  8
2
  6
CONTINUOUS
 62
     5
 10
96.8263357637716666
 20
48.4119567063805718
 30
0.0
 40
0.254020574
  0
CIRCLE
  5
C5
  8
2
  6
CONTINUOUS
 62
     5
 10
97.8424180597716884
 20
48.4119567063805718
 30
0.0
 40
0.254020574
  0
CIRCLE
  5
C6
  8
2
  6
CONTINUOUS
 62
     5
 10
98.8585003557716959
 20
48.4119567063805718
 30
0.0
 40
0.254020573999995
  0
CIRCLE
  5
C7
  8
2
  6
CONTINUOUS
 62
     5
 10
99.874582651771675
 20
48.4119567063805718
 30
0.0
 40
0.254020573999995
  0
CIRCLE
  5
C8
  8
2
  6
CONTINUOUS
 62
     5
 10
96.8263357637716666
 20
49.4280390023805865
 30
0.0
 40
0.254020574
  0
CIRCLE
  5
C9
  8
2
  6
CONTINUOUS
 62
     5
 10
97.8424180597716884
 20
49.4280390023805865
 30
0.0
 40
0.254020574
  0
CIRCLE
  5
CA
  8
2
  6
CONTINUOUS
 62
     5
 10
98.8585003557716959
 20
49.4280390023805865
 30
0.0
 40
0.254020573999995
  0
CIRCLE
  5
CB
  8
2
  6
CONTINUOUS
 62
     5
 10
99.874582651771675
 20
49.4280390023805865
 30
0.0
 40
0.254020573999995
  0
CIRCLE
  5
CC
  8
2
  6
CONTINUOUS
 62
     5
 10
85.6494305077716831
 20
46.6888965512589422
 30
0.0
 40
0.254020574
  0
CIRCLE
  5
CD
  8
2
  6
CONTINUOUS
 62
     5
 10
86.6655128037716764
 20
46.633812688380587
 30
0.0
 40
0.254020574
  0
CIRCLE
  5
CE
  8
2
  6
CONTINUOUS
 62
     5
 10
87.681595099771684
 20
46.633812688380587
 30
0.0
 40
0.254020574
  0
CIRCLE
  5
CF
  8
2
  6
CONTINUOUS
 62
     5
 10
89.6005446634266747
 20
46.2846620314329371
 30
0.0
 40
0.254020574
  0
CIRCLE
  5
D0
  8
2
  6
CONTINUOUS
 62
     5
 10
88.570667108771687
 20
46.633812688380587
 30
0.0
 40
0.254020574
  0
CIRCLE
  5
D1
  8
2
  6
CONTINUOUS
 62
     5
 10
78.4098441487716826
 20
44.4746378093805887
 30
0.0
 40
0.254020574
  0
CIRCLE
  5
D2
  8
2
  6
CONTINUOUS
 62
     5
 10
76.3776795567716533
 20
44.4746378093805887
 30
0.0
 40
0.254020574
  0
CIRCLE
  5
D3
  8
2
  6
CONTINUOUS
 62
     5
 10
75.3615972607716742
 20
44.4746378093805887
 30
0.0
 40
0.254020574
  0
CIRCLE
  5
D4
  8
2
  6
CONTINUOUS
 62
     5
 10
74.3455149647716524
 20
44.4746378093805887
 30
0.0
 40
0.254020574
  0
CIRCLE
  5
D5
  8
2
  6
CONTINUOUS
 62
     5
 10
73.3294326687716875
 20
44.4746378093805887
 30
-0.0000000000000025
 40
0.254020574
  0
CIRCLE
  5
D6
  8
2
  6
CONTINUOUS
 62
     5
 10
78.4098441487716826
 20
45.4907201053806034
 30
0.0
 40
0.254020574
  0
CIRCLE
  5
D7
  8
2
  6
CONTINUOUS
 62
     5
 10
77.628748496461327
 20
45.4319734465150873
 30
0.0
 40
0.254020574
  0
CIRCLE
  5
D8
  8
2
  6
CONTINUOUS
 62
     5
 10
75.3615972607716742
 20
45.4907201053806034
 30
0.0
 40
0.254020574
  0
CIRCLE
  5
D9
  8
2
  6
CONTINUOUS
 62
     5
 10
74.3455149647716524
 20
45.4907201053806034
 30
0.0
 40
0.254020574
  0
CIRCLE
  5
DA
  8
2
  6
CONTINUOUS
 62
     5
 10
73.3294326687716875
 20
45.4907201053806034
 30
-0.0000000000000025
 40
0.254020574
  0
CIRCLE
  5
DB
  8
2
  6
CONTINUOUS
 62
     5
 10
78.4098441487716826
 20
46.5068024013805683
 30
0.0
 40
0.254020574
  0
CIRCLE
  5
DC
  8
2
  6
CONTINUOUS
 62
     5
 10
77.3937618527716609
 20
46.5068024013805683
 30
0.0
 40
0.254020574
  0
CIRCLE
  5
DD
  8
2
  6
CONTINUOUS
 62
     5
 10
75.3615972607716742
 20
46.5068024013805683
 30
0.0
 40
0.254020574
  0
CIRCLE
  5
DE
  8
2
  6
CONTINUOUS
 62
     5
 10
74.3455149647716524
 20
46.5068024013805683
 30
0.0
 40
0.254020574
  0
CIRCLE
  5
DF
  8
2
  6
CONTINUOUS
 62
     5
 10
73.3294326687716875
 20
46.5068024013805683
 30
-0.0000000000000025
 40
0.254020574
  0
CIRCLE
  5
E0
  8
2
  6
CONTINUOUS
 62
     5
 10
72.3133503727716658
 20
44.4746378093805887
 30
-0.0000000000000025
 40
0.254020574
  0
CIRCLE
  5
E1
  8
2
  6
CONTINUOUS
 62
     5
 10
71.2972680767716867
 20
44.4746378093805887
 30
-0.0000000000000025
 40
0.254020574
  0
CIRCLE
  5
E2
  8
2
  6
CONTINUOUS
 62
     5
 10
70.2811857807716649
 20
44.4746378093805887
 30
-0.0000000000000025
 40
0.254020574
  0
CIRCLE
  5
E3
  8
2
  6
CONTINUOUS
 62
     5
 10
69.2651034847716716
 20
44.4746378093805887
 30
-0.0000000000000025
 40
0.254020574
  0
CIRCLE
  5
E4
  8
2
  6
CONTINUOUS
 62
     5
 10
72.3133503727716658
 20
45.4907201053806034
 30
-0.0000000000000025
 40
0.254020574
  0
CIRCLE
  5
E5
  8
2
  6
CONTINUOUS
 62
     5
 10
71.2972680767716867
 20
45.4907201053806034
 30
-0.0000000000000025
 40
0.254020574
  0
CIRCLE
  5
E6
  8
2
  6
CONTINUOUS
 62
     5
 10
70.2811857807716649
 20
45.4907201053806034
 30
-0.0000000000000025
 40
0.254020574
  0
CIRCLE
  5
E7
  8
2
  6
CONTINUOUS
 62
     5
 10
69.2651034847716716
 20
45.4907201053806034
 30
-0.0000000000000025
 40
0.254020574
  0
CIRCLE
  5
E8
  8
2
  6
CONTINUOUS
 62
     5
 10
72.3133503727716658
 20
46.5068024013805683
 30
-0.0000000000000025
 40
0.254020574
  0
CIRCLE
  5
E9
  8
2
  6
CONTINUOUS
 62
     5
 10
71.2972680767716867
 20
46.5068024013805683
 30
-0.0000000000000025
 40
0.254020574
  0
CIRCLE
  5
EA
  8
2
  6
CONTINUOUS
 62
     5
 10
70.2811857807716649
 20
46.5068024013805683
 30
-0.0000000000000025
 40
0.254020574
  0
CIRCLE
  5
EB
  8
2
  6
CONTINUOUS
 62
     5
 10
69.2651034847716716
 20
46.5068024013805683
 30
-0.0000000000000025
 40
0.254020574
  0
CIRCLE
  5
EC
  8
2
  6
CONTINUOUS
 62
     5
 10
77.393487864177942
 20
43.3132440691810388
 30
0.0
 40
0.254020574
  0
CIRCLE
  5
ED
  8
2
  6
CONTINUOUS
 62
     5
 10
76.3776795567716533
 20
43.4585555133806025
 30
0.0
 40
0.254020574
  0
CIRCLE
  5
EE
  8
2
  6
CONTINUOUS
 62
     5
 10
75.3615972607716742
 20
43.4585555133806025
 30
0.0
 40
0.254020574
  0
CIRCLE
  5
EF
  8
2
  6
CONTINUOUS
 62
     5
 10
74.3455149647716524
 20
43.4585555133806025
 30
0.0
 40
0.254020574
  0
CIRCLE
  5
F0
  8
2
  6
CONTINUOUS
 62
     5
 10
73.3294326687716875
 20
43.4585555133806025
 30
-0.0000000000000025
 40
0.254020574
  0
CIRCLE
  5
F1
  8
2
  6
CONTINUOUS
 62
     5
 10
75.3615972607716742
 20
40.9183497733806121
 30
0.0
 40
0.254020574
  0
CIRCLE
  5
F2
  8
2
  6
CONTINUOUS
 62
     5
 10
74.3455149647716524
 20
40.9183497733806121
 30
0.0
 40
0.254020574
  0
CIRCLE
  5
F3
  8
2
  6
CONTINUOUS
 62
     5
 10
73.3294326687716875
 20
40.9183497733806121
 30
-0.0000000000000025
 40
0.254020574
  0
CIRCLE
  5
F4
  8
2
  6
CONTINUOUS
 62
     5
 10
75.3615972607716742
 20
41.9344320693805912
 30
0.0
 40
0.254020574
  0
CIRCLE
  5
F5
  8
2
  6
CONTINUOUS
 62
     5
 10
74.3455149647716524
 20
41.9344320693805912
 30
0.0
 40
0.254020574
  0
CIRCLE
  5
F6
  8
2
  6
CONTINUOUS
 62
     5
 10
73.3294326687716875
 20
41.9344320693805912
 30
-0.0000000000000025
 40
0.254020574
  0
CIRCLE
  5
F7
  8
2
  6
CONTINUOUS
 62
     5
 10
72.3133503727716658
 20
40.9183497733806121
 30
-0.0000000000000025
 40
0.254020574
  0
CIRCLE
  5
F8
  8
2
  6
CONTINUOUS
 62
     5
 10
71.2972680767716867
 20
40.9183497733806121
 30
-0.0000000000000025
 40
0.254020574
  0
CIRCLE
  5
F9
  8
2
  6
CONTINUOUS
 62
     5
 10
70.2811857807716649
 20
40.9183497733806121
 30
-0.0000000000000025
 40
0.254020574
  0
CIRCLE
  5
FA
  8
2
  6
CONTINUOUS
 62
     5
 10
69.2651034847716716
 20
40.9183497733806121
 30
-0.0000000000000025
 40
0.254020574
  0
CIRCLE
  5
FB
  8
2
  6
CONTINUOUS
 62
     5
 10
75.3615972607716742
 20
38.8861851813805686
 30
0.0
 40
0.254020574
  0
CIRCLE
  5
FC
  8
2
  6
CONTINUOUS
 62
     5
 10
74.3455149647716524
 20
38.8861851813805686
 30
0.0
 40
0.254020574
  0
CIRCLE
  5
FD
  8
2
  6
CONTINUOUS
 62
     5
 10
73.3294326687716875
 20
38.8861851813805686
 30
-0.0000000000000025
 40
0.254020574
  0
CIRCLE
  5
FE
  8
2
  6
CONTINUOUS
 62
     5
 10
75.3615972607716742
 20
39.9022674773805903
 30
0.0
 40
0.254020574
  0
CIRCLE
  5
FF
  8
2
  6
CONTINUOUS
 62
     5
 10
74.3455149647716524
 20
39.9022674773805903
 30
0.0
 40
0.254020574
  0
CIRCLE
  5
100
  8
2
  6
CONTINUOUS
 62
     5
 10
73.3294326687716875
 20
39.9022674773805903
 30
-0.0000000000000025
 40
0.254020574
  0
CIRCLE
  5
101
  8
2
  6
CONTINUOUS
 62
     5
 10
72.3133503727716658
 20
38.8861851813805686
 30
-0.0000000000000025
 40
0.254020574
  0
CIRCLE
  5
102
  8
2
  6
CONTINUOUS
 62
     5
 10
71.2972680767716867
 20
38.8861851813805686
 30
-0.0000000000000025
 40
0.254020574
  0
CIRCLE
  5
103
  8
2
  6
CONTINUOUS
 62
     5
 10
70.2811857807716649
 20
38.8861851813805686
 30
-0.0000000000000025
 40
0.254020574
  0
CIRCLE
  5
104
  8
2
  6
CONTINUOUS
 62
     5
 10
69.2651034847716716
 20
38.8861851813805686
 30
-0.0000000000000025
 40
0.254020574
  0
CIRCLE
  5
105
  8
2
  6
CONTINUOUS
 62
     5
 10
72.3133503727716658
 20
39.9022674773805903
 30
-0.0000000000000025
 40
0.254020574
  0
CIRCLE
  5
106
  8
2
  6
CONTINUOUS
 62
     5
 10
71.2972680767716867
 20
39.9022674773805903
 30
-0.0000000000000025
 40
0.254020574
  0
CIRCLE
  5
107
  8
2
  6
CONTINUOUS
 62
     5
 10
70.2811857807716649
 20
39.9022674773805903
 30
-0.0000000000000025
 40
0.254020574
  0
CIRCLE
  5
108
  8
2
  6
CONTINUOUS
 62
     5
 10
69.2651034847716716
 20
39.9022674773805903
 30
-0.0000000000000025
 40
0.254020574
  0
CIRCLE
  5
109
  8
2
  6
CONTINUOUS
 62
     5
 10
76.3776795567716533
 20
41.4263909213805874
 30
0.0
 40
0.254020574
  0
CIRCLE
  5
10A
  8
2
  6
CONTINUOUS
 62
     5
 10
77.3937618527716609
 20
42.4424732173805808
 30
0.0
 40
0.254020574
  0
CIRCLE
  5
10B
  8
2
  6
CONTINUOUS
 62
     5
 10
76.3776795567716533
 20
42.4424732173805808
 30
0.0
 40
0.254020574
  0
CIRCLE
  5
10C
  8
2
  6
CONTINUOUS
 62
     5
 10
76.3776795567716533
 20
40.4103086253806012
 30
0.0
 40
0.254020574
  0
CIRCLE
  5
10D
  8
2
  6
CONTINUOUS
 62
     5
 10
78.4098441487716826
 20
40.4103086253806012
 30
0.0
 40
0.254020574
  0
CIRCLE
  5
10E
  8
2
  6
CONTINUOUS
 62
     5
 10
78.4098441487716826
 20
42.6964937913805826
 30
0.0
 40
0.254020574
  0
CIRCLE
  5
10F
  8
2
  6
CONTINUOUS
 62
     5
 10
81.4580910367716768
 20
37.108041163380598
 30
0.0
 40
0.254020574
  0
CIRCLE
  5
110
  8
2
  6
CONTINUOUS
 62
     5
 10
80.4420087407716693
 20
37.108041163380598
 30
0.0
 40
0.254020574
  0
CIRCLE
  5
111
  8
2
  6
CONTINUOUS
 62
     5
 10
79.4259264447716617
 20
37.108041163380598
 30
0.0
 40
0.254020574
  0
CIRCLE
  5
112
  8
2
  6
CONTINUOUS
 62
     5
 10
78.4098441487716826
 20
37.108041163380598
 30
0.0
 40
0.254020574
  0
CIRCLE
  5
113
  8
2
  6
CONTINUOUS
 62
     5
 10
83.4902556287716635
 20
38.1241234593805984
 30
0.0
 40
0.254020574
  0
CIRCLE
  5
114
  8
2
  6
CONTINUOUS
 62
     5
 10
82.4741733327716844
 20
38.1241234593805984
 30
0.0
 40
0.254020574
  0
CIRCLE
  5
115
  8
2
  6
CONTINUOUS
 62
     5
 10
81.4580910367716768
 20
38.1241234593805984
 30
0.0
 40
0.254020574
  0
CIRCLE
  5
116
  8
2
  6
CONTINUOUS
 62
     5
 10
80.4420087407716693
 20
38.1241234593805984
 30
0.0
 40
0.254020574
  0
CIRCLE
  5
117
  8
2
  6
CONTINUOUS
 62
     5
 10
79.4259264447716617
 20
38.1241234593805984
 30
0.0
 40
0.254020574
  0
CIRCLE
  5
118
  8
2
  6
CONTINUOUS
 62
     5
 10
78.4098441487716826
 20
38.1241234593805984
 30
0.0
 40
0.254020574
  0
CIRCLE
  5
119
  8
2
  6
CONTINUOUS
 62
     5
 10
83.5261003636769601
 20
38.7751029617720633
 30
0.0
 40
0.254020574
  0
CIRCLE
  5
11A
  8
2
  6
CONTINUOUS
 62
     5
 10
82.4741733327716844
 20
38.7699475941781202
 30
0.0
 40
0.254020574
  0
CIRCLE
  5
11B
  8
2
  6
CONTINUOUS
 62
     5
 10
81.4580910367716768
 20
38.7493326167077612
 30
0.0
 40
0.254020574
  0
CIRCLE
  5
11C
  8
2
  6
CONTINUOUS
 62
     5
 10
80.4420087407716693
 20
39.1402057553805918
 30
0.0
 40
0.254020574
  0
CIRCLE
  5
11D
  8
2
  6
CONTINUOUS
 62
     5
 10
79.4259264447716617
 20
39.1402057553805918
 30
0.0
 40
0.254020574
  0
CIRCLE
  5
11E
  8
2
  6
CONTINUOUS
 62
     5
 10
78.4098441487716826
 20
39.1402057553805918
 30
0.0
 40
0.254020574
  0
CIRCLE
  5
11F
  8
2
  6
CONTINUOUS
 62
     5
 10
80.4420087407716693
 20
35.0758765713805687
 30
0.0
 40
0.254020574
  0
CIRCLE
  5
120
  8
2
  6
CONTINUOUS
 62
     5
 10
78.4098441487716826
 20
35.0758765713805687
 30
0.0
 40
0.254020574
  0
CIRCLE
  5
121
  8
2
  6
CONTINUOUS
 62
     5
 10
81.4580910367716768
 20
36.0919588673805904
 30
0.0
 40
0.254020574
  0
CIRCLE
  5
122
  8
2
  6
CONTINUOUS
 62
     5
 10
79.4259264447716617
 20
36.0919588673805904
 30
0.0
 40
0.254020574
  0
CIRCLE
  5
123
  8
2
  6
CONTINUOUS
 62
     5
 10
77.3937618527716609
 20
37.108041163380598
 30
0.0
 40
0.254020574
  0
CIRCLE
  5
124
  8
2
  6
CONTINUOUS
 62
     5
 10
77.3937618527716609
 20
38.1241234593805984
 30
0.0
 40
0.254020574
  0
CIRCLE
  5
125
  8
2
  6
CONTINUOUS
 62
     5
 10
77.3937618527716609
 20
36.0919588673805904
 30
0.0
 40
0.254020574
  0
CIRCLE
  5
126
  8
2
  6
CONTINUOUS
 62
     5
 10
75.3615972607716742
 20
35.0758765713805687
 30
0.0
 40
0.254020574
  0
CIRCLE
  5
127
  8
2
  6
CONTINUOUS
 62
     5
 10
74.3455149647716524
 20
35.0758765713805687
 30
0.0
 40
0.254020574
  0
CIRCLE
  5
128
  8
2
  6
CONTINUOUS
 62
     5
 10
73.3294326687716875
 20
35.0758765713805687
 30
-0.0000000000000025
 40
0.254020574
  0
CIRCLE
  5
129
  8
2
  6
CONTINUOUS
 62
     5
 10
72.3133503727716658
 20
35.0758765713805687
 30
-0.0000000000000025
 40
0.254020574
  0
CIRCLE
  5
12A
  8
2
  6
CONTINUOUS
 62
     5
 10
71.2972680767716867
 20
35.0758765713805687
 30
-0.0000000000000025
 40
0.254020574
  0
CIRCLE
  5
12B
  8
2
  6
CONTINUOUS
 62
     5
 10
70.2811857807716649
 20
35.0758765713805687
 30
-0.0000000000000025
 40
0.254020574
  0
CIRCLE
  5
12C
  8
2
  6
CONTINUOUS
 62
     5
 10
75.3615972607716742
 20
35.9649485803806073
 30
0.0
 40
0.254020574
  0
CIRCLE
  5
12D
  8
2
  6
CONTINUOUS
 62
     5
 10
74.3455149647716524
 20
35.9649485803806073
 30
0.0
 40
0.254020574
  0
CIRCLE
  5
12E
  8
2
  6
CONTINUOUS
 62
     5
 10
73.3294326687716875
 20
35.9649485803806073
 30
-0.0000000000000025
 40
0.254020574
  0
CIRCLE
  5
12F
  8
2
  6
CONTINUOUS
 62
     5
 10
72.3133503727716658
 20
35.9649485803806073
 30
-0.0000000000000025
 40
0.254020574
  0
CIRCLE
  5
130
  8
2
  6
CONTINUOUS
 62
     5
 10
71.2972680767716867
 20
35.9649485803806073
 30
-0.0000000000000025
 40
0.254020574
  0
CIRCLE
  5
131
  8
2
  6
CONTINUOUS
 62
     5
 10
70.2811857807716649
 20
35.9649485803806073
 30
-0.0000000000000025
 40
0.254020574
  0
CIRCLE
  5
132
  8
2
  6
CONTINUOUS
 62
     5
 10
75.3615972607716742
 20
36.9810308763805722
 30
0.0
 40
0.254020574
  0
CIRCLE
  5
133
  8
2
  6
CONTINUOUS
 62
     5
 10
74.3455149647716524
 20
36.9810308763805722
 30
0.0
 40
0.254020574
  0
CIRCLE
  5
134
  8
2
  6
CONTINUOUS
 62
     5
 10
73.3294326687716875
 20
36.9810308763805722
 30
-0.0000000000000025
 40
0.254020574
  0
CIRCLE
  5
135
  8
2
  6
CONTINUOUS
 62
     5
 10
72.3133503727716658
 20
36.9810308763805722
 30
-0.0000000000000025
 40
0.254020574
  0
CIRCLE
  5
136
  8
2
  6
CONTINUOUS
 62
     5
 10
71.2972680767716867
 20
36.9810308763805722
 30
-0.0000000000000025
 40
0.254020574
  0
CIRCLE
  5
137
  8
2
  6
CONTINUOUS
 62
     5
 10
70.2811857807716649
 20
36.9810308763805722
 30
-0.0000000000000025
 40
0.254020574
  0
CIRCLE
  5
138
  8
2
  6
CONTINUOUS
 62
     5
 10
69.2651034847716716
 20
35.9649485803806073
 30
-0.0000000000000025
 40
0.254020574
  0
CIRCLE
  5
139
  8
2
  6
CONTINUOUS
 62
     5
 10
69.2651034847716716
 20
36.9810308763805722
 30
-0.0000000000000025
 40
0.254020574
  0
CIRCLE
  5
13A
  8
2
  6
CONTINUOUS
 62
     5
 10
81.5851013237716387
 20
50.3171110113805682
 30
0.0
 40
0.254020574
  0
CIRCLE
  5
13B
  8
2
  6
CONTINUOUS
 62
     5
 10
79.5529367317716805
 20
50.3171110113805682
 30
0.0
 40
0.254020574
  0
CIRCLE
  5
13C
  8
2
  6
CONTINUOUS
 62
     5
 10
78.5368544357716871
 20
50.3171110113805682
 30
0.0
 40
0.254020574
  0
CIRCLE
  5
13D
  8
2
  6
CONTINUOUS
 62
     5
 10
77.5207721397716654
 20
50.3171110113805682
 30
0.0
 40
0.254020574
  0
CIRCLE
  5
13E
  8
2
  6
CONTINUOUS
 62
     5
 10
76.504689843771672
 20
50.3171110113805682
 30
0.0
 40
0.254020574
  0
CIRCLE
  5
13F
  8
2
  6
CONTINUOUS
 62
     5
 10
75.4886075477716503
 20
50.3171110113805682
 30
0.0
 40
0.254020574
  0
CIRCLE
  5
140
  8
2
  6
CONTINUOUS
 62
     5
 10
74.4725252517716712
 20
50.3171110113805682
 30
0.0
 40
0.254020574
  0
CIRCLE
  5
141
  8
2
  6
CONTINUOUS
 62
     5
 10
73.4564429557716778
 20
50.3171110113805682
 30
-0.0000000000000025
 40
0.254020574
  0
CIRCLE
  5
142
  8
2
  6
CONTINUOUS
 62
     5
 10
72.4403606597716561
 20
50.3171110113805682
 30
-0.0000000000000025
 40
0.254020574
  0
CIRCLE
  5
143
  8
2
  6
CONTINUOUS
 62
     5
 10
71.4242783637716911
 20
50.3171110113805682
 30
-0.0000000000000025
 40
0.254020574
  0
CIRCLE
  5
144
  8
2
  6
CONTINUOUS
 62
     5
 10
70.4081960677716694
 20
50.3171110113805682
 30
-0.0000000000000025
 40
0.254020574
  0
CIRCLE
  5
145
  8
2
  6
CONTINUOUS
 62
     5
 10
82.8552041937716695
 20
48.1579361323805699
 30
0.0
 40
0.254020574
  0
CIRCLE
  5
146
  8
2
  6
CONTINUOUS
 62
     5
 10
81.1604050168360232
 20
47.6682266924879414
 30
0.0
 40
0.254020574
  0
CIRCLE
  5
147
  8
2
  6
CONTINUOUS
 62
     5
 10
80.5690190277716738
 20
48.4119567063805718
 30
0.0
 40
0.254020574
  0
CIRCLE
  5
148
  8
2
  6
CONTINUOUS
 62
     5
 10
79.5529367317716805
 20
48.4119567063805718
 30
0.0
 40
0.254020574
  0
CIRCLE
  5
149
  8
2
  6
CONTINUOUS
 62
     5
 10
83.0159810539538512
 20
50.3731790034292715
 30
0.0
 40
0.254020574
  0
CIRCLE
  5
14A
  8
2
  6
CONTINUOUS
 62
     5
 10
81.5851013237716387
 20
48.9950341938563412
 30
0.0
 40
0.254020574
  0
CIRCLE
  5
14B
  8
2
  6
CONTINUOUS
 62
     5
 10
80.5690190277716738
 20
49.4280390023805865
 30
0.0
 40
0.254020574
  0
CIRCLE
  5
14C
  8
2
  6
CONTINUOUS
 62
     5
 10
79.5529367317716805
 20
49.4280390023805865
 30
0.0
 40
0.254020574
  0
CIRCLE
  5
14D
  8
2
  6
CONTINUOUS
 62
     5
 10
78.5368544357716871
 20
48.4119567063805718
 30
0.0
 40
0.254020574
  0
CIRCLE
  5
14E
  8
2
  6
CONTINUOUS
 62
     5
 10
77.5207721397716654
 20
48.4119567063805718
 30
0.0
 40
0.254020574
  0
CIRCLE
  5
14F
  8
2
  6
CONTINUOUS
 62
     5
 10
76.504689843771672
 20
48.4119567063805718
 30
0.0
 40
0.254020574
  0
CIRCLE
  5
150
  8
2
  6
CONTINUOUS
 62
     5
 10
75.4886075477716503
 20
48.4119567063805718
 30
0.0
 40
0.254020574
  0
CIRCLE
  5
151
  8
2
  6
CONTINUOUS
 62
     5
 10
74.4725252517716712
 20
48.4119567063805718
 30
0.0
 40
0.254020574
  0
CIRCLE
  5
152
  8
2
  6
CONTINUOUS
 62
     5
 10
73.4564429557716778
 20
48.4119567063805718
 30
-0.0000000000000025
 40
0.254020574
  0
CIRCLE
  5
153
  8
2
  6
CONTINUOUS
 62
     5
 10
78.5368544357716871
 20
49.4280390023805865
 30
0.0
 40
0.254020574
  0
CIRCLE
  5
154
  8
2
  6
CONTINUOUS
 62
     5
 10
77.5207721397716654
 20
49.4280390023805865
 30
0.0
 40
0.254020574
  0
CIRCLE
  5
155
  8
2
  6
CONTINUOUS
 62
     5
 10
76.504689843771672
 20
49.4280390023805865
 30
0.0
 40
0.254020574
  0
CIRCLE
  5
156
  8
2
  6
CONTINUOUS
 62
     5
 10
75.4886075477716503
 20
49.4280390023805865
 30
0.0
 40
0.254020574
  0
CIRCLE
  5
157
  8
2
  6
CONTINUOUS
 62
     5
 10
74.4725252517716712
 20
49.4280390023805865
 30
0.0
 40
0.254020574
  0
CIRCLE
  5
158
  8
2
  6
CONTINUOUS
 62
     5
 10
73.4564429557716778
 20
49.4280390023805865
 30
-0.0000000000000025
 40
0.254020574
  0
CIRCLE
  5
159
  8
2
  6
CONTINUOUS
 62
     5
 10
72.4403606597716561
 20
48.4119567063805718
 30
-0.0000000000000025
 40
0.254020574
  0
CIRCLE
  5
15A
  8
2
  6
CONTINUOUS
 62
     5
 10
71.4242783637716911
 20
48.4119567063805718
 30
-0.0000000000000025
 40
0.254020574
  0
CIRCLE
  5
15B
  8
2
  6
CONTINUOUS
 62
     5
 10
70.4081960677716694
 20
48.4119567063805718
 30
-0.0000000000000025
 40
0.254020574
  0
CIRCLE
  5
15C
  8
2
  6
CONTINUOUS
 62
     5
 10
69.3921137717716761
 20
48.4119567063805718
 30
-0.0000000000000025
 40
0.254020574
  0
CIRCLE
  5
15D
  8
2
  6
CONTINUOUS
 62
     5
 10
72.4403606597716561
 20
49.4280390023805865
 30
-0.0000000000000025
 40
0.254020574
  0
CIRCLE
  5
15E
  8
2
  6
CONTINUOUS
 62
     5
 10
71.4242783637716911
 20
49.4280390023805865
 30
-0.0000000000000025
 40
0.254020574
  0
CIRCLE
  5
15F
  8
2
  6
CONTINUOUS
 62
     5
 10
70.4081960677716694
 20
49.4280390023805865
 30
-0.0000000000000025
 40
0.254020574
  0
CIRCLE
  5
160
  8
2
  6
CONTINUOUS
 62
     5
 10
69.3921137717716761
 20
49.4280390023805865
 30
-0.0000000000000025
 40
0.254020574
  0
CIRCLE
  5
161
  8
2
  6
CONTINUOUS
 62
     5
 10
83.6172659157716538
 20
46.3797921143805922
 30
0.0
 40
0.254020574
  0
CIRCLE
  5
162
  8
2
  6
CONTINUOUS
 62
     5
 10
86.0150722135912531
 20
48.8553123179366935
 30
0.0
 40
0.254020574
  0
CIRCLE
  5
163
  8
2
  6
CONTINUOUS
 62
     5
 10
82.6011836197716747
 20
47.3958744103806069
 30
0.0
 40
0.254020574
  0
CIRCLE
  5
164
  8
2
  6
CONTINUOUS
 62
     5
 10
84.7528641058000858
 20
48.868316764615173
 30
0.0
 40
0.254020574
  0
CIRCLE
  5
165
  8
2
  6
CONTINUOUS
 62
     5
 10
80.3149984537716648
 20
47.3958744103806069
 30
0.0
 40
0.254020574
  0
CIRCLE
  5
166
  8
2
  6
CONTINUOUS
 62
     5
 10
79.5057044093312157
 20
46.4961105122746403
 30
0.0
 40
0.254020574
  0
CIRCLE
  5
167
  8
2
  6
CONTINUOUS
 62
     5
 10
78.4098441487716826
 20
41.2993806343805829
 30
0.0
 40
0.254020574
  0
CIRCLE
  5
168
  8
2
  6
CONTINUOUS
 62
     5
 10
77.5207721397716654
 20
39.1402057553805918
 30
0.0
 40
0.254020574
  0
CIRCLE
  5
169
  8
2
  6
CONTINUOUS
 62
     5
 10
76.0450559565432229
 20
39.511719647111633
 30
0.0
 40
0.254020574
  0
CIRCLE
  5
16A
  8
2
  6
CONTINUOUS
 62
     5
 10
76.3776795567716533
 20
37.3620617373805999
 30
0.0
 40
0.254020574
  0
CIRCLE
  5
16B
  8
2
  6
CONTINUOUS
 62
     5
 10
76.3776795567716533
 20
35.3298971453806132
 30
0.0
 40
0.254020574
  0
CIRCLE
  5
16C
  8
2
  6
CONTINUOUS
 62
     5
 10
76.3776795567716533
 20
36.3459794413805781
 30
0.0
 40
0.254020574
  0
CIRCLE
  5
16D
  8
2
  6
CONTINUOUS
 62
     5
 10
84.6333482117716613
 20
46.633812688380587
 30
0.0
 40
0.254020574
  0
CIRCLE
  5
16E
  8
2
  6
CONTINUOUS
 62
     5
 10
69.2651034847716716
 20
43.4585555133806025
 30
-0.0000000000000025
 40
0.254020574
  0
CIRCLE
  5
16F
  8
2
  6
CONTINUOUS
 62
     5
 10
69.2651034847716716
 20
41.9344320693805912
 30
-0.0000000000000025
 40
0.254020574
  0
CIRCLE
  5
170
  8
2
  6
CONTINUOUS
 62
   172
 10
70.9162372157716732
 20
42.6964937913805826
 30
0.0
 40
0.8509689229000001
  0
CIRCLE
  5
171
  8
2
  6
CONTINUOUS
 62
     5
 10
100.0015929387715943
 20
43.4585555133806025
 30
0.0
 40
0.2540205740000051
  0
CIRCLE
  5
172
  8
2
  6
CONTINUOUS
 62
     5
 10
100.0015929387715943
 20
41.9344320693805912
 30
0.0
 40
0.2540205740000051
  0
CIRCLE
  5
173
  8
2
  6
CONTINUOUS
 62
   172
 10
98.116219321940136
 20
42.2911745682988922
 30
0.0
 40
0.8509689229000024
  0
CIRCLE
  5
174
  8
2
  6
CONTINUOUS
 62
   172
 10
84.6333482117716613
 20
36.4893725539536931
 30
0.0
 40
0.8509689229000001
  0
CIRCLE
  5
175
  8
2
  6
CONTINUOUS
 62
     5
 10
85.9034510817716637
 20
50.3171110113805682
 30
0.0
 40
0.254020574
  0
CIRCLE
  5
176
  8
2
  6
CONTINUOUS
 62
     5
 10
84.5034219748012703
 20
50.3171110113805682
 30
0.0
 40
0.254020574
  0
LINE
  5
1BE
  8
1
  6
CONTINUOUS
 10
79.1465038133716519
 20
43.3467864608205602
 30
0.0
 11
79.3419209365084157
 21
43.3467864608205602
 31
0.0
  0
POLYLINE
  5
1BF
  8
1
  6
CONTINUOUS
 66
     1
 10
0.0
 20
0.0
 30
0.0
 70
   129
  0
VERTEX
  5
1C1
  8
1
  6
CONTINUOUS
 10
68.7570623367716678
 20
38.1368244880806202
 30
0.0
  0
VERTEX
  5
1C2
  8
1
  6
CONTINUOUS
 10
72.5673709467716606
 20
38.1368244880806202
 30
0.0
  0
VERTEX
  5
1C3
  8
1
  6
CONTINUOUS
 10
73.3294326687716875
 20
37.9971131723805868
 30
0.0
  0
VERTEX
  5
1C4
  8
1
  6
CONTINUOUS
 10
74.9551643423716598
 20
37.9971131723805868
 30
0.0
  0
VERTEX
  5
1C5
  8
1
  6
CONTINUOUS
 10
75.0615196195370373
 20
37.9998981833269127
 30
0.0
  0
VERTEX
  5
1C6
  8
1
  6
CONTINUOUS
 10
75.1675833842803485
 20
38.008245582644463
 30
0.0
  0
VERTEX
  5
1C7
  8
1
  6
CONTINUOUS
 10
75.2730649231948945
 20
38.0221324906919307
 30
0.0
  0
VERTEX
  5
1C8
  8
1
  6
CONTINUOUS
 10
75.3776751187143645
 20
38.0415208444196224
 30
0.0
  0
VERTEX
  5
1C9
  8
1
  6
CONTINUOUS
 10
75.4811272415642662
 20
38.0663575016976097
 30
0.0
  0
VERTEX
  5
1CA
  8
1
  6
CONTINUOUS
 10
75.5831377366666857
 20
38.0965743869747087
 30
0.0
  0
VERTEX
  5
1CB
  8
1
  6
CONTINUOUS
 10
75.6834270003452616
 20
38.1320886778687083
 30
0.0
  0
VERTEX
  5
1CC
  8
1
  6
CONTINUOUS
 10
75.7817201466992287
 20
38.172803032176887
 30
0.0
  0
VERTEX
  5
1CD
  8
1
  6
CONTINUOUS
 10
75.8777477610467486
 20
38.2186058546839718
 30
0.0
  0
VERTEX
  5
1CE
  8
1
  6
CONTINUOUS
 10
75.9712466383716816
 20
38.2693716030373494
 30
0.0
  0
VERTEX
  5
1CF
  8
1
  6
CONTINUOUS
 10
76.0619605047502603
 20
38.3249611318493919
 30
0.0
  0
VERTEX
  5
1D0
  8
1
  6
CONTINUOUS
 10
76.1496407197801943
 20
38.3852220740855472
 30
0.0
  0
VERTEX
  5
1D1
  8
1
  6
CONTINUOUS
 10
76.2340469580867364
 20
38.4499892586919501
 30
0.0
  0
VERTEX
  5
1D2
  8
1
  6
CONTINUOUS
 10
76.3149478680376205
 20
38.5190851633173921
 30
0.0
  0
VERTEX
  5
1D3
  8
1
  6
CONTINUOUS
 10
76.392121705862067
 20
38.5923204008901877
 30
0.0
  0
VERTEX
  5
1D4
  8
1
  6
CONTINUOUS
 10
76.465356943434827
 20
38.669494238714627
 30
0.0
  0
VERTEX
  5
1D5
  8
1
  6
CONTINUOUS
 10
76.5344528480603401
 20
38.7503951486655183
 30
0.0
  0
VERTEX
  5
1D6
  8
1
  6
CONTINUOUS
 10
76.599220032666679
 20
38.8348013869720603
 30
0.0
  0
VERTEX
  5
1D7
  8
1
  6
CONTINUOUS
 10
76.6594809749029054
 20
38.9224816020020015
 30
0.0
  0
VERTEX
  5
1D8
  8
1
  6
CONTINUOUS
 10
76.7150705037149123
 20
39.0131954683805802
 30
0.0
  0
VERTEX
  5
1D9
  8
1
  6
CONTINUOUS
 10
76.7658362520682545
 20
39.1066943457055203
 30
0.0
  0
VERTEX
  5
1DA
  8
1
  6
CONTINUOUS
 10
76.8116390745753961
 20
39.202721960053033
 30
0.0
  0
VERTEX
  5
1DB
  8
1
  6
CONTINUOUS
 10
76.8523534288835464
 20
39.301015106406993
 30
0.0
  0
VERTEX
  5
1DC
  8
1
  6
CONTINUOUS
 10
76.8878677197775744
 20
39.4013043700855619
 30
0.0
  0
VERTEX
  5
1DD
  8
1
  6
CONTINUOUS
 10
76.9180846050546734
 20
39.5033148651880026
 30
0.0
  0
VERTEX
  5
1DE
  8
1
  6
CONTINUOUS
 10
76.9429212623326606
 20
39.6067669880378901
 30
0.0
  0
VERTEX
  5
1DF
  8
1
  6
CONTINUOUS
 10
76.9623096160603524
 20
39.7113771835574028
 30
0.0
  0
VERTEX
  5
1E0
  8
1
  6
CONTINUOUS
 10
76.9761965241078059
 20
39.8168587224719204
 30
0.0
  0
VERTEX
  5
1E1
  8
1
  6
CONTINUOUS
 10
76.984543923425349
 20
39.9229224872152528
 30
0.0
  0
VERTEX
  5
1E2
  8
1
  6
CONTINUOUS
 10
76.9873289343716607
 20
40.0292777643806019
 30
0.0
  0
VERTEX
  5
1E3
  8
1
  6
CONTINUOUS
 10
76.9873289343716607
 20
40.0546798217805886
 30
0.0
  0
VERTEX
  5
1E4
  8
1
  6
CONTINUOUS
 10
76.9902880085021195
 20
40.1676823037687925
 30
0.0
  0
VERTEX
  5
1E5
  8
1
  6
CONTINUOUS
 10
76.9991571202770331
 20
40.2803750538085907
 30
0.0
  0
VERTEX
  5
1E6
  8
1
  6
CONTINUOUS
 10
77.0139119600774507
 20
40.3924491889052888
 30
0.0
  0
VERTEX
  5
1E7
  8
1
  6
CONTINUOUS
 10
77.0345120859131214
 20
40.5035975216447
 30
0.0
  0
VERTEX
  5
1E8
  8
1
  6
CONTINUOUS
 10
77.0609010342709979
 20
40.6135154021727374
 30
0.0
  0
VERTEX
  5
1E9
  8
1
  6
CONTINUOUS
 10
77.0930064748779245
 20
40.7219015532190483
 30
0.0
  0
VERTEX
  5
1EA
  8
1
  6
CONTINUOUS
 10
77.1307404089528177
 20
40.8284588958775387
 30
0.0
  0
VERTEX
  5
1EB
  8
1
  6
CONTINUOUS
 10
77.1739994104052158
 20
40.9328953638786288
 30
0.0
  0
VERTEX
  5
1EC
  8
1
  6
CONTINUOUS
 10
77.222664909319036
 20
41.0349247041228935
 30
0.0
  0
VERTEX
  5
1ED
  8
1
  6
CONTINUOUS
 10
77.2766035169444763
 20
41.1342672612805771
 30
0.0
  0
VERTEX
  5
1EE
  8
1
  6
CONTINUOUS
 10
77.3356673913072683
 20
41.2306507443078516
 30
0.0
  0
VERTEX
  5
1EF
  8
1
  6
CONTINUOUS
 10
77.3996946424331895
 20
41.3238109727771814
 30
0.0
  0
VERTEX
  5
1F0
  8
1
  6
CONTINUOUS
 10
77.4685097760774823
 20
41.4134926009778894
 30
0.0
  0
VERTEX
  5
1F1
  8
1
  6
CONTINUOUS
 10
77.54192417474205
 20
41.4994498178006879
 30
0.0
  0
VERTEX
  5
1F2
  8
1
  6
CONTINUOUS
 10
77.6197366146631254
 20
41.5814470204891506
 30
0.0
  0
VERTEX
  5
1F3
  8
1
  6
CONTINUOUS
 10
77.701733817351581
 20
41.6592594604102402
 30
0.0
  0
VERTEX
  5
1F4
  8
1
  6
CONTINUOUS
 10
77.787691034174415
 20
41.7326738590747865
 30
0.0
  0
VERTEX
  5
1F5
  8
1
  6
CONTINUOUS
 10
77.8773726623750946
 20
41.8014889927190367
 30
0.0
  0
VERTEX
  5
1F6
  8
1
  6
CONTINUOUS
 10
77.9705328908444244
 20
41.865516243845029
 30
0.0
  0
VERTEX
  5
1F7
  8
1
  6
CONTINUOUS
 10
78.0669163738716918
 20
41.9245801182077997
 30
0.0
  0
VERTEX
  5
1F8
  8
1
  6
CONTINUOUS
 10
78.1662589310294038
 20
41.9785187258332328
 30
0.0
  0
VERTEX
  5
1F9
  8
1
  6
CONTINUOUS
 10
78.2682882712736046
 20
42.0271842247470531
 30
0.0
  0
VERTEX
  5
1FA
  8
1
  6
CONTINUOUS
 10
78.3727247392747302
 20
42.0704432261994867
 30
0.0
  0
VERTEX
  5
1FB
  8
1
  6
CONTINUOUS
 10
78.4792820819332206
 20
42.1081771602743586
 30
0.0
  0
VERTEX
  5
1FC
  8
1
  6
CONTINUOUS
 10
78.5876682329795528
 20
42.140282600881271
 30
0.0
  0
VERTEX
  5
1FD
  8
1
  6
CONTINUOUS
 10
78.6975861135075689
 20
42.1666715492391475
 30
0.0
  0
VERTEX
  5
1FE
  8
1
  6
CONTINUOUS
 10
78.8087344462470156
 20
42.1872716750748182
 30
0.0
  0
VERTEX
  5
1FF
  8
1
  6
CONTINUOUS
 10
78.9208085813437066
 20
42.2020265148752287
 30
0.0
  0
VERTEX
  5
200
  8
1
  6
CONTINUOUS
 10
79.0335013313834907
 20
42.2108956266501565
 30
0.0
  0
VERTEX
  5
201
  8
1
  6
CONTINUOUS
 10
79.1465038133716519
 20
42.2138547007805727
 30
0.0
  0
VERTEX
  5
202
  8
1
  6
CONTINUOUS
 10
80.8992457739716855
 20
42.2126201063671829
 30
0.0
  0
VERTEX
  5
203
  8
1
  6
CONTINUOUS
 10
79.1465038133716519
 20
42.2138547007805727
 30
0.0
  0
VERTEX
  5
204
  8
1
  6
CONTINUOUS
 10
80.8992457739716855
 20
42.2126201063671829
 30
0.0
  0
VERTEX
  5
205
  8
1
  6
CONTINUOUS
 10
80.8992457739716855
 20
42.0862437473741977
 30
0.0
  0
VERTEX
  5
206
  8
1
  6
CONTINUOUS
 10
79.1465038133716519
 20
42.0868444137805966
 30
0.0
  0
VERTEX
  5
207
  8
1
  6
CONTINUOUS
 10
80.8992457739716855
 20
42.0862437473741977
 30
0.0
  0
VERTEX
  5
208
  8
1
  6
CONTINUOUS
 10
79.1465038133716519
 20
42.0868444137805966
 30
0.0
  0
VERTEX
  5
209
  8
1
  6
CONTINUOUS
 10
79.0401485362063028
 20
42.0840594028342707
 30
0.0
  0
VERTEX
  5
20A
  8
1
  6
CONTINUOUS
 10
78.9340847714629916
 20
42.0757120035166992
 30
0.0
  0
VERTEX
  5
20B
  8
1
  6
CONTINUOUS
 10
78.8286032325484456
 20
42.0618250954692527
 30
0.0
  0
VERTEX
  5
20C
  8
1
  6
CONTINUOUS
 10
78.7239930370289756
 20
42.0424367417415681
 30
0.0
  0
VERTEX
  5
20D
  8
1
  6
CONTINUOUS
 10
78.6205409141791023
 20
42.0176000844635809
 30
0.0
  0
VERTEX
  5
20E
  8
1
  6
CONTINUOUS
 10
78.5185304190766544
 20
41.9873831991864819
 30
0.0
  0
VERTEX
  5
20F
  8
1
  6
CONTINUOUS
 10
78.4182411553981069
 20
41.9518689082924823
 30
0.0
  0
VERTEX
  5
210
  8
1
  6
CONTINUOUS
 10
78.3199480090441114
 20
41.9111545539842965
 30
0.0
  0
VERTEX
  5
211
  8
1
  6
CONTINUOUS
 10
78.2239203946966057
 20
41.8653517314771904
 30
0.0
  0
VERTEX
  5
212
  8
1
  6
CONTINUOUS
 10
78.1304215173717012
 20
41.8145859831238411
 30
0.0
  0
VERTEX
  5
213
  8
1
  6
CONTINUOUS
 10
78.0397076509931082
 20
41.7589964543117986
 30
0.0
  0
VERTEX
  5
214
  8
1
  6
CONTINUOUS
 10
77.9520274359631458
 20
41.6987355120756433
 30
0.0
  0
VERTEX
  5
215
  8
1
  6
CONTINUOUS
 10
77.8676211976566037
 20
41.6339683274692476
 30
0.0
  0
VERTEX
  5
216
  8
1
  6
CONTINUOUS
 10
77.7867202877057053
 20
41.5648724228437985
 30
0.0
  0
VERTEX
  5
217
  8
1
  6
CONTINUOUS
 10
77.7095464498813016
 20
41.4916371852710029
 30
0.0
  0
VERTEX
  5
218
  8
1
  6
CONTINUOUS
 10
77.6363112123084846
 20
41.4144633474465635
 30
0.0
  0
VERTEX
  5
219
  8
1
  6
CONTINUOUS
 10
77.5672153076830142
 20
41.3335624374956723
 30
0.0
  0
VERTEX
  5
21A
  8
1
  6
CONTINUOUS
 10
77.5024481230766327
 20
41.2491561991891302
 30
0.0
  0
VERTEX
  5
21B
  8
1
  6
CONTINUOUS
 10
77.4421871808404347
 20
41.1614759841591891
 30
0.0
  0
VERTEX
  5
21C
  8
1
  6
CONTINUOUS
 10
77.3865976520284278
 20
41.0707621177806104
 30
0.0
  0
VERTEX
  5
21D
  8
1
  6
CONTINUOUS
 10
77.3358319036750856
 20
40.9772632404556987
 30
0.0
  0
VERTEX
  5
21E
  8
1
  6
CONTINUOUS
 10
77.290029081167944
 20
40.8812356261081575
 30
0.0
  0
VERTEX
  5
21F
  8
1
  6
CONTINUOUS
 10
77.2493147268597937
 20
40.7829424797541975
 30
0.0
  0
VERTEX
  5
220
  8
1
  6
CONTINUOUS
 10
77.2138004359657941
 20
40.6826532160756287
 30
0.0
  0
VERTEX
  5
221
  8
1
  6
CONTINUOUS
 10
77.1835835506886951
 20
40.5806427209731879
 30
0.0
  0
VERTEX
  5
222
  8
1
  6
CONTINUOUS
 10
77.1587468934106795
 20
40.4771905981233004
 30
0.0
  0
VERTEX
  5
223
  8
1
  6
CONTINUOUS
 10
77.1393585396830161
 20
40.3725804026037878
 30
0.0
  0
VERTEX
  5
224
  8
1
  6
CONTINUOUS
 10
77.1254716316355484
 20
40.2670988636892986
 30
0.0
  0
VERTEX
  5
225
  8
1
  6
CONTINUOUS
 10
77.1171242323180053
 20
40.1610350989459377
 30
0.0
  0
VERTEX
  5
226
  8
1
  6
CONTINUOUS
 10
77.1143392213716652
 20
40.0546798217805886
 30
0.0
  0
VERTEX
  5
227
  8
1
  6
CONTINUOUS
 10
77.1143392213716652
 20
40.0292777643806019
 30
0.0
  0
VERTEX
  5
228
  8
1
  6
CONTINUOUS
 10
77.1113801472411922
 20
39.9162752823923697
 30
0.0
  0
VERTEX
  5
229
  8
1
  6
CONTINUOUS
 10
77.1025110354663354
 20
39.8035825323525998
 30
0.0
  0
VERTEX
  5
22A
  8
1
  6
CONTINUOUS
 10
77.0877561956658894
 20
39.6915083972559017
 30
0.0
  0
VERTEX
  5
22B
  8
1
  6
CONTINUOUS
 10
77.0671560698302329
 20
39.5803600645164835
 30
0.0
  0
VERTEX
  5
22C
  8
1
  6
CONTINUOUS
 10
77.0407671214723706
 20
39.4704421839884674
 30
0.0
  0
VERTEX
  5
22D
  8
1
  6
CONTINUOUS
 10
77.0086616808654298
 20
39.3620560329421423
 30
0.0
  0
VERTEX
  5
22E
  8
1
  6
CONTINUOUS
 10
76.9709277467905224
 20
39.2554986902836518
 30
0.0
  0
VERTEX
  5
22F
  8
1
  6
CONTINUOUS
 10
76.9276687453381527
 20
39.1510622222825475
 30
0.0
  0
VERTEX
  5
230
  8
1
  6
CONTINUOUS
 10
76.8790032464243041
 20
39.049032882038297
 30
0.0
  0
VERTEX
  5
231
  8
1
  6
CONTINUOUS
 10
76.8250646387988638
 20
38.9496903248806134
 30
0.0
  0
VERTEX
  5
232
  8
1
  6
CONTINUOUS
 10
76.7660007644361002
 20
38.8533068418533389
 30
0.0
  0
VERTEX
  5
233
  8
1
  6
CONTINUOUS
 10
76.7019735133101506
 20
38.760146613384002
 30
0.0
  0
VERTEX
  5
234
  8
1
  6
CONTINUOUS
 10
76.6331583796658435
 20
38.6704649851833508
 30
0.0
  0
VERTEX
  5
235
  8
1
  6
CONTINUOUS
 10
76.5597439810012901
 20
38.5845077683605027
 30
0.0
  0
VERTEX
  5
236
  8
1
  6
CONTINUOUS
 10
76.4819315410802147
 20
38.5025105656720683
 30
0.0
  0
VERTEX
  5
237
  8
1
  6
CONTINUOUS
 10
76.3999343383917591
 20
38.4246981257509717
 30
0.0
  0
VERTEX
  5
238
  8
1
  6
CONTINUOUS
 10
76.3139771215689393
 20
38.3512837270863969
 30
0.0
  0
VERTEX
  5
239
  8
1
  6
CONTINUOUS
 10
76.2242954933682455
 20
38.2824685934421396
 30
0.0
  0
VERTEX
  5
23A
  8
1
  6
CONTINUOUS
 10
76.1311352648988873
 20
38.2184413423161615
 30
0.0
  0
VERTEX
  5
23B
  8
1
  6
CONTINUOUS
 10
76.0347517818716483
 20
38.1593774679534192
 30
0.0
  0
VERTEX
  5
23C
  8
1
  6
CONTINUOUS
 10
75.9354092247139363
 20
38.1054388603279577
 30
0.0
  0
VERTEX
  5
23D
  8
1
  6
CONTINUOUS
 10
75.8333798844697355
 20
38.0567733614141375
 30
0.0
  0
VERTEX
  5
23E
  8
1
  6
CONTINUOUS
 10
75.7289434164686099
 20
38.0135143599617109
 30
0.0
  0
VERTEX
  5
23F
  8
1
  6
CONTINUOUS
 10
75.6223860738101052
 20
37.9757804258868177
 30
0.0
  0
VERTEX
  5
240
  8
1
  6
CONTINUOUS
 10
75.5139999227637873
 20
37.9436749852799196
 30
0.0
  0
VERTEX
  5
241
  8
1
  6
CONTINUOUS
 10
75.4040820422357712
 20
37.917286036922043
 30
0.0
  0
VERTEX
  5
242
  8
1
  6
CONTINUOUS
 10
75.2929337094963245
 20
37.8966859110864007
 30
0.0
  0
VERTEX
  5
243
  8
1
  6
CONTINUOUS
 10
75.1808595743996335
 20
37.8819310712859476
 30
0.0
  0
VERTEX
  5
244
  8
1
  6
CONTINUOUS
 10
75.0681668243598494
 20
37.8730619595110625
 30
0.0
  0
VERTEX
  5
245
  8
1
  6
CONTINUOUS
 10
74.9551643423716882
 20
37.8701028853806108
 30
0.0
  0
VERTEX
  5
246
  8
1
  6
CONTINUOUS
 10
73.3294326687716875
 20
37.8701028853806108
 30
0.0
  0
VERTEX
  5
247
  8
1
  6
CONTINUOUS
 10
72.5673709467716606
 20
37.7303915696805774
 30
0.0
  0
VERTEX
  5
248
  8
1
  6
CONTINUOUS
 10
68.7570623367716678
 20
37.7303915696805774
 30
0.0
  0
VERTEX
  5
249
  8
1
  6
CONTINUOUS
 10
68.7570623367716678
 20
38.1368244880806202
 30
0.0
  0
SEQEND
  5
1C0
  8
1
  6
CONTINUOUS
  0
POLYLINE
  5
24A
  8
1
  6
CONTINUOUS
 66
     1
 10
0.0
 20
0.0
 30
0.0
 70
   128
  0
VERTEX
  5
24C
  8
1
  6
CONTINUOUS
 10
79.3399015198519919
 20
43.2197761738205912
 30
0.0
  0
VERTEX
  5
24D
  8
1
  6
CONTINUOUS
 10
80.8992457739716855
 20
43.2199431507991108
 30
0.0
  0
VERTEX
  5
24E
  8
1
  6
CONTINUOUS
 10
79.3399015198519919
 20
43.2197761738205912
 30
0.0
  0
VERTEX
  5
24F
  8
1
  6
CONTINUOUS
 10
79.1465038133716519
 20
43.2197761738205912
 30
0.0
  0
SEQEND
  5
24B
  8
1
  6
CONTINUOUS
  0
LINE
  5
250
  8
1
  6
CONTINUOUS
 10
79.1465038133716519
 20
43.42299263302057
 30
0.0
 11
79.3399015198519919
 21
43.42299263302057
 31
0.0
  0
POLYLINE
  5
251
  8
1
  6
CONTINUOUS
 62
    12
 66
     1
 10
0.0
 20
0.0
 30
0.0
 70
   129
  0
VERTEX
  5
253
  8
1
  6
CONTINUOUS
 62
    12
 10
68.7570623367716678
 20
46.9513384058805983
 30
0.0
  0
VERTEX
  5
254
  8
1
  6
CONTINUOUS
 62
    12
 10
72.5673709467716606
 20
46.9513384058805983
 30
0.0
  0
VERTEX
  5
255
  8
1
  6
CONTINUOUS
 62
    12
 10
73.3294326687716875
 20
47.3196682381805829
 30
0.0
  0
VERTEX
  5
256
  8
1
  6
CONTINUOUS
 62
    12
 10
74.1113348086376647
 20
47.3196682381805829
 30
0.0
  0
VERTEX
  5
257
  8
1
  6
CONTINUOUS
 62
    12
 10
74.1113348086376647
 20
47.3196682381805829
 30
0.0
  0
VERTEX
  5
258
  8
1
  6
CONTINUOUS
 62
    12
 10
74.6763397149906467
 20
47.3201878846103909
 30
0.0
  0
VERTEX
  5
259
  8
1
  6
CONTINUOUS
 62
    12
 10
74.9796805309653251
 20
47.3201878846103909
 30
0.0
  0
VERTEX
  5
25A
  8
1
  6
CONTINUOUS
 62
    12
 10
75.0647647526976556
 20
47.3179598758533473
 30
0.0
  0
VERTEX
  5
25B
  8
1
  6
CONTINUOUS
 62
    12
 10
75.1496157644923102
 20
47.3112819563993128
 30
0.0
  0
VERTEX
  5
25C
  8
1
  6
CONTINUOUS
 62
    12
 10
75.23400099562393
 20
47.3001724299613429
 30
0.0
  0
VERTEX
  5
25D
  8
1
  6
CONTINUOUS
 62
    12
 10
75.3176891520395202
 20
47.2846617469791966
 30
0.0
  0
VERTEX
  5
25E
  8
1
  6
CONTINUOUS
 62
    12
 10
75.4004508503194302
 20
47.2647924211567911
 30
0.0
  0
VERTEX
  5
25F
  8
1
  6
CONTINUOUS
 62
    12
 10
75.4820592464013629
 20
47.2406189129351333
 30
0.0
  0
VERTEX
  5
260
  8
1
  6
CONTINUOUS
 62
    12
 10
75.5622906573442208
 20
47.212207480219881
 30
0.0
  0
VERTEX
  5
261
  8
1
  6
CONTINUOUS
 62
    12
 10
75.6409251744273945
 20
47.1796359967733991
 30
0.0
  0
VERTEX
  5
262
  8
1
  6
CONTINUOUS
 62
    12
 10
75.7177472659054303
 20
47.1429937387676574
 30
0.0
  0
VERTEX
  5
263
  8
1
  6
CONTINUOUS
 62
    12
 10
75.7925463677653539
 20
47.1023811400850008
 30
0.0
  0
VERTEX
  5
264
  8
1
  6
CONTINUOUS
 62
    12
 10
75.8651174608682055
 20
47.0579095170353696
 30
0.0
  0
VERTEX
  5
265
  8
1
  6
CONTINUOUS
 62
    12
 10
75.9352616328922068
 20
47.0097007632464212
 30
0.0
  0
VERTEX
  5
266
  8
1
  6
CONTINUOUS
 62
    12
 10
76.0027866235374034
 20
46.9578870155613117
 30
0.0
  0
VERTEX
  5
267
  8
1
  6
CONTINUOUS
 62
    12
 10
76.0675073514981221
 20
46.9026102918609382
 30
0.0
  0
VERTEX
  5
268
  8
1
  6
CONTINUOUS
 62
    12
 10
76.1292464217576565
 20
46.8440221018027216
 30
0.0
  0
VERTEX
  5
269
  8
1
  6
CONTINUOUS
 62
    12
 10
76.1878346118159016
 20
46.7822830315431872
 30
0.0
  0
VERTEX
  5
26A
  8
1
  6
CONTINUOUS
 62
    12
 10
76.2431113355162751
 20
46.7175623035824401
 30
0.0
  0
VERTEX
  5
26B
  8
1
  6
CONTINUOUS
 62
    12
 10
76.2949250832013632
 20
46.6500373129372505
 30
0.0
  0
VERTEX
  5
26C
  8
1
  6
CONTINUOUS
 62
    12
 10
76.3431338369903045
 20
46.5798931409132493
 30
0.0
  0
VERTEX
  5
26D
  8
1
  6
CONTINUOUS
 62
    12
 10
76.3876054600399357
 20
46.507322047810419
 30
0.0
  0
VERTEX
  5
26E
  8
1
  6
CONTINUOUS
 62
    12
 10
76.4282180587226208
 20
46.4325229459504811
 30
0.0
  0
VERTEX
  5
26F
  8
1
  6
CONTINUOUS
 62
    12
 10
76.4648603167283341
 20
46.3557008544724667
 30
0.0
  0
VERTEX
  5
270
  8
1
  6
CONTINUOUS
 62
    12
 10
76.4974318001748372
 20
46.2770663373893001
 30
0.0
  0
VERTEX
  5
271
  8
1
  6
CONTINUOUS
 62
    12
 10
76.525843232890054
 20
46.1968349264464422
 30
0.0
  0
VERTEX
  5
272
  8
1
  6
CONTINUOUS
 62
    12
 10
76.5500167411117189
 20
46.1152265303644668
 30
0.0
  0
VERTEX
  5
273
  8
1
  6
CONTINUOUS
 62
    12
 10
76.5698860669341315
 20
46.0324648320845995
 30
0.0
  0
VERTEX
  5
274
  8
1
  6
CONTINUOUS
 62
    12
 10
76.5853967499162707
 20
45.9487766756689666
 30
0.0
  0
VERTEX
  5
275
  8
1
  6
CONTINUOUS
 62
    12
 10
76.5965062763542619
 20
45.8643914445373895
 30
0.0
  0
VERTEX
  5
276
  8
1
  6
CONTINUOUS
 62
    12
 10
76.6031841958082822
 20
45.7795404327426994
 30
0.0
  0
VERTEX
  5
277
  8
1
  6
CONTINUOUS
 62
    12
 10
76.6054122045653543
 20
45.6944562110103973
 30
0.0
  0
VERTEX
  5
278
  8
1
  6
CONTINUOUS
 62
    12
 10
76.6062990562212889
 20
45.6863157782035287
 30
0.0
  0
VERTEX
  5
279
  8
1
  6
CONTINUOUS
 62
    12
 10
76.6097803199041607
 20
45.5533716817468033
 30
0.0
  0
VERTEX
  5
27A
  8
1
  6
CONTINUOUS
 62
    12
 10
76.6202145690511287
 20
45.420791975817643
 30
0.0
  0
VERTEX
  5
27B
  8
1
  6
CONTINUOUS
 62
    12
 10
76.6375732041104243
 20
45.2889400521745031
 30
0.0
  0
VERTEX
  5
27C
  8
1
  6
CONTINUOUS
 62
    12
 10
76.6618086462700319
 20
45.158177307775162
 30
0.0
  0
VERTEX
  5
27D
  8
1
  6
CONTINUOUS
 62
    12
 10
76.6928544678675621
 20
45.0288621542128027
 30
0.0
  0
VERTEX
  5
27E
  8
1
  6
CONTINUOUS
 62
    12
 10
76.7306255744639145
 20
44.9013490353347393
 30
0.0
  0
VERTEX
  5
27F
  8
1
  6
CONTINUOUS
 62
    12
 10
76.775018438081446
 20
44.7759874557365123
 30
0.0
  0
VERTEX
  5
280
  8
1
  6
CONTINUOUS
 62
    12
 10
76.8259113809666303
 20
44.6531210227940178
 30
0.0
  0
VERTEX
  5
281
  8
1
  6
CONTINUOUS
 62
    12
 10
76.8831649091005573
 20
44.5330865048596465
 30
0.0
  0
VERTEX
  5
282
  8
1
  6
CONTINUOUS
 62
    12
 10
76.946622094542235
 20
44.4162129082035193
 30
0.0
  0
VERTEX
  5
283
  8
1
  6
CONTINUOUS
 62
    12
 10
77.0161090055572686
 20
44.3028205752302924
 30
0.0
  0
VERTEX
  5
284
  8
1
  6
CONTINUOUS
 62
    12
 10
77.0914351833524876
 20
44.1932203064428535
 30
0.0
  0
VERTEX
  5
285
  8
1
  6
CONTINUOUS
 62
    12
 10
77.1723941641104432
 20
44.0877125085596901
 30
0.0
  0
VERTEX
  5
286
  8
1
  6
CONTINUOUS
 62
    12
 10
77.2587640448923167
 20
43.986586371121092
 30
0.0
  0
VERTEX
  5
287
  8
1
  6
CONTINUOUS
 62
    12
 10
77.3503080918583095
 20
43.8901190738405518
 30
0.0
  0
VERTEX
  5
288
  8
1
  6
CONTINUOUS
 62
    12
 10
77.4467753891388213
 20
43.7985750268745591
 30
0.0
  0
VERTEX
  5
289
  8
1
  6
CONTINUOUS
 62
    12
 10
77.5479015265774336
 20
43.712205146092721
 30
0.0
  0
VERTEX
  5
28A
  8
1
  6
CONTINUOUS
 62
    12
 10
77.653409324460597
 20
43.6312461653347299
 30
0.0
  0
VERTEX
  5
28B
  8
1
  6
CONTINUOUS
 62
    12
 10
77.7630095932480714
 20
43.5559199875394825
 30
0.0
  0
VERTEX
  5
28C
  8
1
  6
CONTINUOUS
 62
    12
 10
77.8764019262212628
 20
43.4864330765244702
 30
0.0
  0
VERTEX
  5
28D
  8
1
  6
CONTINUOUS
 62
    12
 10
77.9932755228774113
 20
43.4229758910827783
 30
0.0
  0
VERTEX
  5
28E
  8
1
  6
CONTINUOUS
 62
    12
 10
78.1133100408118111
 20
43.3657223629488726
 30
0.0
  0
VERTEX
  5
28F
  8
1
  6
CONTINUOUS
 62
    12
 10
78.2361764737542984
 20
43.3148294200637025
 30
0.0
  0
VERTEX
  5
290
  8
1
  6
CONTINUOUS
 62
    12
 10
78.3615380533524899
 20
43.270436556446171
 30
0.0
  0
VERTEX
  5
291
  8
1
  6
CONTINUOUS
 62
    12
 10
78.489051172230532
 20
43.2326654498497973
 30
0.0
  0
VERTEX
  5
292
  8
1
  6
CONTINUOUS
 62
    12
 10
78.6183663257928913
 20
43.2016196282522813
 30
0.0
  0
VERTEX
  5
293
  8
1
  6
CONTINUOUS
 62
    12
 10
78.7491290701922537
 20
43.1773841860926524
 30
0.0
  0
VERTEX
  5
294
  8
1
  6
CONTINUOUS
 62
    12
 10
78.8809809938354221
 20
43.160025551033371
 30
0.0
  0
VERTEX
  5
295
  8
1
  6
CONTINUOUS
 62
    12
 10
79.0135606997645823
 20
43.1495913018864314
 30
0.0
  0
VERTEX
  5
296
  8
1
  6
CONTINUOUS
 62
    12
 10
79.1465047962212793
 20
43.1461100382035099
 30
0.0
  0
VERTEX
  5
297
  8
1
  6
CONTINUOUS
 62
    12
 10
79.3540374364470438
 20
43.1461102073606
 30
0.0
  0
VERTEX
  5
298
  8
1
  6
CONTINUOUS
 62
    12
 10
79.1465038133716519
 20
43.1461102073606
 30
0.0
  0
VERTEX
  5
299
  8
1
  6
CONTINUOUS
 62
    12
 10
80.8992457739716855
 20
43.1464386822971377
 30
0.0
  0
VERTEX
  5
29A
  8
1
  6
CONTINUOUS
 62
    12
 10
79.3540374364470438
 20
43.1461102073606
 30
0.0
  0
VERTEX
  5
29B
  8
1
  6
CONTINUOUS
 62
    12
 10
80.8992457739716855
 20
43.1464386822971377
 30
0.0
  0
VERTEX
  5
29C
  8
1
  6
CONTINUOUS
 62
    12
 10
80.8992457739716855
 20
42.2887730951306793
 30
0.0
  0
VERTEX
  5
29D
  8
1
  6
CONTINUOUS
 62
    12
 10
79.1468866864661749
 20
42.2883709524524818
 30
0.0
  0
VERTEX
  5
29E
  8
1
  6
CONTINUOUS
 62
    12
 10
80.8992457739716855
 20
42.2887730951306793
 30
0.0
  0
VERTEX
  5
29F
  8
1
  6
CONTINUOUS
 62
    12
 10
79.1468866864661749
 20
42.2883709524524818
 30
0.0
  0
VERTEX
  5
2A0
  8
1
  6
CONTINUOUS
 62
    12
 10
79.0295130084897721
 20
42.286997360939651
 30
0.0
  0
VERTEX
  5
2A1
  8
1
  6
CONTINUOUS
 62
    12
 10
78.9128428672721327
 20
42.2778152216903678
 30
0.0
  0
VERTEX
  5
2A2
  8
1
  6
CONTINUOUS
 62
    12
 10
78.7968131744661378
 20
42.2625396228381618
 30
0.0
  0
VERTEX
  5
2A3
  8
1
  6
CONTINUOUS
 62
    12
 10
78.6817419593947136
 20
42.2412124337377008
 30
0.0
  0
VERTEX
  5
2A4
  8
1
  6
CONTINUOUS
 62
    12
 10
78.5679446242598374
 20
42.2138921107318694
 30
0.0
  0
VERTEX
  5
2A5
  8
1
  6
CONTINUOUS
 62
    12
 10
78.4557330796471462
 20
42.1806535369270605
 30
0.0
  0
VERTEX
  5
2A6
  8
1
  6
CONTINUOUS
 62
    12
 10
78.3454148896007325
 20
42.1415878169436411
 30
0.0
  0
VERTEX
  5
2A7
  8
1
  6
CONTINUOUS
 62
    12
 10
78.2372924286113545
 20
42.096802027204717
 30
0.0
  0
VERTEX
  5
2A8
  8
1
  6
CONTINUOUS
 62
    12
 10
78.1316620528290855
 20
42.0464189224468399
 30
0.0
  0
VERTEX
  5
2A9
  8
1
  6
CONTINUOUS
 62
    12
 10
78.0288132877716691
 20
41.9905765992581905
 30
0.0
  0
VERTEX
  5
2AA
  8
1
  6
CONTINUOUS
 62
    12
 10
77.929028034755234
 20
41.9294281175649317
 30
0.0
  0
VERTEX
  5
2AB
  8
1
  6
CONTINUOUS
 62
    12
 10
77.8325797982222696
 20
41.8631410811051268
 30
0.0
  0
VERTEX
  5
2AC
  8
1
  6
CONTINUOUS
 62
    12
 10
77.7397329360850904
 20
41.7918971780381128
 30
0.0
  0
VERTEX
  5
2AD
  8
1
  6
CONTINUOUS
 62
    12
 10
77.6507419351390951
 20
41.7158916829501081
 30
0.0
  0
VERTEX
  5
2AE
  8
1
  6
CONTINUOUS
 62
    12
 10
77.5658507135322424
 20
41.6353329216200265
 30
0.0
  0
VERTEX
  5
2AF
  8
1
  6
CONTINUOUS
 62
    12
 10
77.4852919522021892
 20
41.5504417000131312
 30
0.0
  0
VERTEX
  5
2B0
  8
1
  6
CONTINUOUS
 62
    12
 10
77.4092864571141632
 20
41.4614506990672069
 30
0.0
  0
VERTEX
  5
2B1
  8
1
  6
CONTINUOUS
 62
    12
 10
77.338042554047135
 20
41.3686038369299993
 30
0.0
  0
VERTEX
  5
2B2
  8
1
  6
CONTINUOUS
 62
    12
 10
77.2717555175873088
 20
41.2721556003970491
 30
0.0
  0
VERTEX
  5
2B3
  8
1
  6
CONTINUOUS
 62
    12
 10
77.2106070358941139
 20
41.1723703473805926
 30
0.0
  0
VERTEX
  5
2B4
  8
1
  6
CONTINUOUS
 62
    12
 10
77.154764712705429
 20
41.0695215823232189
 30
0.0
  0
VERTEX
  5
2B5
  8
1
  6
CONTINUOUS
 62
    12
 10
77.1043816079475732
 20
40.9638912065409428
 30
0.0
  0
VERTEX
  5
2B6
  8
1
  6
CONTINUOUS
 62
    12
 10
77.0595958182086065
 20
40.8557687455515719
 30
0.0
  0
VERTEX
  5
2B7
  8
1
  6
CONTINUOUS
 62
    12
 10
77.0205300982251941
 20
40.7454505555051512
 30
0.0
  0
VERTEX
  5
2B8
  8
1
  6
CONTINUOUS
 62
    12
 10
76.987291524420371
 20
40.6332390108924315
 30
0.0
  0
VERTEX
  5
2B9
  8
1
  6
CONTINUOUS
 62
    12
 10
76.9599712014145751
 20
40.5194416757575624
 30
0.0
  0
VERTEX
  5
2BA
  8
1
  6
CONTINUOUS
 62
    12
 10
76.9386440123141142
 20
40.4043704606861027
 30
0.0
  0
VERTEX
  5
2BB
  8
1
  6
CONTINUOUS
 62
    12
 10
76.9233684134619438
 20
40.2883407678801717
 30
0.0
  0
VERTEX
  5
2BC
  8
1
  6
CONTINUOUS
 62
    12
 10
76.9141862742126108
 20
40.1716706266624968
 30
0.0
  0
VERTEX
  5
2BD
  8
1
  6
CONTINUOUS
 62
    12
 10
76.9111227621716722
 20
40.0546798217805886
 30
0.0
  0
VERTEX
  5
2BE
  8
1
  6
CONTINUOUS
 62
    12
 10
76.9111227621716722
 20
40.0292777643806019
 30
0.0
  0
VERTEX
  5
2BF
  8
1
  6
CONTINUOUS
 62
    12
 10
76.9084421891358403
 20
39.9269108101089074
 30
0.0
  0
VERTEX
  5
2C0
  8
1
  6
CONTINUOUS
 62
    12
 10
76.9004078172927024
 20
39.8248244365434729
 30
0.0
  0
VERTEX
  5
2C1
  8
1
  6
CONTINUOUS
 62
    12
 10
76.8870416682970159
 20
39.7232984553382522
 30
0.0
  0
VERTEX
  5
2C2
  8
1
  6
CONTINUOUS
 62
    12
 10
76.8683803778341144
 20
39.6226111421507383
 30
0.0
  0
VERTEX
  5
2C3
  8
1
  6
CONTINUOUS
 62
    12
 10
76.8444750952040465
 20
39.5230384739077394
 30
0.0
  0
VERTEX
  5
2C4
  8
1
  6
CONTINUOUS
 62
    12
 10
76.8153913431248156
 20
39.4248533723716434
 30
0.0
  0
VERTEX
  5
2C5
  8
1
  6
CONTINUOUS
 62
    12
 10
76.7812088381393636
 20
39.3283249560809907
 30
0.0
  0
VERTEX
  5
2C6
  8
1
  6
CONTINUOUS
 62
    12
 10
76.7420212721177677
 20
39.2337178027152831
 30
0.0
  0
VERTEX
  5
2C7
  8
1
  6
CONTINUOUS
 62
    12
 10
76.6979360554546332
 20
39.1412912239058173
 30
0.0
  0
VERTEX
  5
2C8
  8
1
  6
CONTINUOUS
 62
    12
 10
76.6490740226645357
 20
39.0512985544805673
 30
0.0
  0
VERTEX
  5
2C9
  8
1
  6
CONTINUOUS
 62
    12
 10
76.5955691011829742
 20
38.9639864580912274
 30
0.0
  0
VERTEX
  5
2CA
  8
1
  6
CONTINUOUS
 62
    12
 10
76.5375679442806245
 20
38.8795942511248498
 30
0.0
  0
VERTEX
  5
2CB
  8
1
  6
CONTINUOUS
 62
    12
 10
76.475229529097021
 20
38.7983532467548571
 30
0.0
  0
VERTEX
  5
2CC
  8
1
  6
CONTINUOUS
 62
    12
 10
76.4087247208949663
 20
38.7204861209271129
 30
0.0
  0
VERTEX
  5
2CD
  8
1
  6
CONTINUOUS
 62
    12
 10
76.3382358047311556
 20
38.6462063020210707
 30
0.0
  0
VERTEX
  5
2CE
  8
1
  6
CONTINUOUS
 62
    12
 10
76.2639559858251488
 20
38.57571738585726
 30
0.0
  0
VERTEX
  5
2CF
  8
1
  6
CONTINUOUS
 62
    12
 10
76.186088859997426
 20
38.5092125776552692
 30
0.0
  0
VERTEX
  5
2D0
  8
1
  6
CONTINUOUS
 62
    12
 10
76.1048478556273835
 20
38.4468741624716301
 30
0.0
  0
VERTEX
  5
2D1
  8
1
  6
CONTINUOUS
 62
    12
 10
76.0204556486610556
 20
38.3888730055693088
 30
0.0
  0
VERTEX
  5
2D2
  8
1
  6
CONTINUOUS
 62
    12
 10
75.9331435522716589
 20
38.3353680840877189
 30
0.0
  0
VERTEX
  5
2D3
  8
1
  6
CONTINUOUS
 62
    12
 10
75.8431508828464445
 20
38.2865060512976427
 30
0.0
  0
VERTEX
  5
2D4
  8
1
  6
CONTINUOUS
 62
    12
 10
75.7507243040369502
 20
38.2424208346344869
 30
0.0
  0
VERTEX
  5
2D5
  8
1
  6
CONTINUOUS
 62
    12
 10
75.6561171506712355
 20
38.2032332686129195
 30
0.0
  0
VERTEX
  5
2D6
  8
1
  6
CONTINUOUS
 62
    12
 10
75.5595887343806538
 20
38.1690507636274319
 30
0.0
  0
VERTEX
  5
2D7
  8
1
  6
CONTINUOUS
 62
    12
 10
75.4614036328445366
 20
38.1399670115482081
 30
0.0
  0
VERTEX
  5
2D8
  8
1
  6
CONTINUOUS
 62
    12
 10
75.3618309646015092
 20
38.1160617289181403
 30
0.0
  0
VERTEX
  5
2D9
  8
1
  6
CONTINUOUS
 62
    12
 10
75.2611436514140024
 20
38.0974004384552529
 30
0.0
  0
VERTEX
  5
2DA
  8
1
  6
CONTINUOUS
 62
    12
 10
75.1596176702087888
 20
38.0840342894595594
 30
0.0
  0
VERTEX
  5
2DB
  8
1
  6
CONTINUOUS
 62
    12
 10
75.0575312966433188
 20
38.0759999176164072
 30
0.0
  0
VERTEX
  5
2DC
  8
1
  6
CONTINUOUS
 62
    12
 10
74.9551643423716882
 20
38.0733193445805895
 30
0.0
  0
VERTEX
  5
2DD
  8
1
  6
CONTINUOUS
 62
    12
 10
73.3294326687716875
 20
38.0733193445805895
 30
0.0
  0
VERTEX
  5
2DE
  8
1
  6
CONTINUOUS
 62
    12
 10
72.5673709467716606
 20
38.4416491768806026
 30
0.0
  0
VERTEX
  5
2DF
  8
1
  6
CONTINUOUS
 62
    12
 10
68.7570623367716678
 20
38.4416491768806026
 30
0.0
  0
VERTEX
  5
2E0
  8
1
  6
CONTINUOUS
 62
    12
 10
68.7570623367716678
 20
46.9513384058805983
 30
0.0
  0
SEQEND
  5
252
  8
1
  6
CONTINUOUS
  0
POLYLINE
  5
2E1
  8
1
  6
CONTINUOUS
 62
    12
 66
     1
 10
0.0
 20
0.0
 30
0.0
 70
   129
  0
VERTEX
  5
2E3
  8
1
  6
CONTINUOUS
 62
    12
 10
68.7570623367716678
 20
47.6625960130806021
 30
0.0
  0
VERTEX
  5
2E4
  8
1
  6
CONTINUOUS
 62
    12
 10
72.5673709467716606
 20
47.6625960130806021
 30
0.0
  0
VERTEX
  5
2E5
  8
1
  6
CONTINUOUS
 62
    12
 10
73.3294326687716875
 20
47.5228846973805972
 30
0.0
  0
VERTEX
  5
2E6
  8
1
  6
CONTINUOUS
 62
    12
 10
74.112382920257204
 20
47.5228846973805972
 30
0.0
  0
VERTEX
  5
2E7
  8
1
  6
CONTINUOUS
 62
    12
 10
74.6581282485850579
 20
47.5234043438103981
 30
0.0
  0
VERTEX
  5
2E8
  8
1
  6
CONTINUOUS
 62
    12
 10
74.9796805309653251
 20
47.5234043438103981
 30
0.0
  0
VERTEX
  5
2E9
  8
1
  6
CONTINUOUS
 62
    12
 10
75.0754002804141862
 20
47.5208978339587134
 30
0.0
  0
VERTEX
  5
2EA
  8
1
  6
CONTINUOUS
 62
    12
 10
75.1708576686831833
 20
47.5133851745729103
 30
0.0
  0
VERTEX
  5
2EB
  8
1
  6
CONTINUOUS
 62
    12
 10
75.265791053706252
 20
47.5008869573302235
 30
0.0
  0
VERTEX
  5
2EC
  8
1
  6
CONTINUOUS
 62
    12
 10
75.3599402296737821
 20
47.483437438975308
 30
0.0
  0
VERTEX
  5
2ED
  8
1
  6
CONTINUOUS
 62
    12
 10
75.4530471402386951
 20
47.4610844474250868
 30
0.0
  0
VERTEX
  5
2EE
  8
1
  6
CONTINUOUS
 62
    12
 10
75.5448565858308712
 20
47.4338892506756835
 30
0.0
  0
VERTEX
  5
2EF
  8
1
  6
CONTINUOUS
 62
    12
 10
75.6351169231415952
 20
47.4019263888711109
 30
0.0
  0
VERTEX
  5
2F0
  8
1
  6
CONTINUOUS
 62
    12
 10
75.7235807548601798
 20
47.3652834699937628
 30
0.0
  0
VERTEX
  5
2F1
  8
1
  6
CONTINUOUS
 62
    12
 10
75.8100056077729221
 20
47.3240609297373496
 30
0.0
  0
VERTEX
  5
2F2
  8
1
  6
CONTINUOUS
 62
    12
 10
75.8941545973653291
 20
47.2783717562193004
 30
0.0
  0
VERTEX
  5
2F3
  8
1
  6
CONTINUOUS
 62
    12
 10
75.9757970771060656
 20
47.2283411802884885
 30
0.0
  0
VERTEX
  5
2F4
  8
1
  6
CONTINUOUS
 62
    12
 10
76.0547092706330545
 20
47.1741063322759402
 30
0.0
  0
VERTEX
  5
2F5
  8
1
  6
CONTINUOUS
 62
    12
 10
76.1306748851089026
 20
47.1158158661301911
 30
0.0
  0
VERTEX
  5
2F6
  8
1
  6
CONTINUOUS
 62
    12
 10
76.2034857040646898
 20
47.053629551967262
 30
0.0
  0
VERTEX
  5
2F7
  8
1
  6
CONTINUOUS
 62
    12
 10
76.2729421581066731
 20
46.9877178381517595
 30
0.0
  0
VERTEX
  5
2F8
  8
1
  6
CONTINUOUS
 62
    12
 10
76.3388538719222112
 20
46.918261384109762
 30
0.0
  0
VERTEX
  5
2F9
  8
1
  6
CONTINUOUS
 62
    12
 10
76.4010401860851402
 20
46.8454505651539534
 30
0.0
  0
VERTEX
  5
2FA
  8
1
  6
CONTINUOUS
 62
    12
 10
76.4593306522308609
 20
46.7694849506781196
 30
0.0
  0
VERTEX
  5
2FB
  8
1
  6
CONTINUOUS
 62
    12
 10
76.5135655002434305
 20
46.6905727571511378
 30
0.0
  0
VERTEX
  5
2FC
  8
1
  6
CONTINUOUS
 62
    12
 10
76.5635960761742353
 20
46.6089302774104084
 30
0.0
  0
VERTEX
  5
2FD
  8
1
  6
CONTINUOUS
 62
    12
 10
76.6092852496922774
 20
46.5247812878180014
 30
0.0
  0
VERTEX
  5
2FE
  8
1
  6
CONTINUOUS
 62
    12
 10
76.6505077899487191
 20
46.4383564349052165
 30
0.0
  0
VERTEX
  5
2FF
  8
1
  6
CONTINUOUS
 62
    12
 10
76.6871507088260387
 20
46.349892603186639
 30
0.0
  0
VERTEX
  5
300
  8
1
  6
CONTINUOUS
 62
    12
 10
76.7191135706306397
 20
46.2596322658759433
 30
0.0
  0
VERTEX
  5
301
  8
1
  6
CONTINUOUS
 62
    12
 10
76.746308767380043
 20
46.1678228202837104
 30
0.0
  0
VERTEX
  5
302
  8
1
  6
CONTINUOUS
 62
    12
 10
76.7686617589302358
 20
46.0747159097188472
 30
0.0
  0
VERTEX
  5
303
  8
1
  6
CONTINUOUS
 62
    12
 10
76.7861112772851442
 20
45.9805667337512887
 30
0.0
  0
VERTEX
  5
304
  8
1
  6
CONTINUOUS
 62
    12
 10
76.7986094945278666
 20
45.8856333487282626
 30
0.0
  0
VERTEX
  5
305
  8
1
  6
CONTINUOUS
 62
    12
 10
76.8061221539136341
 20
45.7901759604592513
 30
0.0
  0
VERTEX
  5
306
  8
1
  6
CONTINUOUS
 62
    12
 10
76.808628663765333
 20
45.6944562110103973
 30
0.0
  0
VERTEX
  5
307
  8
1
  6
CONTINUOUS
 62
    12
 10
76.8115830470920997
 20
45.571838263005489
 30
0.0
  0
VERTEX
  5
308
  8
1
  6
CONTINUOUS
 62
    12
 10
76.8209507091005719
 20
45.4495429791133532
 30
0.0
  0
VERTEX
  5
309
  8
1
  6
CONTINUOUS
 62
    12
 10
76.83670597368031
 20
45.3279055622064178
 30
0.0
  0
VERTEX
  5
30A
  8
1
  6
CONTINUOUS
 62
    12
 10
76.8588056567462417
 20
45.2072594119895328
 30
0.0
  0
VERTEX
  5
30B
  8
1
  6
CONTINUOUS
 62
    12
 10
76.8871891846032725
 20
45.0879352111744467
 30
0.0
  0
VERTEX
  5
30C
  8
1
  6
CONTINUOUS
 62
    12
 10
76.9217787599744014
 20
44.9702600191014525
 30
0.0
  0
VERTEX
  5
30D
  8
1
  6
CONTINUOUS
 62
    12
 10
76.9624795752378219
 20
44.8545563752925034
 30
0.0
  0
VERTEX
  5
30E
  8
1
  6
CONTINUOUS
 62
    12
 10
77.009180072288018
 20
44.7411414153929101
 30
0.0
  0
VERTEX
  5
30F
  8
1
  6
CONTINUOUS
 62
    12
 10
77.0617522483086361
 20
44.63032600192426
 30
0.0
  0
VERTEX
  5
310
  8
1
  6
CONTINUOUS
 62
    12
 10
77.1200520066195025
 20
44.5224138722322422
 30
0.0
  0
VERTEX
  5
311
  8
1
  6
CONTINUOUS
 62
    12
 10
77.1839195516354266
 20
44.417700805963463
 30
0.0
  0
VERTEX
  5
312
  8
1
  6
CONTINUOUS
 62
    12
 10
77.2531798268549323
 20
44.3164738143540333
 30
0.0
  0
VERTEX
  5
313
  8
1
  6
CONTINUOUS
 62
    12
 10
77.3276429946778023
 20
44.2190103535517878
 30
0.0
  0
VERTEX
  5
314
  8
1
  6
CONTINUOUS
 62
    12
 10
77.4071049567369158
 20
44.1255775641281573
 30
0.0
  0
VERTEX
  5
315
  8
1
  6
CONTINUOUS
 62
    12
 10
77.4913479133176537
 20
44.0364315388645124
 30
0.0
  0
VERTEX
  5
316
  8
1
  6
CONTINUOUS
 62
    12
 10
77.5801409603316756
 20
43.9518166208196632
 30
0.0
  0
VERTEX
  5
317
  8
1
  6
CONTINUOUS
 62
    12
 10
77.673240722209016
 20
43.8719647336024181
 30
0.0
  0
VERTEX
  5
318
  8
1
  6
CONTINUOUS
 62
    12
 10
77.7703920189736522
 20
43.7970947456852429
 30
0.0
  0
VERTEX
  5
319
  8
1
  6
CONTINUOUS
 62
    12
 10
77.8713285656740481
 20
43.7274118705008519
 30
0.0
  0
VERTEX
  5
31A
  8
1
  6
CONTINUOUS
 62
    12
 10
77.9757737022517716
 20
43.6631071039664889
 30
0.0
  0
VERTEX
  5
31B
  8
1
  6
CONTINUOUS
 62
    12
 10
78.083441151847282
 20
43.6043567009775401
 30
0.0
  0
VERTEX
  5
31C
  8
1
  6
CONTINUOUS
 62
    12
 10
78.1940358054651625
 20
43.551321692304839
 30
0.0
  0
VERTEX
  5
31D
  8
1
  6
CONTINUOUS
 62
    12
 10
78.3072545308471604
 20
43.504147443220802
 30
0.0
  0
VERTEX
  5
31E
  8
1
  6
CONTINUOUS
 62
    12
 10
78.4227870033367651
 20
43.4629632550630589
 30
0.0
  0
VERTEX
  5
31F
  8
1
  6
CONTINUOUS
 62
    12
 10
78.5403165564574266
 20
43.4278820108286965
 30
0.0
  0
VERTEX
  5
320
  8
1
  6
CONTINUOUS
 62
    12
 10
78.6595210498733906
 20
43.3989998657697029
 30
0.0
  0
VERTEX
  5
321
  8
1
  6
CONTINUOUS
 62
    12
 10
78.7800737523540704
 20
43.3763959838381297
 30
0.0
  0
VERTEX
  5
322
  8
1
  6
CONTINUOUS
 62
    12
 10
78.9016442373214346
 20
43.3601323207030873
 30
0.0
  0
VERTEX
  5
323
  8
1
  6
CONTINUOUS
 62
    12
 10
79.0238992885264651
 20
43.3502534539348829
 30
0.0
  0
VERTEX
  5
324
  8
1
  6
CONTINUOUS
 62
    12
 10
79.1465038133716519
 20
43.3467864608205602
 30
0.0
  0
VERTEX
  5
325
  8
1
  6
CONTINUOUS
 62
    12
 10
79.3419209365084157
 20
43.3467864608205602
 30
0.0
  0
VERTEX
  5
326
  8
1
  6
CONTINUOUS
 62
    12
 10
80.8992457739716855
 20
43.3464208647283868
 30
0.0
  0
VERTEX
  5
327
  8
1
  6
CONTINUOUS
 62
    12
 10
80.8992457739716855
 20
43.2199431507991108
 30
0.0
  0
VERTEX
  5
328
  8
1
  6
CONTINUOUS
 62
    12
 10
79.1465038133716519
 20
43.2197761738205912
 30
0.0
  0
VERTEX
  5
329
  8
1
  6
CONTINUOUS
 62
    12
 10
79.0172520837036529
 20
43.2234172301190611
 30
0.0
  0
VERTEX
  5
32A
  8
1
  6
CONTINUOUS
 62
    12
 10
78.8883680472021354
 20
43.2338178093446217
 30
0.0
  0
VERTEX
  5
32B
  8
1
  6
CONTINUOUS
 62
    12
 10
78.760204966052612
 20
43.2509494042325713
 30
0.0
  0
VERTEX
  5
32C
  8
1
  6
CONTINUOUS
 62
    12
 10
78.6331141263519839
 20
43.2747650582721306
 30
0.0
  0
VERTEX
  5
32D
  8
1
  6
CONTINUOUS
 62
    12
 10
78.5074438752578772
 20
43.3051994944110277
 30
0.0
  0
VERTEX
  5
32E
  8
1
  6
CONTINUOUS
 62
    12
 10
78.3835386661933313
 20
43.3421692939751679
 30
0.0
  0
VERTEX
  5
32F
  8
1
  6
CONTINUOUS
 62
    12
 10
78.2617381147238262
 20
43.3855731253137975
 30
0.0
  0
VERTEX
  5
330
  8
1
  6
CONTINUOUS
 62
    12
 10
78.1423760676947126
 20
43.4352920215421108
 30
0.0
  0
VERTEX
  5
331
  8
1
  6
CONTINUOUS
 62
    12
 10
78.0257796881800942
 20
43.4911897066214905
 30
0.0
  0
VERTEX
  5
332
  8
1
  6
CONTINUOUS
 62
    12
 10
77.9122685587517765
 20
43.5531129688825303
 30
0.0
  0
VERTEX
  5
333
  8
1
  6
CONTINUOUS
 62
    12
 10
77.8021538055253785
 20
43.6208920809676215
 30
0.0
  0
VERTEX
  5
334
  8
1
  6
CONTINUOUS
 62
    12
 10
77.6957372453856152
 20
43.6943412650417997
 30
0.0
  0
VERTEX
  5
335
  8
1
  6
CONTINUOUS
 62
    12
 10
77.5933105587267988
 20
43.773259201996872
 30
0.0
  0
VERTEX
  5
336
  8
1
  6
CONTINUOUS
 62
    12
 10
77.4951544899775513
 20
43.8574295832532002
 30
0.0
  0
VERTEX
  5
337
  8
1
  6
CONTINUOUS
 62
    12
 10
77.4015380780995201
 20
43.9466217036463718
 30
0.0
  0
VERTEX
  5
338
  8
1
  6
CONTINUOUS
 62
    12
 10
77.3127179191704812
 20
44.040591093774033
 30
0.0
  0
VERTEX
  5
339
  8
1
  6
CONTINUOUS
 62
    12
 10
77.2289374630722563
 20
44.1390801900695919
 30
0.0
  0
VERTEX
  5
33A
  8
1
  6
CONTINUOUS
 62
    12
 10
77.150426346211475
 20
44.2418190407660319
 30
0.0
  0
VERTEX
  5
33B
  8
1
  6
CONTINUOUS
 62
    12
 10
77.0773997621022318
 20
44.3485260458148076
 30
0.0
  0
VERTEX
  5
33C
  8
1
  6
CONTINUOUS
 62
    12
 10
77.0100578715355653
 20
44.4589087287322613
 30
0.0
  0
VERTEX
  5
33D
  8
1
  6
CONTINUOUS
 62
    12
 10
76.9485852539526149
 20
44.5726645382570723
 30
0.0
  0
VERTEX
  5
33E
  8
1
  6
CONTINUOUS
 62
    12
 10
76.8931504015252614
 20
44.6894816776224388
 30
0.0
  0
VERTEX
  5
33F
  8
1
  6
CONTINUOUS
 62
    12
 10
76.8439052573308174
 20
44.8090399591691835
 30
0.0
  0
VERTEX
  5
340
  8
1
  6
CONTINUOUS
 62
    12
 10
76.8009847988865175
 20
44.931011681958033
 30
0.0
  0
VERTEX
  5
341
  8
1
  6
CONTINUOUS
 62
    12
 10
76.7645066681855752
 20
45.0550625299748972
 30
0.0
  0
VERTEX
  5
342
  8
1
  6
CONTINUOUS
 62
    12
 10
76.7345708492486835
 20
45.1808524884681191
 30
0.0
  0
VERTEX
  5
343
  8
1
  6
CONTINUOUS
 62
    12
 10
76.7112593940747729
 20
45.3080367759049523
 30
0.0
  0
VERTEX
  5
344
  8
1
  6
CONTINUOUS
 62
    12
 10
76.6946361977420707
 20
45.436266788994061
 30
0.0
  0
VERTEX
  5
345
  8
1
  6
CONTINUOUS
 62
    12
 10
76.6847468232762424
 20
45.5651910581826769
 30
0.0
  0
VERTEX
  5
346
  8
1
  6
CONTINUOUS
 62
    12
 10
76.681618376765357
 20
45.6944562110103973
 30
0.0
  0
VERTEX
  5
347
  8
1
  6
CONTINUOUS
 62
    12
 10
76.6792859300978193
 20
45.7835287556363966
 30
0.0
  0
VERTEX
  5
348
  8
1
  6
CONTINUOUS
 62
    12
 10
76.6722949831693654
 20
45.8723571586089065
 30
0.0
  0
VERTEX
  5
349
  8
1
  6
CONTINUOUS
 62
    12
 10
76.6606646976796071
 20
45.9606979474498587
 30
0.0
  0
VERTEX
  5
34A
  8
1
  6
CONTINUOUS
 62
    12
 10
76.6444269514326777
 20
46.0483089861974193
 30
0.0
  0
VERTEX
  5
34B
  8
1
  6
CONTINUOUS
 62
    12
 10
76.6236262509623458
 20
46.1349501390841823
 30
0.0
  0
VERTEX
  5
34C
  8
1
  6
CONTINUOUS
 62
    12
 10
76.5983196095427843
 20
46.2203839287325096
 30
0.0
  0
VERTEX
  5
34D
  8
1
  6
CONTINUOUS
 62
    12
 10
76.5685763909190484
 20
46.304376187063319
 30
0.0
  0
VERTEX
  5
34E
  8
1
  6
CONTINUOUS
 62
    12
 10
76.5344781191859624
 20
46.3866966971347807
 30
0.0
  0
VERTEX
  5
34F
  8
1
  6
CONTINUOUS
 62
    12
 10
76.4961182553362136
 20
46.4671198241508066
 30
0.0
  0
VERTEX
  5
350
  8
1
  6
CONTINUOUS
 62
    12
 10
76.4536019410902981
 20
46.5454251339104204
 30
0.0
  0
VERTEX
  5
351
  8
1
  6
CONTINUOUS
 62
    12
 10
76.4070457107102499
 20
46.6213979970024823
 30
0.0
  0
VERTEX
  5
352
  8
1
  6
CONTINUOUS
 62
    12
 10
76.356577171587432
 20
46.6948301770900827
 30
0.0
  0
VERTEX
  5
353
  8
1
  6
CONTINUOUS
 62
    12
 10
76.3023346544795658
 20
46.7655204016717789
 30
0.0
  0
VERTEX
  5
354
  8
1
  6
CONTINUOUS
 62
    12
 10
76.2444668343557623
 20
46.8332749137556377
 30
0.0
  0
VERTEX
  5
355
  8
1
  6
CONTINUOUS
 62
    12
 10
76.1831323228885395
 20
46.8979080029335833
 30
0.0
  0
VERTEX
  5
356
  8
1
  6
CONTINUOUS
 62
    12
 10
76.1184992337105939
 20
46.9592425144008274
 30
0.0
  0
VERTEX
  5
357
  8
1
  6
CONTINUOUS
 62
    12
 10
76.0507447216267138
 20
47.0171103345246379
 30
0.0
  0
VERTEX
  5
358
  8
1
  6
CONTINUOUS
 62
    12
 10
75.9800544970450034
 20
47.071352851632497
 30
0.0
  0
VERTEX
  5
359
  8
1
  6
CONTINUOUS
 62
    12
 10
75.9066223169574101
 20
47.1218213907553007
 30
0.0
  0
VERTEX
  5
35A
  8
1
  6
CONTINUOUS
 62
    12
 10
75.8306494538653482
 20
47.1683776211353702
 30
0.0
  0
VERTEX
  5
35B
  8
1
  6
CONTINUOUS
 62
    12
 10
75.7523441441057344
 20
47.2108939353813071
 30
0.0
  0
VERTEX
  5
35C
  8
1
  6
CONTINUOUS
 62
    12
 10
75.6719210170897014
 20
47.2492537992310133
 30
0.0
  0
VERTEX
  5
35D
  8
1
  6
CONTINUOUS
 62
    12
 10
75.5896005070182611
 20
47.2833520709640922
 30
0.0
  0
VERTEX
  5
35E
  8
1
  6
CONTINUOUS
 62
    12
 10
75.5056082486874232
 20
47.313095289587821
 30
0.0
  0
VERTEX
  5
35F
  8
1
  6
CONTINUOUS
 62
    12
 10
75.4201744590391456
 20
47.3384019310073896
 30
0.0
  0
VERTEX
  5
360
  8
1
  6
CONTINUOUS
 62
    12
 10
75.3335333061523329
 20
47.3592026314777215
 30
0.0
  0
VERTEX
  5
361
  8
1
  6
CONTINUOUS
 62
    12
 10
75.2459222674047936
 20
47.3754403777246793
 30
0.0
  0
VERTEX
  5
362
  8
1
  6
CONTINUOUS
 62
    12
 10
75.1575814785638698
 20
47.3870706632143808
 30
0.0
  0
VERTEX
  5
363
  8
1
  6
CONTINUOUS
 62
    12
 10
75.0687530755913599
 20
47.3940616101428631
 30
0.0
  0
VERTEX
  5
364
  8
1
  6
CONTINUOUS
 62
    12
 10
74.9796805309653251
 20
47.3963940568104007
 30
0.0
  0
VERTEX
  5
365
  8
1
  6
CONTINUOUS
 62
    12
 10
74.6706486317388993
 20
47.3963940568104007
 30
0.0
  0
VERTEX
  5
366
  8
1
  6
CONTINUOUS
 62
    12
 10
74.1134310318767291
 20
47.3958744103806069
 30
0.0
  0
VERTEX
  5
367
  8
1
  6
CONTINUOUS
 62
    12
 10
74.1134310318767291
 20
47.3958744103806069
 30
0.0
  0
VERTEX
  5
368
  8
1
  6
CONTINUOUS
 62
    12
 10
73.3294326687716875
 20
47.3958744103806069
 30
0.0
  0
VERTEX
  5
369
  8
1
  6
CONTINUOUS
 62
    12
 10
72.5673709467716606
 20
47.2561630946805735
 30
0.0
  0
VERTEX
  5
36A
  8
1
  6
CONTINUOUS
 62
    12
 10
68.7570623367716678
 20
47.2561630946805735
 30
0.0
  0
VERTEX
  5
36B
  8
1
  6
CONTINUOUS
 62
    12
 10
68.7570623367716678
 20
47.6625960130806021
 30
0.0
  0
SEQEND
  5
2E2
  8
1
  6
CONTINUOUS
  0
CIRCLE
  5
4DD
  8
2
  6
CONTINUOUS
 62
     5
 10
79.3839663764836416
 20
45.5175588722062798
 30
0.0
 40
0.254020574
  0
CIRCLE
  5
4DE
  8
2
  6
CONTINUOUS
 62
     5
 10
79.5390575651532998
 20
47.417426037809193
 30
0.0
 40
0.254020574
  0
CIRCLE
  5
4DF
  8
2
  6
CONTINUOUS
 62
     5
 10
78.5051163073555358
 20
47.417426037809193
 30
0.0
 40
0.254020574
  0
CIRCLE
  5
4E0
  8
2
  6
CONTINUOUS
 62
     5
 10
77.5357963781701329
 20
47.3657289720785215
 30
0.0
 40
0.254020574
  0
CIRCLE
  5
4E1
  8
2
  6
CONTINUOUS
 62
     5
 10
76.7603404348217992
 20
47.4045017713765304
 30
0.0
 40
0.254020574
  0
CIRCLE
  5
4E2
  8
2
  6
CONTINUOUS
 62
     5
 10
79.4227391736510668
 20
44.5223903568904902
 30
0.0
 40
0.254020574
  0
CIRCLE
  5
4E3
  8
2
  6
CONTINUOUS
 62
     5
 10
80.3015892427791869
 20
45.5175588722062798
 30
0.0
 40
0.254020574
  0
CIRCLE
  5
4E4
  8
2
  6
CONTINUOUS
 62
     5
 10
80.2886649770566834
 20
44.5223903568904902
 30
0.0
 40
0.254020574
  0
CIRCLE
  5
4E5
  8
2
  6
CONTINUOUS
 62
     5
 10
80.6960293147716783
 20
46.3797921143805922
 30
0.0
 40
0.254020574
  0
CIRCLE
  5
4E6
  8
2
  6
CONTINUOUS
 62
     5
 10
89.9172817904013471
 20
45.5175588722062798
 30
0.0
 40
0.254020574
  0
CIRCLE
  5
4E7
  8
2
  6
CONTINUOUS
 62
     5
 10
89.9302060561238363
 20
44.4836175575924599
 30
0.0
 40
0.254020574
  0
CIRCLE
  5
4E8
  8
2
  6
CONTINUOUS
 62
     5
 10
89.8397361960665393
 20
43.5013733087093186
 30
0.0
 40
0.254020574
  0
CIRCLE
  5
4EB
  8
2
  6
CONTINUOUS
 62
     5
 10
89.2514626063493637
 20
45.698553867479859
 30
0.0
 40
0.254020574
  0
CIRCLE
  5
4EC
  8
2
  6
CONTINUOUS
 62
     5
 10
93.0318083353304246
 20
48.7775695440068375
 30
0.0
 40
0.254020574
  0
CIRCLE
  5
4ED
  8
2
  6
CONTINUOUS
 62
     5
 10
92.1996541444034534
 20
41.6232214930831219
 30
0.0
 40
0.254020574
  0
CIRCLE
  5
4EE
  8
2
  6
CONTINUOUS
 62
     5
 10
92.9617158664034804
 20
41.6232214930831219
 30
0.0
 40
0.254020574
  0
CIRCLE
  5
4EF
  8
2
  6
CONTINUOUS
 62
     5
 10
93.9777981624034737
 20
41.6232214930831219
 30
0.0
 40
0.254020574
  0
CIRCLE
  5
4F0
  8
2
  6
CONTINUOUS
 62
     5
 10
94.9938804584034671
 20
41.6232214930831219
 30
0.0
 40
0.254020574
  0
CIRCLE
  5
4F1
  8
2
  6
CONTINUOUS
 62
     5
 10
96.0099627544034604
 20
41.6232214930831219
 30
0.0
 40
0.254020574
  0
CIRCLE
  5
4F2
  8
2
  6
CONTINUOUS
 62
     5
 10
93.9050991627716769
 20
46.5068024013805683
 30
0.0
 40
0.254020574
  0
CIRCLE
  5
4F3
  8
2
  6
CONTINUOUS
 62
     5
 10
91.9456335704034586
 20
42.6393037890831366
 30
0.0
 40
0.254020574
  0
CIRCLE
  5
4F4
  8
2
  6
CONTINUOUS
 62
     5
 10
92.9617158664034804
 20
42.6393037890831366
 30
0.0
 40
0.254020574
  0
CIRCLE
  5
4F5
  8
2
  6
CONTINUOUS
 62
     5
 10
93.9777981624034737
 20
42.6393037890831366
 30
0.0
 40
0.254020574
  0
CIRCLE
  5
4F6
  8
2
  6
CONTINUOUS
 62
     5
 10
94.9938804584034671
 20
42.6393037890831366
 30
0.0
 40
0.254020574
  0
CIRCLE
  5
4F7
  8
2
  6
CONTINUOUS
 62
     5
 10
96.0099627544034604
 20
42.6393037890831366
 30
0.0
 40
0.254020574
  0
CIRCLE
  5
4F8
  8
2
  6
CONTINUOUS
 62
     5
 10
92.9813704937342038
 20
47.1911119242755035
 30
0.0
 40
0.254020574
  0
CIRCLE
  5
4F9
  8
2
  6
CONTINUOUS
 62
     5
 10
91.9159608044745653
 20
40.3026576620649024
 30
0.0
 40
0.254020574
  0
CIRCLE
  5
4FA
  8
2
  6
CONTINUOUS
 62
     5
 10
92.9617158664034804
 20
40.6071391970831499
 30
0.0
 40
0.254020574
  0
CIRCLE
  5
4FB
  8
2
  6
CONTINUOUS
 62
     5
 10
93.9777981624034737
 20
40.6071391970831499
 30
0.0
 40
0.254020574
  0
CIRCLE
  5
4FC
  8
2
  6
CONTINUOUS
 62
     5
 10
94.9938804584034671
 20
40.6071391970831499
 30
0.0
 40
0.254020574
  0
CIRCLE
  5
4FD
  8
2
  6
CONTINUOUS
 62
     5
 10
96.0099627544034604
 20
40.8611597710831518
 30
0.0
 40
0.254020574
  0
CIRCLE
  5
4FE
  8
2
  6
CONTINUOUS
 62
     5
 10
89.9899807900331581
 20
42.666142555908813
 30
0.0
 40
0.254020574
  0
CIRCLE
  5
4FF
  8
2
  6
CONTINUOUS
 62
     5
 10
90.0029050557556474
 20
41.6322012412950073
 30
0.0
 40
0.254020574
  0
CIRCLE
  5
500
  8
2
  6
CONTINUOUS
 62
     5
 10
89.9124351956983361
 20
40.6499569924118518
 30
0.0
 40
0.254020574
  0
CIRCLE
  5
504
  8
2
  6
CONTINUOUS
 62
     5
 10
96.026669366470756
 20
44.4003489021415589
 30
0.0
 40
0.254020574
  0
CIRCLE
  5
505
  8
2
  6
CONTINUOUS
 62
     5
 10
91.9133229039004505
 20
39.3989857527285494
 30
0.0
 40
0.254020574
  0
CIRCLE
  5
506
  8
2
  6
CONTINUOUS
 62
     5
 10
92.9294051999004438
 20
38.7152615104568483
 30
0.0
 40
0.254020574
  0
CIRCLE
  5
507
  8
2
  6
CONTINUOUS
 62
     5
 10
93.9454874959004513
 20
38.7152615104568483
 30
0.0
 40
0.2540205740000025
  0
CIRCLE
  5
508
  8
2
  6
CONTINUOUS
 62
     5
 10
94.9615697919004447
 20
38.7152615104568483
 30
0.0
 40
0.2540205740000051
  0
CIRCLE
  5
509
  8
2
  6
CONTINUOUS
 62
     5
 10
95.9776520879004664
 20
38.7152615104568483
 30
0.0
 40
0.2540205740000051
  0
CIRCLE
  5
50A
  8
2
  6
CONTINUOUS
 62
     5
 10
87.2150595784721077
 20
48.8167830767065425
 30
0.0
 40
0.254020574
  0
CIRCLE
  5
50B
  8
2
  6
CONTINUOUS
 62
     5
 10
88.6248943154868556
 20
48.8783355547472027
 30
0.0
 40
0.254020574
  0
CIRCLE
  5
50C
  8
2
  6
CONTINUOUS
 62
     5
 10
91.9540072755444271
 20
38.6724230800300575
 30
0.0
 40
0.254020574
  0
CIRCLE
  5
50D
  8
2
  6
CONTINUOUS
 62
     5
 10
92.8590776516648333
 20
39.487949192725857
 30
0.0
 40
0.2540205740000025
  0
CIRCLE
  5
50E
  8
2
  6
CONTINUOUS
 62
     5
 10
93.942200261626553
 20
39.5176092552701519
 30
0.0
 40
0.2540205740000051
  0
CIRCLE
  5
50F
  8
2
  6
CONTINUOUS
 62
     5
 10
95.0401646262034632
 20
39.5917510378130828
 30
0.0
 40
0.2540205740000051
  0
CIRCLE
  5
510
  8
2
  6
CONTINUOUS
 62
     5
 10
90.9376289410292316
 20
37.8768878800618012
 30
0.0
 40
0.254020574
  0
CIRCLE
  5
511
  8
2
  6
CONTINUOUS
 62
     5
 10
97.1025501115145744
 20
39.4286458152728301
 30
0.0
 40
0.254020574
  0
CIRCLE
  5
512
  8
2
  6
CONTINUOUS
 62
     5
 10
98.3785504360785268
 20
39.354504032731711
 30
0.0
 40
0.254020574
  0
CIRCLE
  5
513
  8
2
  6
CONTINUOUS
 62
     5
 10
97.7108667645625246
 20
38.8651799912950082
 30
0.0
 40
0.254020574
  0
CIRCLE
  5
514
  8
2
  6
CONTINUOUS
 62
     5
 10
98.8830236283720296
 20
38.8651799912950082
 30
0.0
 40
0.254020574
  0
CIRCLE
  5
515
  8
2
  6
CONTINUOUS
 62
     5
 10
99.9364627290997305
 20
39.9347350518103994
 30
0.0
 40
0.254020574
  0
CIRCLE
  5
516
  8
2
  6
CONTINUOUS
 62
     5
 10
89.9576701235301357
 20
39.7581825732825394
 30
0.0
 40
0.254020574
  0
CIRCLE
  5
517
  8
2
  6
CONTINUOUS
 62
     5
 10
89.970594389252625
 20
38.724241258668691
 30
0.0
 40
0.254020574
  0
CIRCLE
  5
518
  8
2
  6
CONTINUOUS
 62
     5
 10
89.9205128623240739
 20
37.9197056753905031
 30
0.0
 40
0.254020574
  0
CIRCLE
  5
519
  8
2
  6
CONTINUOUS
 62
     5
 10
89.0205326234607668
 20
37.9438479690267272
 30
0.0
 40
0.254020574
  0
CIRCLE
  5
51A
  8
2
  6
CONTINUOUS
 62
     5
 10
89.014198725789683
 20
38.7630172133052113
 30
0.0
 40
0.254020574
  0
CIRCLE
  5
51C
  8
2
  6
CONTINUOUS
 62
     5
 10
91.3259992594612413
 20
40.9741176230490893
 30
0.0
 40
0.2540205740000051
  0
CIRCLE
  5
51D
  8
2
  6
CONTINUOUS
 62
     5
 10
91.4030234092460887
 20
43.9545268440251604
 30
0.0
 40
0.2540205740000051
  0
CIRCLE
  5
51E
  8
2
  6
CONTINUOUS
 62
     5
 10
91.4997877436217095
 20
42.0145309857962204
 30
0.0
 40
0.254020574
  0
CIRCLE
  5
51F
  8
2
  6
CONTINUOUS
 62
     5
 10
91.2109593873283444
 20
45.8549312918312282
 30
0.0
 40
0.254020574
  0
CIRCLE
  5
520
  8
2
  6
CONTINUOUS
 62
     5
 10
90.8730076080231726
 20
36.9785631874995033
 30
0.0
 40
0.254020574
  0
CIRCLE
  5
521
  8
2
  6
CONTINUOUS
 62
     5
 10
91.8890899040231943
 20
36.9785631874995033
 30
0.0
 40
0.254020574
  0
CIRCLE
  5
522
  8
2
  6
CONTINUOUS
 62
     5
 10
92.9051722000231734
 20
36.9785631874995033
 30
0.0
 40
0.254020574
  0
CIRCLE
  5
523
  8
2
  6
CONTINUOUS
 62
     5
 10
93.9212544960231952
 20
36.9785631874995033
 30
0.0
 40
0.254020574
  0
CIRCLE
  5
524
  8
2
  6
CONTINUOUS
 62
     5
 10
94.9373367920231885
 20
36.9785631874995033
 30
0.0
 40
0.254020574
  0
CIRCLE
  5
525
  8
2
  6
CONTINUOUS
 62
     5
 10
95.9534190880231819
 20
36.9785631874995033
 30
0.0
 40
0.254020574
  0
CIRCLE
  5
526
  8
2
  6
CONTINUOUS
 62
     5
 10
90.8730076080231726
 20
35.9624808914994674
 30
0.0
 40
0.254020574
  0
CIRCLE
  5
527
  8
2
  6
CONTINUOUS
 62
     5
 10
91.8890899040231943
 20
35.9624808914994674
 30
0.0
 40
0.254020574
  0
CIRCLE
  5
528
  8
2
  6
CONTINUOUS
 62
     5
 10
92.9051722000231734
 20
35.9624808914994674
 30
0.0
 40
0.254020574
  0
CIRCLE
  5
529
  8
2
  6
CONTINUOUS
 62
     5
 10
93.9212544960231952
 20
35.9624808914994674
 30
0.0
 40
0.254020574
  0
CIRCLE
  5
52A
  8
2
  6
CONTINUOUS
 62
     5
 10
94.9373367920231885
 20
35.9624808914994674
 30
0.0
 40
0.254020574
  0
CIRCLE
  5
52B
  8
2
  6
CONTINUOUS
 62
     5
 10
95.9534190880231819
 20
35.9624808914994674
 30
0.0
 40
0.254020574
  0
CIRCLE
  5
52C
  8
2
  6
CONTINUOUS
 62
     5
 10
89.9463613893753546
 20
36.9875429357113319
 30
0.0
 40
0.254020574
  0
CIRCLE
  5
52D
  8
2
  6
CONTINUOUS
 62
     5
 10
89.8558915293180576
 20
36.0052986868281693
 30
0.0
 40
0.254020574
  0
CIRCLE
  5
52E
  8
2
  6
CONTINUOUS
 62
     5
 10
89.0028899916349161
 20
36.1086959736280519
 30
0.0
 40
0.254020574
  0
CIRCLE
  5
52F
  8
2
  6
CONTINUOUS
 62
     5
 10
88.9899657259124268
 20
37.0263188903478309
 30
0.0
 40
0.254020574
  0
CIRCLE
  5
530
  8
2
  6
CONTINUOUS
 62
     5
 10
90.921473607777699
 20
35.1627918962772696
 30
0.0
 40
0.254020574
  0
CIRCLE
  5
531
  8
2
  6
CONTINUOUS
 62
     5
 10
91.9375559037777066
 20
35.1627918962772696
 30
0.0
 40
0.254020574
  0
CIRCLE
  5
532
  8
2
  6
CONTINUOUS
 62
     5
 10
92.9536381997777141
 20
35.1627918962772696
 30
0.0
 40
0.254020574
  0
CIRCLE
  5
533
  8
2
  6
CONTINUOUS
 62
     5
 10
93.9697204957777075
 20
35.1627918962772696
 30
0.0
 40
0.254020574
  0
CIRCLE
  5
534
  8
2
  6
CONTINUOUS
 62
     5
 10
94.985802791777715
 20
35.1627918962772696
 30
0.0
 40
0.254020574
  0
CIRCLE
  5
535
  8
2
  6
CONTINUOUS
 62
     5
 10
96.0018850877777226
 20
35.1627918962772696
 30
0.0
 40
0.254020574
  0
CIRCLE
  5
536
  8
2
  6
CONTINUOUS
 62
     5
 10
89.904357529072584
 20
35.2056096916059715
 30
0.0
 40
0.254020574
  0
CIRCLE
  5
537
  8
2
  6
CONTINUOUS
 62
     5
 10
87.7843723868944039
 20
35.2922698721583572
 30
0.0
 40
0.254020574
  0
CIRCLE
  5
538
  8
2
  6
CONTINUOUS
 62
     5
 10
88.9786569917576458
 20
35.3090069784058187
 30
0.0
 40
0.254020574
  0
CIRCLE
  5
539
  8
2
  6
CONTINUOUS
 62
     5
 10
84.5244024677795949
 20
38.1079681261437671
 30
0.0
 40
0.254020574
  0
CIRCLE
  5
53A
  8
2
  6
CONTINUOUS
 62
     5
 10
84.5244024677795949
 20
38.7369311656948412
 30
0.0
 40
0.254020574
  0
CIRCLE
  5
53B
  8
2
  6
CONTINUOUS
 62
     5
 10
78.3371451491398716
 20
36.2229052311942894
 30
0.0
 40
0.254020574
  0
CIRCLE
  5
53C
  8
2
  6
CONTINUOUS
 62
     5
 10
80.4211831385847233
 20
36.2067498979574935
 30
0.0
 40
0.254020574
  0
CIRCLE
  5
53D
  8
2
  6
CONTINUOUS
 62
     5
 10
79.4680184767456268
 20
35.1404979043278516
 30
0.0
 40
0.254020574
  0
CIRCLE
  5
53E
  8
2
  6
CONTINUOUS
 62
     5
 10
81.3743478004238767
 20
35.221274570511909
 30
0.0
 40
0.254020574
  0
CIRCLE
  5
53F
  8
2
  6
CONTINUOUS
 62
     5
 10
77.4162911538037832
 20
35.2374299037487404
 30
0.0
 40
0.254020574
  0
CIRCLE
  5
540
  8
2
  6
CONTINUOUS
 62
     5
 10
79.4379107149139543
 20
40.3515619665150709
 30
0.0
 40
0.254020574
  0
CIRCLE
  5
541
  8
2
  6
CONTINUOUS
 62
     5
 10
79.4379107149139543
 20
41.2406339755150526
 30
0.0
 40
0.254020574
  0
CIRCLE
  5
542
  8
2
  6
CONTINUOUS
 62
     5
 10
80.3191106287502237
 20
40.4103086253806012
 30
0.0
 40
0.254020574
  0
CIRCLE
  5
543
  8
2
  6
CONTINUOUS
 62
     5
 10
80.3191106287502237
 20
41.2993806343805829
 30
0.0
 40
0.254020574
  0
CIRCLE
  5
544
  8
2
  6
CONTINUOUS
 62
     5
 10
79.5114696495243436
 20
42.7361168714206414
 30
0.0
 40
0.254020574
  0
CIRCLE
  5
545
  8
2
  6
CONTINUOUS
 62
     5
 10
80.3632962328994012
 20
42.7067435419878834
 30
0.0
 40
0.254020574
  0
POLYLINE
  5
68B
  8
0
 66
     1
 10
0.0
 20
0.0
 30
0.0
 70
     1
  0
VERTEX
  5
C7B
  8
0
 10
82.6598201563223256
 20
42.0282592060300573
 30
0.0
  0
VERTEX
  5
C7C
  8
0
 10
82.6708425848150625
 20
42.0282592060300573
 30
0.0
  0
VERTEX
  5
C7D
  8
0
 10
82.6708425848150625
 20
42.017236777537299
 30
0.0
  0
VERTEX
  5
C7E
  8
0
 10
82.6598201563223256
 20
42.017236777537299
 30
0.0
  0
VERTEX
  5
C7F
  8
0
 10
82.6598201563223256
 20
42.0282592060300573
 30
0.0
  0
SEQEND
  5
C80
  8
0
  0
POLYLINE
  5
68C
  8
0
 66
     1
 10
0.0
 20
0.0
 30
0.0
 70
     1
  0
VERTEX
  5
C81
  8
0
 10
82.6207125800300588
 20
42.1274610624647607
 30
0.0
  0
VERTEX
  5
C82
  8
0
 10
82.6372462227691642
 20
42.1274610624647607
 30
0.0
  0
VERTEX
  5
C83
  8
0
 10
82.6372462227691642
 20
42.1109274197256696
 30
0.0
  0
VERTEX
  5
C84
  8
0
 10
82.6207125800300588
 20
42.1109274197256696
 30
0.0
  0
VERTEX
  5
C85
  8
0
 10
82.6207125800300588
 20
42.1274610624647607
 30
0.0
  0
SEQEND
  5
C86
  8
0
  0
POLYLINE
  5
68D
  8
0
 66
     1
 10
0.0
 20
0.0
 30
0.0
 70
     1
  0
VERTEX
  5
C87
  8
0
 10
82.7088920079720538
 20
42.1274610624647607
 30
0.0
  0
VERTEX
  5
C88
  8
0
 10
82.7254256507111165
 20
42.1274610624647607
 30
0.0
  0
VERTEX
  5
C89
  8
0
 10
82.7254256507111165
 20
42.1109274197256696
 30
0.0
  0
VERTEX
  5
C8A
  8
0
 10
82.7088920079720538
 20
42.1109274197256696
 30
0.0
  0
VERTEX
  5
C8B
  8
0
 10
82.7088920079720538
 20
42.1274610624647607
 30
0.0
  0
SEQEND
  5
C8C
  8
0
  0
POLYLINE
  5
68E
  8
0
 66
     1
 10
0.0
 20
0.0
 30
0.0
 70
     1
  0
VERTEX
  5
C8D
  8
0
 10
82.7474705076966757
 20
42.0007031347982078
 30
0.0
  0
VERTEX
  5
C8E
  8
0
 10
82.7640041504357669
 20
42.0007031347982078
 30
0.0
  0
VERTEX
  5
C8F
  8
0
 10
82.7640041504357669
 20
41.9841694920590882
 30
0.0
  0
VERTEX
  5
C90
  8
0
 10
82.7474705076966757
 20
41.9841694920590882
 30
0.0
  0
VERTEX
  5
C91
  8
0
 10
82.7474705076966757
 20
42.0007031347982078
 30
0.0
  0
SEQEND
  5
C92
  8
0
  0
POLYLINE
  5
68F
  8
0
 66
     1
 10
0.0
 20
0.0
 30
0.0
 70
     1
  0
VERTEX
  5
C93
  8
0
 10
82.6207125800300588
 20
42.0007031347982078
 30
0.0
  0
VERTEX
  5
C94
  8
0
 10
82.6372462227691642
 20
42.0007031347982078
 30
0.0
  0
VERTEX
  5
C95
  8
0
 10
82.6372462227691642
 20
41.9841694920590882
 30
0.0
  0
VERTEX
  5
C96
  8
0
 10
82.6207125800300588
 20
41.9841694920590882
 30
0.0
  0
VERTEX
  5
C97
  8
0
 10
82.6207125800300588
 20
42.0007031347982078
 30
0.0
  0
SEQEND
  5
C98
  8
0
  0
POLYLINE
  5
690
  8
0
 66
     1
 10
0.0
 20
0.0
 30
0.0
 70
     1
  0
VERTEX
  5
C99
  8
0
 10
82.3286182249723169
 20
41.7251424224795784
 30
0.0
  0
VERTEX
  5
C9A
  8
0
 10
82.3616855104505134
 20
41.7251424224795784
 30
0.0
  0
VERTEX
  5
C9B
  8
0
 10
82.3616855104505134
 20
41.6920751370013107
 30
0.0
  0
VERTEX
  5
C9C
  8
0
 10
82.3286182249723169
 20
41.6920751370013107
 30
0.0
  0
VERTEX
  5
C9D
  8
0
 10
82.3286182249723169
 20
41.7251424224795784
 30
0.0
  0
SEQEND
  5
C9E
  8
0
  0
POLYLINE
  5
691
  8
0
 66
     1
 10
0.0
 20
0.0
 30
0.0
 70
     1
  0
VERTEX
  5
C9F
  8
0
 10
83.0230312200152554
 20
41.7251424224795784
 30
0.0
  0
VERTEX
  5
CA0
  8
0
 10
83.0560985054934946
 20
41.7251424224795784
 30
0.0
  0
VERTEX
  5
CA1
  8
0
 10
83.0560985054934946
 20
41.6920751370013107
 30
0.0
  0
VERTEX
  5
CA2
  8
0
 10
83.0230312200152554
 20
41.6920751370013107
 30
0.0
  0
VERTEX
  5
CA3
  8
0
 10
83.0230312200152554
 20
41.7251424224795784
 30
0.0
  0
SEQEND
  5
CA4
  8
0
  0
POLYLINE
  5
692
  8
0
 66
     1
 10
0.0
 20
0.0
 30
0.0
 70
     1
  0
VERTEX
  5
CA5
  8
0
 10
83.0230312200152554
 20
42.4195554175225595
 30
0.0
  0
VERTEX
  5
CA6
  8
0
 10
83.0560985054934946
 20
42.4195554175225595
 30
0.0
  0
VERTEX
  5
CA7
  8
0
 10
83.0560985054934946
 20
42.3864881320443132
 30
0.0
  0
VERTEX
  5
CA8
  8
0
 10
83.0230312200152554
 20
42.3864881320443132
 30
0.0
  0
VERTEX
  5
CA9
  8
0
 10
83.0230312200152554
 20
42.4195554175225595
 30
0.0
  0
SEQEND
  5
CAA
  8
0
  0
POLYLINE
  5
693
  8
0
 66
     1
 10
0.0
 20
0.0
 30
0.0
 70
     1
  0
VERTEX
  5
CAB
  8
0
 10
82.3286182249723169
 20
42.4195554175225595
 30
0.0
  0
VERTEX
  5
CAC
  8
0
 10
82.3616855104505134
 20
42.4195554175225595
 30
0.0
  0
VERTEX
  5
CAD
  8
0
 10
82.3616855104505134
 20
42.3864881320443132
 30
0.0
  0
VERTEX
  5
CAE
  8
0
 10
82.3286182249723169
 20
42.3864881320443132
 30
0.0
  0
VERTEX
  5
CAF
  8
0
 10
82.3286182249723169
 20
42.4195554175225595
 30
0.0
  0
SEQEND
  5
CB0
  8
0
  0
POLYLINE
  5
694
  8
0
 66
     1
 10
0.0
 20
0.0
 30
0.0
 70
     1
  0
VERTEX
  5
CB1
  8
0
 10
82.7259547272788041
 20
42.0282592060300573
 30
0.0
  0
VERTEX
  5
CB2
  8
0
 10
82.7369771557715552
 20
42.0282592060300573
 30
0.0
  0
VERTEX
  5
CB3
  8
0
 10
82.7369771557715552
 20
42.017236777537299
 30
0.0
  0
VERTEX
  5
CB4
  8
0
 10
82.7259547272788041
 20
42.017236777537299
 30
0.0
  0
VERTEX
  5
CB5
  8
0
 10
82.7259547272788041
 20
42.0282592060300573
 30
0.0
  0
SEQEND
  5
CB6
  8
0
  0
POLYLINE
  5
695
  8
0
 66
     1
 10
0.0
 20
0.0
 30
0.0
 70
     1
  0
VERTEX
  5
CB7
  8
0
 10
82.7259547272788041
 20
42.094393776986557
 30
0.0
  0
VERTEX
  5
CB8
  8
0
 10
82.7369771557715552
 20
42.094393776986557
 30
0.0
  0
VERTEX
  5
CB9
  8
0
 10
82.7369771557715552
 20
42.0833713484938201
 30
0.0
  0
VERTEX
  5
CBA
  8
0
 10
82.7259547272788041
 20
42.0833713484938201
 30
0.0
  0
VERTEX
  5
CBB
  8
0
 10
82.7259547272788041
 20
42.094393776986557
 30
0.0
  0
SEQEND
  5
CBC
  8
0
  0
POLYLINE
  5
696
  8
0
 66
     1
 10
0.0
 20
0.0
 30
0.0
 70
     1
  0
VERTEX
  5
CBD
  8
0
 10
81.1321115672277813
 20
45.1222548839437678
 30
0.0
  0
VERTEX
  5
CBE
  8
0
 10
81.0218872823002982
 20
45.1222548839437678
 30
0.0
  0
VERTEX
  5
CBF
  8
0
 10
81.0218872823002982
 20
39.500816352643497
 30
0.0
  0
VERTEX
  5
CC0
  8
0
 10
88.9580357970771445
 20
39.500816352643497
 30
0.0
  0
VERTEX
  5
CC1
  8
0
 10
88.9580357970771445
 20
45.2324791688711869
 30
0.0
  0
VERTEX
  5
CC2
  8
0
 10
81.0218872823002982
 20
45.2324791688711869
 30
0.0
  0
VERTEX
  5
CC3
  8
0
 10
81.0218872823002982
 20
45.1222548839437678
 30
0.0
  0
VERTEX
  5
CC4
  8
0
 10
88.8478115121497041
 20
45.1222548839437678
 30
0.0
  0
VERTEX
  5
CC5
  8
0
 10
88.8478115121497041
 20
39.6110406375709374
 30
0.0
  0
VERTEX
  5
CC6
  8
0
 10
81.1321115672277813
 20
39.6110406375709374
 30
0.0
  0
VERTEX
  5
CC7
  8
0
 10
81.1321115672277813
 20
45.1222548839437678
 30
0.0
  0
SEQEND
  5
CC8
  8
0
  0
POLYLINE
  5
697
  8
0
 66
     1
 10
0.0
 20
0.0
 30
0.0
 70
     1
  0
VERTEX
  5
CC9
  8
0
 10
82.8753306782124781
 20
42.2564234758298696
 30
0.0
  0
VERTEX
  5
CCA
  8
0
 10
82.8819441353081316
 20
42.2564234758298696
 30
0.0
  0
VERTEX
  5
CCB
  8
0
 10
82.8819441353081316
 20
44.642779244509299
 30
0.0
  0
VERTEX
  5
CCC
  8
0
 10
82.8047871358589163
 20
44.8742502428570091
 30
0.0
  0
VERTEX
  5
CCD
  8
0
 10
82.8047871358589163
 20
45.0726539557263735
 30
0.0
  0
VERTEX
  5
CCE
  8
0
 10
82.9701235632500982
 20
45.0726539557263735
 30
0.0
  0
VERTEX
  5
CCF
  8
0
 10
82.9701235632500982
 20
44.8621255715149729
 30
0.0
  0
VERTEX
  5
CD0
  8
0
 10
82.892966563800897
 20
44.642779244509299
 30
0.0
  0
VERTEX
  5
CD1
  8
0
 10
82.892966563800897
 20
42.2564234758298696
 30
0.0
  0
VERTEX
  5
CD2
  8
0
 10
82.8995800208965363
 20
42.2564234758298696
 30
0.0
  0
VERTEX
  5
CD3
  8
0
 10
82.8995800208965363
 20
44.642779244509299
 30
0.0
  0
VERTEX
  5
CD4
  8
0
 10
83.0197244914674286
 20
44.8742502428570091
 30
0.0
  0
VERTEX
  5
CD5
  8
0
 10
83.0197244914674286
 20
45.1222548839437678
 30
0.0
  0
VERTEX
  5
CD6
  8
0
 10
82.7551862076415432
 20
45.1222548839437678
 30
0.0
  0
VERTEX
  5
CD7
  8
0
 10
82.7551862076415432
 20
44.8742502428570091
 30
0.0
  0
VERTEX
  5
CD8
  8
0
 10
82.8753306782124781
 20
44.642779244509299
 30
0.0
  0
VERTEX
  5
CD9
  8
0
 10
82.8753306782124781
 20
42.2564234758298696
 30
0.0
  0
SEQEND
  5
CDA
  8
0
  0
POLYLINE
  5
698
  8
0
 66
     1
 10
0.0
 20
0.0
 30
0.0
 70
     1
  0
VERTEX
  5
CDB
  8
0
 10
81.1326847335094214
 20
41.9147281925547901
 30
0.0
  0
VERTEX
  5
CDC
  8
0
 10
81.1822856617267803
 20
41.9147281925547901
 30
0.0
  0
VERTEX
  5
CDD
  8
0
 10
81.1822856617267803
 20
42.1296655481633309
 30
0.0
  0
VERTEX
  5
CDE
  8
0
 10
81.3806893745961588
 20
42.1296655481633309
 30
0.0
  0
VERTEX
  5
CDF
  8
0
 10
81.6121603729438476
 20
42.0580197629604484
 30
0.0
  0
VERTEX
  5
CE0
  8
0
 10
82.5678049232648874
 20
42.0580197629604484
 30
0.0
  0
VERTEX
  5
CE1
  8
0
 10
82.5678049232648874
 20
42.051406305864802
 30
0.0
  0
VERTEX
  5
CE2
  8
0
 10
82.6096901515373077
 20
42.051406305864802
 30
0.0
  0
VERTEX
  5
CE3
  8
0
 10
82.6096901515373077
 20
42.0480995773170108
 30
0.0
  0
VERTEX
  5
CE4
  8
0
 10
82.5678049232648874
 20
42.0480995773170108
 30
0.0
  0
VERTEX
  5
CE5
  8
0
 10
82.5678049232648874
 20
42.0381793916735731
 30
0.0
  0
VERTEX
  5
CE6
  8
0
 10
82.6096901515373077
 20
42.0381793916735731
 30
0.0
  0
VERTEX
  5
CE7
  8
0
 10
82.6096901515373077
 20
42.0348726631257108
 30
0.0
  0
VERTEX
  5
CE8
  8
0
 10
81.6121603729438476
 20
42.0348726631257108
 30
0.0
  0
VERTEX
  5
CE9
  8
0
 10
81.3806893745961588
 20
41.9643291207721489
 30
0.0
  0
VERTEX
  5
CEA
  8
0
 10
81.1822856617267803
 20
41.9643291207721489
 30
0.0
  0
VERTEX
  5
CEB
  8
0
 10
81.1822856617267803
 20
41.9147281925547901
 30
0.0
  0
VERTEX
  5
CEC
  8
0
 10
81.3806893745961588
 20
41.9147281925547901
 30
0.0
  0
VERTEX
  5
CED
  8
0
 10
81.6121603729438476
 20
42.0205435060851471
 30
0.0
  0
VERTEX
  5
CEE
  8
0
 10
82.6129968800851486
 20
42.0205435060851471
 30
0.0
  0
VERTEX
  5
CEF
  8
0
 10
82.6681090225488759
 20
42.0348726631257108
 30
0.0
  0
VERTEX
  5
CF0
  8
0
 10
85.5410829643260229
 20
42.0348726631257108
 30
0.0
  0
VERTEX
  5
CF1
  8
0
 10
85.5410829643260229
 20
42.0414861202213572
 30
0.0
  0
VERTEX
  5
CF2
  8
0
 10
82.6460641655633736
 20
42.0414861202213572
 30
0.0
  0
VERTEX
  5
CF3
  8
0
 10
82.6129968800851486
 20
42.0348726631257108
 30
0.0
  0
VERTEX
  5
CF4
  8
0
 10
82.6129968800851486
 20
42.0414861202213572
 30
0.0
  0
VERTEX
  5
CF5
  8
0
 10
82.5711116518126857
 20
42.0414861202213572
 30
0.0
  0
VERTEX
  5
CF6
  8
0
 10
82.5711116518126857
 20
42.0447928487691485
 30
0.0
  0
VERTEX
  5
CF7
  8
0
 10
82.6129968800851486
 20
42.0447928487691485
 30
0.0
  0
VERTEX
  5
CF8
  8
0
 10
82.6129968800851486
 20
42.0547130344126572
 30
0.0
  0
VERTEX
  5
CF9
  8
0
 10
82.5711116518126857
 20
42.0547130344126572
 30
0.0
  0
VERTEX
  5
CFA
  8
0
 10
82.5711116518126857
 20
42.0580197629604484
 30
0.0
  0
VERTEX
  5
CFB
  8
0
 10
82.6129968800851486
 20
42.0580197629604484
 30
0.0
  0
VERTEX
  5
CFC
  8
0
 10
82.6460641655633736
 20
42.0525085487141084
 30
0.0
  0
VERTEX
  5
CFD
  8
0
 10
85.5410829643260229
 20
42.0525085487141084
 30
0.0
  0
VERTEX
  5
CFE
  8
0
 10
85.5410829643260229
 20
42.0591220058097832
 30
0.0
  0
VERTEX
  5
CFF
  8
0
 10
82.8422633927342247
 20
42.0591220058097832
 30
0.0
  0
VERTEX
  5
D00
  8
0
 10
82.8422633927342247
 20
43.1547513979886475
 30
0.0
  0
VERTEX
  5
D01
  8
0
 10
82.8356499356385854
 20
43.1547513979886475
 30
0.0
  0
VERTEX
  5
D02
  8
0
 10
82.8356499356385854
 20
42.0591220058097832
 30
0.0
  0
VERTEX
  5
D03
  8
0
 10
82.6879493938357939
 20
42.0591220058097832
 30
0.0
  0
VERTEX
  5
D04
  8
0
 10
82.6879493938357939
 20
43.1547513979886475
 30
0.0
  0
VERTEX
  5
D05
  8
0
 10
82.6813359367401546
 20
43.1547513979886475
 30
0.0
  0
VERTEX
  5
D06
  8
0
 10
82.6813359367401546
 20
42.1032117197807096
 30
0.0
  0
VERTEX
  5
D07
  8
0
 10
82.6703135082474461
 20
42.1032117197807096
 30
0.0
  0
VERTEX
  5
D08
  8
0
 10
82.6703135082474461
 20
43.1547513979886475
 30
0.0
  0
VERTEX
  5
D09
  8
0
 10
82.6637000511517925
 20
43.1547513979886475
 30
0.0
  0
VERTEX
  5
D0A
  8
0
 10
82.6637000511517925
 20
42.0591220058097832
 30
0.0
  0
VERTEX
  5
D0B
  8
0
 10
82.6129968800851486
 20
42.072348920001069
 30
0.0
  0
VERTEX
  5
D0C
  8
0
 10
81.6121603729438476
 20
42.072348920001069
 30
0.0
  0
VERTEX
  5
D0D
  8
0
 10
81.3806893745961588
 20
42.1792664763806684
 30
0.0
  0
VERTEX
  5
D0E
  8
0
 10
81.1326847335094214
 20
42.1792664763806684
 30
0.0
  0
VERTEX
  5
D0F
  8
0
 10
81.1326847335094214
 20
41.9147281925547901
 30
0.0
  0
SEQEND
  5
D10
  8
0
  0
POLYLINE
  5
699
  8
0
 66
     1
 10
0.0
 20
0.0
 30
0.0
 70
     1
  0
VERTEX
  5
D11
  8
0
 10
81.1822856617267803
 20
43.1547513979886475
 30
0.0
  0
VERTEX
  5
D12
  8
0
 10
81.3806893745961588
 20
43.1547513979886475
 30
0.0
  0
VERTEX
  5
D13
  8
0
 10
81.6121603729438476
 20
43.2748958685595824
 30
0.0
  0
VERTEX
  5
D14
  8
0
 10
82.5799847067493715
 20
43.2748958685595824
 30
0.0
  0
VERTEX
  5
D15
  8
0
 10
82.584636171573294
 20
43.2746533751327576
 30
0.0
  0
VERTEX
  5
D16
  8
0
 10
82.5892655915402543
 20
43.2741463434221103
 30
0.0
  0
VERTEX
  5
D17
  8
0
 10
82.5938619442217146
 20
43.2733968182845885
 30
0.0
  0
VERTEX
  5
D18
  8
0
 10
82.5984142071892649
 20
43.2724047997202277
 30
0.0
  0
VERTEX
  5
D19
  8
0
 10
82.6029003355857867
 20
43.2711702877290421
 30
0.0
  0
VERTEX
  5
D1A
  8
0
 10
82.6073093069828559
 20
43.2696822598825221
 30
0.0
  0
VERTEX
  5
D1B
  8
0
 10
82.6116411213805435
 20
43.2679627610376585
 30
0.0
  0
VERTEX
  5
D1C
  8
0
 10
82.6158737339217453
 20
43.2660117911944297
 30
0.0
  0
VERTEX
  5
D1D
  8
0
 10
82.6199850997495275
 20
43.2638403727813809
 30
0.0
  0
VERTEX
  5
D1E
  8
0
 10
82.6239752188639045
 20
43.2614374833699173
 30
0.0
  0
VERTEX
  5
D1F
  8
0
 10
82.6278330688363667
 20
43.2588361902456811
 30
0.0
  0
VERTEX
  5
D20
  8
0
 10
82.6315476272384473
 20
43.2560144485514968
 30
0.0
  0
VERTEX
  5
D21
  8
0
 10
82.635096849213113
 20
43.2530053255730209
 30
0.0
  0
VERTEX
  5
D22
  8
0
 10
82.638480734760364
 20
43.2498088213101184
 30
0.0
  0
VERTEX
  5
D23
  8
0
 10
82.6416882614517618
 20
43.2464359581913129
 30
0.0
  0
VERTEX
  5
D24
  8
0
 10
82.6447084068587543
 20
43.2428867362166471
 30
0.0
  0
VERTEX
  5
D25
  8
0
 10
82.6475301485528888
 20
43.2391832002431329
 30
0.0
  0
VERTEX
  5
D26
  8
0
 10
82.6501424641056985
 20
43.2353363726991233
 30
0.0
  0
VERTEX
  5
D27
  8
0
 10
82.6525453535171124
 20
43.2313462535848032
 30
0.0
  0
VERTEX
  5
D28
  8
0
 10
82.6547388167871446
 20
43.227234887756957
 30
0.0
  0
VERTEX
  5
D29
  8
0
 10
82.6566897866303947
 20
43.2230132976442505
 30
0.0
  0
VERTEX
  5
D2A
  8
0
 10
82.6584203079037536
 20
43.2186925056750724
 30
0.0
  0
VERTEX
  5
D2B
  8
0
 10
82.6599193581787688
 20
43.2142725118494866
 30
0.0
  0
VERTEX
  5
D2C
  8
0
 10
82.6611648925984355
 20
43.2097863834529434
 30
0.0
  0
VERTEX
  5
D2D
  8
0
 10
82.6621679335912631
 20
43.2052451429139523
 30
0.0
  0
VERTEX
  5
D2E
  8
0
 10
82.662928481157266
 20
43.2006487902324565
 30
0.0
  0
VERTEX
  5
D2F
  8
0
 10
82.6634355128679346
 20
43.1960193702655033
 30
0.0
  0
VERTEX
  5
D30
  8
0
 10
82.6637000511517925
 20
43.1913679054415809
 30
0.0
  0
VERTEX
  5
D31
  8
0
 10
82.6637000511517925
 20
43.1547513979886475
 30
0.0
  0
VERTEX
  5
D32
  8
0
 10
82.6703135082474461
 20
43.1547513979886475
 30
0.0
  0
VERTEX
  5
D33
  8
0
 10
82.670302485818894
 20
43.1916434661538915
 30
0.0
  0
VERTEX
  5
D34
  8
0
 10
82.6700269251065976
 20
43.1965704916901529
 30
0.0
  0
VERTEX
  5
D35
  8
0
 10
82.6694868261104574
 20
43.2014644499409002
 30
0.0
  0
VERTEX
  5
D36
  8
0
 10
82.6686932112589687
 20
43.2063363633347421
 30
0.0
  0
VERTEX
  5
D37
  8
0
 10
82.667635058123679
 20
43.2111421421575699
 30
0.0
  0
VERTEX
  5
D38
  8
0
 10
82.6663233891330549
 20
43.2159038312664165
 30
0.0
  0
VERTEX
  5
D39
  8
0
 10
82.6647582042870681
 20
43.2205773409473366
 30
0.0
  0
VERTEX
  5
D3A
  8
0
 10
82.6629505260142565
 20
43.2251626712003301
 30
0.0
  0
VERTEX
  5
D3B
  8
0
 10
82.6609003543146201
 20
43.2296487995968803
 30
0.0
  0
VERTEX
  5
D3C
  8
0
 10
82.6586187116166258
 20
43.2340136812799827
 30
0.0
  0
VERTEX
  5
D3D
  8
0
 10
82.656105597920245
 20
43.2382573162497081
 30
0.0
  0
VERTEX
  5
D3E
  8
0
 10
82.6533720356540584
 20
43.2423466372204999
 30
0.0
  0
VERTEX
  5
D3F
  8
0
 10
82.6504180248180091
 20
43.2463036890494266
 30
0.0
  0
VERTEX
  5
D40
  8
0
 10
82.6472545878406066
 20
43.2500843820224219
 30
0.0
  0
VERTEX
  5
D41
  8
0
 10
82.6439037695787846
 20
43.2536997385680309
 30
0.0
  0
VERTEX
  5
D42
  8
0
 10
82.6403655700326283
 20
43.2571277138292913
 30
0.0
  0
VERTEX
  5
D43
  8
0
 10
82.6366399892020951
 20
43.2603683078061607
 30
0.0
  0
VERTEX
  5
D44
  8
0
 10
82.6327600943726139
 20
43.2633994756416485
 30
0.0
  0
VERTEX
  5
D45
  8
0
 10
82.6287148631157891
 20
43.2662212173358114
 30
0.0
  0
VERTEX
  5
D46
  8
0
 10
82.6245263402885257
 20
43.2688225104600832
 30
0.0
  0
VERTEX
  5
D47
  8
0
 10
82.6202165707478855
 20
43.2712033550144994
 30
0.0
  0
VERTEX
  5
D48
  8
0
 10
82.6157745320653163
 20
43.2733417061421193
 30
0.0
  0
VERTEX
  5
D49
  8
0
 10
82.6112222690978086
 20
43.2752485862713669
 30
0.0
  0
VERTEX
  5
D4A
  8
0
 10
82.6065818267023531
 20
43.2769019505452803
 30
0.0
  0
VERTEX
  5
D4B
  8
0
 10
82.6018642273074875
 20
43.2783128213923618
 30
0.0
  0
VERTEX
  5
D4C
  8
0
 10
82.5970694709131124
 20
43.2794701763840877
 30
0.0
  0
VERTEX
  5
D4D
  8
0
 10
82.5922196023763036
 20
43.2803740155204721
 30
0.0
  0
VERTEX
  5
D4E
  8
0
 10
82.5873366665540516
 20
43.2810133163730768
 30
0.0
  0
VERTEX
  5
D4F
  8
0
 10
82.5824206634462854
 20
43.2813880789418022
 30
0.0
  0
VERTEX
  5
D50
  8
0
 10
82.5777251089083535
 20
43.2815093256552288
 30
0.0
  0
VERTEX
  5
D51
  8
0
 10
81.6121603729438476
 20
43.2815093256552288
 30
0.0
  0
VERTEX
  5
D52
  8
0
 10
81.3806893745961588
 20
43.2043523262060134
 30
0.0
  0
VERTEX
  5
D53
  8
0
 10
81.1822856617267803
 20
43.2043523262060134
 30
0.0
  0
VERTEX
  5
D54
  8
0
 10
81.1822856617267803
 20
43.1547513979886475
 30
0.0
  0
SEQEND
  5
D55
  8
0
  0
POLYLINE
  5
69A
  8
0
 66
     1
 10
0.0
 20
0.0
 30
0.0
 70
     1
  0
VERTEX
  5
D56
  8
0
 10
81.1321115672277813
 20
43.1547513979886475
 30
0.0
  0
VERTEX
  5
D57
  8
0
 10
81.1822856617267803
 20
43.1547513979886475
 30
0.0
  0
VERTEX
  5
D58
  8
0
 10
81.1822856617267803
 20
43.3696887535972024
 30
0.0
  0
VERTEX
  5
D59
  8
0
 10
81.3806893745961588
 20
43.3696887535972024
 30
0.0
  0
VERTEX
  5
D5A
  8
0
 10
81.6121603729438476
 20
43.2925317541479799
 30
0.0
  0
VERTEX
  5
D5B
  8
0
 10
82.5777251089083535
 20
43.2925317541479799
 30
0.0
  0
VERTEX
  5
D5C
  8
0
 10
82.5827072465870771
 20
43.2924105074345533
 30
0.0
  0
VERTEX
  5
D5D
  8
0
 10
82.5882074384049645
 20
43.2920026775803493
 30
0.0
  0
VERTEX
  5
D5E
  8
0
 10
82.5936855853658614
 20
43.2912972421567872
 30
0.0
  0
VERTEX
  5
D5F
  8
0
 10
82.5991086201842961
 20
43.2903052235924619
 30
0.0
  0
VERTEX
  5
D60
  8
0
 10
82.6044765428602261
 20
43.2890266218873023
 30
0.0
  0
VERTEX
  5
D61
  8
0
 10
82.6097673085367461
 20
43.2874614370413227
 30
0.0
  0
VERTEX
  5
D62
  8
0
 10
82.6149698947853466
 20
43.2856206914830182
 30
0.0
  0
VERTEX
  5
D63
  8
0
 10
82.6200622567489944
 20
43.2835043852124173
 30
0.0
  0
VERTEX
  5
D64
  8
0
 10
82.6250333719991943
 20
43.2811125182294774
 30
0.0
  0
VERTEX
  5
D65
  8
0
 10
82.6298722181075362
 20
43.2784671353912174
 30
0.0
  0
VERTEX
  5
D66
  8
0
 10
82.6345677726454255
 20
43.2755682366976373
 30
0.0
  0
VERTEX
  5
D67
  8
0
 10
82.6390979907559569
 20
43.2724158221487016
 30
0.0
  0
VERTEX
  5
D68
  8
0
 10
82.6434518500106066
 20
43.2690319366014577
 30
0.0
  0
VERTEX
  5
D69
  8
0
 10
82.6476183279808367
 20
43.2654276024843512
 30
0.0
  0
VERTEX
  5
D6A
  8
0
 10
82.6515974246667326
 20
43.2616028197973179
 30
0.0
  0
VERTEX
  5
D6B
  8
0
 10
82.6553560727827659
 20
43.2575686109690025
 30
0.0
  0
VERTEX
  5
D6C
  8
0
 10
82.6589052947574174
 20
43.2533359984277581
 30
0.0
  0
VERTEX
  5
D6D
  8
0
 10
82.6622120233052442
 20
43.2489270270306889
 30
0.0
  0
VERTEX
  5
D6E
  8
0
 10
82.665287280854713
 20
43.2443527192061978
 30
0.0
  0
VERTEX
  5
D6F
  8
0
 10
82.6681090225488759
 20
43.2396130749543204
 30
0.0
  0
VERTEX
  5
D70
  8
0
 10
82.6706882708161288
 20
43.23473013913204
 30
0.0
  0
VERTEX
  5
D71
  8
0
 10
82.6729919583711563
 20
43.2297149341678306
 30
0.0
  0
VERTEX
  5
D72
  8
0
 10
82.6750311076422832
 20
43.2245895049187183
 30
0.0
  0
VERTEX
  5
D73
  8
0
 10
82.6767836737726611
 20
43.2193648738131273
 30
0.0
  0
VERTEX
  5
D74
  8
0
 10
82.678271701619181
 20
43.214052063279631
 30
0.0
  0
VERTEX
  5
D75
  8
0
 10
82.6794621238963998
 20
43.208662095746682
 30
0.0
  0
VERTEX
  5
D76
  8
0
 10
82.6803659630327843
 20
43.2032170160712568
 30
0.0
  0
VERTEX
  5
D77
  8
0
 10
82.6809832190284055
 20
43.1977388691103599
 30
0.0
  0
VERTEX
  5
D78
  8
0
 10
82.6813028694546688
 20
43.1922386772924796
 30
0.0
  0
VERTEX
  5
D79
  8
0
 10
82.6813359367401546
 20
43.1867164406176087
 30
0.0
  0
VERTEX
  5
D7A
  8
0
 10
82.6813359367401546
 20
43.1547513979886475
 30
0.0
  0
VERTEX
  5
D7B
  8
0
 10
82.6879493938357939
 20
43.1547513979886475
 30
0.0
  0
VERTEX
  5
D7C
  8
0
 10
82.6879273489788176
 20
43.1935393238546297
 30
0.0
  0
VERTEX
  5
D7D
  8
0
 10
82.687530541553059
 20
43.1993922333842804
 30
0.0
  0
VERTEX
  5
D7E
  8
0
 10
82.6868251061295467
 20
43.2052230980569689
 30
0.0
  0
VERTEX
  5
D7F
  8
0
 10
82.6858000202797143
 20
43.2109988505871314
 30
0.0
  0
VERTEX
  5
D80
  8
0
 10
82.6844773288605666
 20
43.2167194909749028
 30
0.0
  0
VERTEX
  5
D81
  8
0
 10
82.6828570318721461
 20
43.2223519519346624
 30
0.0
  0
VERTEX
  5
D82
  8
0
 10
82.680928106885915
 20
43.2278962334665096
 30
0.0
  0
VERTEX
  5
D83
  8
0
 10
82.6787125987588922
 20
43.2333302907134467
 30
0.0
  0
VERTEX
  5
D84
  8
0
 10
82.676210507491021
 20
43.238643101246943
 30
0.0
  0
VERTEX
  5
D85
  8
0
 10
82.6734328555108675
 20
43.2438126202100506
 30
0.0
  0
VERTEX
  5
D86
  8
0
 10
82.6703796428183466
 20
43.2488168027457291
 30
0.0
  0
VERTEX
  5
D87
  8
0
 10
82.667061891842053
 20
43.2536666712825308
 30
0.0
  0
VERTEX
  5
D88
  8
0
 10
82.6634906250103967
 20
43.2583181361065101
 30
0.0
  0
VERTEX
  5
D89
  8
0
 10
82.659676864751944
 20
43.2627822196460698
 30
0.0
  0
VERTEX
  5
D8A
  8
0
 10
82.6556316334950623
 20
43.2670368770442622
 30
0.0
  0
VERTEX
  5
D8B
  8
0
 10
82.6513769760968842
 20
43.2710710858725776
 30
0.0
  0
VERTEX
  5
D8C
  8
0
 10
82.6469018701288149
 20
43.2748628012741108
 30
0.0
  0
VERTEX
  5
D8D
  8
0
 10
82.6422283604479162
 20
43.2784230456772505
 30
0.0
  0
VERTEX
  5
D8E
  8
0
 10
82.6373784919110932
 20
43.2817297742251128
 30
0.0
  0
VERTEX
  5
D8F
  8
0
 10
82.6323632869468838
 20
43.2847609420606005
 30
0.0
  0
VERTEX
  5
D90
  8
0
 10
82.6271827455552881
 20
43.2875385940407611
 30
0.0
  0
VERTEX
  5
D91
  8
0
 10
82.6218699350217918
 20
43.2900186404516276
 30
0.0
  0
VERTEX
  5
D92
  8
0
 10
82.6164358777748618
 20
43.2922231261501622
 30
0.0
  0
VERTEX
  5
D93
  8
0
 10
82.6108805738145549
 20
43.294130006279417
 30
0.0
  0
VERTEX
  5
D94
  8
0
 10
82.6052370904262432
 20
43.2957503032678375
 30
0.0
  0
VERTEX
  5
D95
  8
0
 10
82.5995164500384931
 20
43.2970509498299805
 30
0.0
  0
VERTEX
  5
D96
  8
0
 10
82.5937406975083093
 20
43.2980539908228508
 30
0.0
  0
VERTEX
  5
D97
  8
0
 10
82.5879098328356491
 20
43.2987484038179105
 30
0.0
  0
VERTEX
  5
D98
  8
0
 10
82.5820569233060127
 20
43.2991341888151169
 30
0.0
  0
VERTEX
  5
D99
  8
0
 10
81.6121603729438476
 20
43.2991452112436335
 30
0.0
  0
VERTEX
  5
D9A
  8
0
 10
81.3806893745961588
 20
43.4192896818145684
 30
0.0
  0
VERTEX
  5
D9B
  8
0
 10
81.1321115672277813
 20
43.4192896818145684
 30
0.0
  0
VERTEX
  5
D9C
  8
0
 10
81.1321115672277813
 20
43.1547513979886475
 30
0.0
  0
SEQEND
  5
D9D
  8
0
  0
POLYLINE
  5
69B
  8
0
 66
     1
 10
0.0
 20
0.0
 30
0.0
 70
     1
  0
VERTEX
  5
D9E
  8
0
 10
83.4473947169859827
 20
44.9018063140888515
 30
0.0
  0
VERTEX
  5
D9F
  8
0
 10
83.6678432868408777
 20
44.9018063140888515
 30
0.0
  0
VERTEX
  5
DA0
  8
0
 10
83.6678432868408777
 20
45.1222548839437678
 30
0.0
  0
VERTEX
  5
DA1
  8
0
 10
83.4473947169859827
 20
45.1222548839437678
 30
0.0
  0
VERTEX
  5
DA2
  8
0
 10
83.4473947169859827
 20
44.9018063140888515
 30
0.0
  0
SEQEND
  5
DA3
  8
0
  0
POLYLINE
  5
69C
  8
0
 66
     1
 10
0.0
 20
0.0
 30
0.0
 70
     1
  0
VERTEX
  5
DA4
  8
0
 10
83.2941829609368369
 20
39.6110406375709374
 30
0.0
  0
VERTEX
  5
DA5
  8
0
 10
83.5146315307917035
 20
39.6110406375709374
 30
0.0
  0
VERTEX
  5
DA6
  8
0
 10
83.5146315307917035
 20
39.8314892074258466
 30
0.0
  0
VERTEX
  5
DA7
  8
0
 10
83.2941829609368369
 20
39.8314892074258466
 30
0.0
  0
VERTEX
  5
DA8
  8
0
 10
83.2941829609368369
 20
39.6110406375709374
 30
0.0
  0
SEQEND
  5
DA9
  8
0
  0
POLYLINE
  5
69D
  8
0
 66
     1
 10
0.0
 20
0.0
 30
0.0
 70
     1
  0
VERTEX
  5
DAA
  8
0
 10
82.8356499356385854
 20
43.1547513979886475
 30
0.0
  0
VERTEX
  5
DAB
  8
0
 10
82.8422633927342247
 20
43.1547513979886475
 30
0.0
  0
VERTEX
  5
DAC
  8
0
 10
82.8422633927342247
 20
44.5711334593064521
 30
0.0
  0
VERTEX
  5
DAD
  8
0
 10
82.8356499356385854
 20
44.5711334593064521
 30
0.0
  0
VERTEX
  5
DAE
  8
0
 10
82.8356499356385854
 20
43.1547513979886475
 30
0.0
  0
SEQEND
  5
DAF
  8
0
  0
POLYLINE
  5
69E
  8
0
 66
     1
 10
0.0
 20
0.0
 30
0.0
 70
     1
  0
VERTEX
  5
DB0
  8
0
 10
81.1321115672277813
 20
41.9147281925547901
 30
0.0
  0
VERTEX
  5
DB1
  8
0
 10
81.1326847335094214
 20
41.9147281925547901
 30
0.0
  0
VERTEX
  5
DB2
  8
0
 10
81.1326847335094214
 20
42.1792664763806684
 30
0.0
  0
VERTEX
  5
DB3
  8
0
 10
81.1321115672277813
 20
42.1792664763806684
 30
0.0
  0
VERTEX
  5
DB4
  8
0
 10
81.1321115672277813
 20
41.9147281925547901
 30
0.0
  0
SEQEND
  5
DB5
  8
0
  0
POLYLINE
  5
6A0
  8
0
 66
     1
 10
0.0
 20
0.0
 30
0.0
 70
     1
  0
VERTEX
  5
DB6
  8
0
 10
81.8700851996740795
 20
39.6110406375709374
 30
0.0
  0
VERTEX
  5
DB7
  8
0
 10
82.0905337695289887
 20
39.6110406375709374
 30
0.0
  0
VERTEX
  5
DB8
  8
0
 10
82.0905337695289887
 20
39.8314892074258466
 30
0.0
  0
VERTEX
  5
DB9
  8
0
 10
81.8700851996740795
 20
39.8314892074258466
 30
0.0
  0
VERTEX
  5
DBA
  8
0
 10
81.8700851996740795
 20
39.6110406375709374
 30
0.0
  0
SEQEND
  5
DBB
  8
0
  0
POLYLINE
  5
6D4
  8
0
 66
     1
 10
0.0
 20
0.0
 30
0.0
 70
     1
  0
VERTEX
  5
DBC
  8
0
 10
82.3048979588559178
 20
44.9588694263957791
 30
0.0
  0
VERTEX
  5
DBD
  8
0
 10
82.0403596750300039
 20
44.9588694263957791
 30
0.0
  0
VERTEX
  5
DBE
  8
0
 10
82.0403596750300039
 20
44.710864785308992
 30
0.0
  0
VERTEX
  5
DBF
  8
0
 10
82.1605041456009246
 20
44.4793937869613529
 30
0.0
  0
VERTEX
  5
DC0
  8
0
 10
82.1605041456009246
 20
44.1043336126387331
 30
0.0
  0
VERTEX
  5
DC1
  8
0
 10
82.1671176026965782
 20
44.1043336126387331
 30
0.0
  0
VERTEX
  5
DC2
  8
0
 10
82.1671176026965782
 20
44.4793937869613529
 30
0.0
  0
VERTEX
  5
DC3
  8
0
 10
82.0899606032473912
 20
44.710864785308992
 30
0.0
  0
VERTEX
  5
DC4
  8
0
 10
82.0899606032473912
 20
44.9092684981784132
 30
0.0
  0
VERTEX
  5
DC5
  8
0
 10
82.2552970306385447
 20
44.9092684981784132
 30
0.0
  0
VERTEX
  5
DC6
  8
0
 10
82.2552970306385447
 20
44.6987401139669984
 30
0.0
  0
VERTEX
  5
DC7
  8
0
 10
82.1781400311893435
 20
44.4793937869613529
 30
0.0
  0
VERTEX
  5
DC8
  8
0
 10
82.1781400311893435
 20
44.1043336126387331
 30
0.0
  0
VERTEX
  5
DC9
  8
0
 10
82.184753488284997
 20
44.1043336126387331
 30
0.0
  0
VERTEX
  5
DCA
  8
0
 10
82.184753488284997
 20
44.4793937869613529
 30
0.0
  0
VERTEX
  5
DCB
  8
0
 10
82.3048979588559178
 20
44.710864785308992
 30
0.0
  0
VERTEX
  5
DCC
  8
0
 10
82.3048979588559178
 20
44.9588694263957791
 30
0.0
  0
SEQEND
  5
DCD
  8
0
  0
POLYLINE
  5
6D5
  8
0
 66
     1
 10
0.0
 20
0.0
 30
0.0
 70
     1
  0
VERTEX
  5
DCE
  8
0
 10
82.184753488284997
 20
44.1043336126387331
 30
0.0
  0
VERTEX
  5
DCF
  8
0
 10
82.1781400311893435
 20
44.1043336126387331
 30
0.0
  0
VERTEX
  5
DD0
  8
0
 10
82.1784927489011068
 20
44.0962211052680289
 30
0.0
  0
VERTEX
  5
DD1
  8
0
 10
82.179550902036425
 20
44.0881637100398507
 30
0.0
  0
VERTEX
  5
DD2
  8
0
 10
82.1813144905952555
 20
44.080227561525092
 30
0.0
  0
VERTEX
  5
DD3
  8
0
 10
82.183761469720622
 20
44.0724787942946605
 30
0.0
  0
VERTEX
  5
DD4
  8
0
 10
82.186869794555605
 20
44.0649725204911107
 30
0.0
  0
VERTEX
  5
DD5
  8
0
 10
82.1906174202431288
 20
44.0577638522568691
 30
0.0
  0
VERTEX
  5
DD6
  8
0
 10
82.1949823019262453
 20
44.0509079017343765
 30
0.0
  0
VERTEX
  5
DD7
  8
0
 10
82.1999313723194831
 20
44.0444597810661023
 30
0.0
  0
VERTEX
  5
DD8
  8
0
 10
82.2054205417089037
 20
44.0384746023945368
 30
0.0
  0
VERTEX
  5
DD9
  8
0
 10
82.2114057203804549
 20
44.0329854330051589
 30
0.0
  0
VERTEX
  5
DDA
  8
0
 10
82.2178538410487079
 20
44.0280363626118998
 30
0.0
  0
VERTEX
  5
DDB
  8
0
 10
82.2247097915712146
 20
44.0236714809287975
 30
0.0
  0
VERTEX
  5
DDC
  8
0
 10
82.2319184598054704
 20
44.0199238552412311
 30
0.0
  0
VERTEX
  5
DDD
  8
0
 10
82.2394247336089848
 20
44.016815530406312
 30
0.0
  0
VERTEX
  5
DDE
  8
0
 10
82.2471735008393949
 20
44.0143685512809313
 30
0.0
  0
VERTEX
  5
DDF
  8
0
 10
82.255109649354182
 20
44.0126049627220297
 30
0.0
  0
VERTEX
  5
DE0
  8
0
 10
82.2631670445823886
 20
44.011546809586747
 30
0.0
  0
VERTEX
  5
DE1
  8
0
 10
82.2712795519530289
 20
44.0111940918750193
 30
0.0
  0
VERTEX
  5
DE2
  8
0
 10
82.3043468374312539
 20
44.0111940918750193
 30
0.0
  0
VERTEX
  5
DE3
  8
0
 10
82.3043468374312539
 20
44.0178075489706302
 30
0.0
  0
VERTEX
  5
DE4
  8
0
 10
82.2712795519530289
 20
44.0178075489706302
 30
0.0
  0
VERTEX
  5
DE5
  8
0
 10
82.2637402108640003
 20
44.0181382218254171
 30
0.0
  0
VERTEX
  5
DE6
  8
0
 10
82.2562559819174339
 20
44.0191192179612969
 30
0.0
  0
VERTEX
  5
DE7
  8
0
 10
82.2488819772557633
 20
44.0207615598067008
 30
0.0
  0
VERTEX
  5
DE8
  8
0
 10
82.2416843314500312
 20
44.0230211576476833
 30
0.0
  0
VERTEX
  5
DE9
  8
0
 10
82.2347071342141049
 20
44.0259200563413273
 30
0.0
  0
VERTEX
  5
DEA
  8
0
 10
82.2280165201189988
 20
44.0294031437450428
 30
0.0
  0
VERTEX
  5
DEB
  8
0
 10
82.2216455564501842
 20
44.033459397430363
 30
0.0
  0
VERTEX
  5
DEC
  8
0
 10
82.2156603777786472
 20
44.0380557501118588
 30
0.0
  0
VERTEX
  5
DED
  8
0
 10
82.2100940513898024
 20
44.0431481120754711
 30
0.0
  0
VERTEX
  5
DEE
  8
0
 10
82.2050016894261546
 20
44.0487144384643088
 30
0.0
  0
VERTEX
  5
DEF
  8
0
 10
82.2004053367446943
 20
44.0546996171358671
 30
0.0
  0
VERTEX
  5
DF0
  8
0
 10
82.1963490830593742
 20
44.0610705808046816
 30
0.0
  0
VERTEX
  5
DF1
  8
0
 10
82.1928549732271563
 20
44.0677611948997594
 30
0.0
  0
VERTEX
  5
DF2
  8
0
 10
82.189967096962036
 20
44.074738392135643
 30
0.0
  0
VERTEX
  5
DF3
  8
0
 10
82.1877074991210606
 20
44.0819360379414533
 30
0.0
  0
VERTEX
  5
DF4
  8
0
 10
82.1860651572756353
 20
44.08931004260306
 30
0.0
  0
VERTEX
  5
DF5
  8
0
 10
82.1850841611397556
 20
44.096794271549669
 30
0.0
  0
VERTEX
  5
DF6
  8
0
 10
82.184753488284997
 20
44.1043336126387331
 30
0.0
  0
SEQEND
  5
DF7
  8
0
  0
POLYLINE
  5
6D6
  8
0
 66
     1
 10
0.0
 20
0.0
 30
0.0
 70
     1
  0
VERTEX
  5
DF8
  8
0
 10
82.3043468374312539
 20
43.9935582062866075
 30
0.0
  0
VERTEX
  5
DF9
  8
0
 10
82.3043468374312539
 20
44.0001716633822468
 30
0.0
  0
VERTEX
  5
DFA
  8
0
 10
82.2712795519530289
 20
44.0001716633822468
 30
0.0
  0
VERTEX
  5
DFB
  8
0
 10
82.2621970708750041
 20
44.0005684708080267
 30
0.0
  0
VERTEX
  5
DFC
  8
0
 10
82.253191746796432
 20
44.0017588930852313
 30
0.0
  0
VERTEX
  5
DFD
  8
0
 10
82.2443186918597462
 20
44.0037208853569268
 30
0.0
  0
VERTEX
  5
DFE
  8
0
 10
82.2356550630644847
 20
44.0064544476231418
 30
0.0
  0
VERTEX
  5
DFF
  8
0
 10
82.2272559725530101
 20
44.0099265125983266
 30
0.0
  0
VERTEX
  5
E00
  8
0
 10
82.2191985773248319
 20
44.014126057854071
 30
0.0
  0
VERTEX
  5
E01
  8
0
 10
82.2115379895223271
 20
44.0190089936763727
 30
0.0
  0
VERTEX
  5
E02
  8
0
 10
82.2043293212880997
 20
44.0245422527797103
 30
0.0
  0
VERTEX
  5
E03
  8
0
 10
82.1976276847645551
 20
44.0306817454501811
 30
0.0
  0
VERTEX
  5
E04
  8
0
 10
82.1914881920940417
 20
44.0373833819737328
 30
0.0
  0
VERTEX
  5
E05
  8
0
 10
82.1859549329906969
 20
44.0445920502080384
 30
0.0
  0
VERTEX
  5
E06
  8
0
 10
82.1810719971684307
 20
44.0522526380104935
 30
0.0
  0
VERTEX
  5
E07
  8
0
 10
82.1768724519126437
 20
44.0603100332386504
 30
0.0
  0
VERTEX
  5
E08
  8
0
 10
82.173400386937459
 20
44.0687091237501178
 30
0.0
  0
VERTEX
  5
E09
  8
0
 10
82.1706668246712439
 20
44.0773727525454504
 30
0.0
  0
VERTEX
  5
E0A
  8
0
 10
82.1687048323995413
 20
44.0862458074820793
 30
0.0
  0
VERTEX
  5
E0B
  8
0
 10
82.1675144101223509
 20
44.0952511315606728
 30
0.0
  0
VERTEX
  5
E0C
  8
0
 10
82.1671176026965782
 20
44.1043336126387331
 30
0.0
  0
VERTEX
  5
E0D
  8
0
 10
82.1605041456009246
 20
44.1043336126387331
 30
0.0
  0
VERTEX
  5
E0E
  8
0
 10
82.1609229978836595
 20
44.0946779652790681
 30
0.0
  0
VERTEX
  5
E0F
  8
0
 10
82.1621905771603451
 20
44.0850994749188487
 30
0.0
  0
VERTEX
  5
E10
  8
0
 10
82.1642738161454531
 20
44.075664276129082
 30
0.0
  0
VERTEX
  5
E11
  8
0
 10
82.1671837372675355
 20
44.0664495259091282
 30
0.0
  0
VERTEX
  5
E12
  8
0
 10
82.1708872732411066
 20
44.0575213588300016
 30
0.0
  0
VERTEX
  5
E13
  8
0
 10
82.1753403343521853
 20
44.0489459094626383
 30
0.0
  0
VERTEX
  5
E14
  8
0
 10
82.1805429206007574
 20
44.0408003348065122
 30
0.0
  0
VERTEX
  5
E15
  8
0
 10
82.1864178749873844
 20
44.0331287245755902
 30
0.0
  0
VERTEX
  5
E16
  8
0
 10
82.192954175083571
 20
44.0260082357692397
 30
0.0
  0
VERTEX
  5
E17
  8
0
 10
82.2000746638898931
 20
44.0194719356730602
 30
0.0
  0
VERTEX
  5
E18
  8
0
 10
82.2077462741208507
 20
44.0135969812864332
 30
0.0
  0
VERTEX
  5
E19
  8
0
 10
82.2158918487769768
 20
44.0083943950378469
 30
0.0
  0
VERTEX
  5
E1A
  8
0
 10
82.2244672981443614
 20
44.0039413339267682
 30
0.0
  0
VERTEX
  5
E1B
  8
0
 10
82.2333954652234382
 20
44.0002377979532184
 30
0.0
  0
VERTEX
  5
E1C
  8
0
 10
82.2426102154434062
 20
43.9973278768311218
 30
0.0
  0
VERTEX
  5
E1D
  8
0
 10
82.2520454142331801
 20
43.9952446378459925
 30
0.0
  0
VERTEX
  5
E1E
  8
0
 10
82.2616239045933639
 20
43.9939770585693566
 30
0.0
  0
VERTEX
  5
E1F
  8
0
 10
82.2712795519530289
 20
43.9935582062866075
 30
0.0
  0
VERTEX
  5
E20
  8
0
 10
82.3043468374312539
 20
43.9935582062866075
 30
0.0
  0
SEQEND
  5
E21
  8
0
  0
POLYLINE
  5
6D7
  8
0
 66
     1
 10
0.0
 20
0.0
 30
0.0
 70
     1
  0
VERTEX
  5
E22
  8
0
 10
82.6636780062947878
 20
44.0001716633822468
 30
0.0
  0
VERTEX
  5
E23
  8
0
 10
82.3043468374312539
 20
44.0001716633822468
 30
0.0
  0
VERTEX
  5
E24
  8
0
 10
82.3043468374312539
 20
43.9935582062866075
 30
0.0
  0
VERTEX
  5
E25
  8
0
 10
82.6636780062947878
 20
43.9935582062866075
 30
0.0
  0
VERTEX
  5
E26
  8
0
 10
82.6711732576698353
 20
43.9932275334318419
 30
0.0
  0
VERTEX
  5
E27
  8
0
 10
82.6786133969024633
 20
43.9922575597244503
 30
0.0
  0
VERTEX
  5
E28
  8
0
 10
82.6859322894216291
 20
43.9906262403075274
 30
0.0
  0
VERTEX
  5
E29
  8
0
 10
82.6930858455134228
 20
43.9883776648950331
 30
0.0
  0
VERTEX
  5
E2A
  8
0
 10
82.7000079306068585
 20
43.9855008110584365
 30
0.0
  0
VERTEX
  5
E2B
  8
0
 10
82.7066654774164647
 20
43.9820397685116689
 30
0.0
  0
VERTEX
  5
E2C
  8
0
 10
82.7129923513713265
 20
43.9780055596833392
 30
0.0
  0
VERTEX
  5
E2D
  8
0
 10
82.7189444627574062
 20
43.973442274287379
 30
0.0
  0
VERTEX
  5
E2E
  8
0
 10
82.7244666994322841
 20
43.968371957180679
 30
0.0
  0
VERTEX
  5
E2F
  8
0
 10
82.7295370165389556
 20
43.9628497205058011
 30
0.0
  0
VERTEX
  5
E30
  8
0
 10
82.7341003019349444
 20
43.9568976091197499
 30
0.0
  0
VERTEX
  5
E31
  8
0
 10
82.738134510763274
 20
43.9505707351649306
 30
0.0
  0
VERTEX
  5
E32
  8
0
 10
82.7415955533099776
 20
43.9439131883553102
 30
0.0
  0
VERTEX
  5
E33
  8
0
 10
82.7444724071465743
 20
43.936991103261839
 30
0.0
  0
VERTEX
  5
E34
  8
0
 10
82.7467209825591254
 20
43.9298375471700311
 30
0.0
  0
VERTEX
  5
E35
  8
0
 10
82.7483412795475743
 20
43.9225186546508723
 30
0.0
  0
VERTEX
  5
E36
  8
0
 10
82.7493222756833973
 20
43.9150785154183012
 30
0.0
  0
VERTEX
  5
E37
  8
0
 10
82.7496529485382126
 20
43.9075832640432182
 30
0.0
  0
VERTEX
  5
E38
  8
0
 10
82.7496529485382126
 20
42.0590117815248377
 30
0.0
  0
VERTEX
  5
E39
  8
0
 10
82.7739022912222708
 20
42.0590999609527785
 30
0.0
  0
VERTEX
  5
E3A
  8
0
 10
82.7739022912222708
 20
43.9075832640432182
 30
0.0
  0
VERTEX
  5
E3B
  8
0
 10
82.7734834389395076
 20
43.9171948216888666
 30
0.0
  0
VERTEX
  5
E3C
  8
0
 10
82.7722268820913456
 20
43.9267181999066096
 30
0.0
  0
VERTEX
  5
E3D
  8
0
 10
82.7701436431062092
 20
43.9361093089824379
 30
0.0
  0
VERTEX
  5
E3E
  8
0
 10
82.7672557668411173
 20
43.9452799694883467
 30
0.0
  0
VERTEX
  5
E3F
  8
0
 10
82.7635742757245367
 20
43.9541640468535633
 30
0.0
  0
VERTEX
  5
E40
  8
0
 10
82.7591322370419675
 20
43.96269540650691
 30
0.0
  0
VERTEX
  5
E41
  8
0
 10
82.7539627180788813
 20
43.9708079138775716
 30
0.0
  0
VERTEX
  5
E42
  8
0
 10
82.7481098085492306
 20
43.9784354343945623
 30
0.0
  0
VERTEX
  5
E43
  8
0
 10
82.7416175981670108
 20
43.9855228559154128
 30
0.0
  0
VERTEX
  5
E44
  8
0
 10
82.7345301766461603
 20
43.9920150662976184
 30
0.0
  0
VERTEX
  5
E45
  8
0
 10
82.7269026561291554
 20
43.997867975827269
 30
0.0
  0
VERTEX
  5
E46
  8
0
 10
82.7187901487585151
 20
44.0030374947903482
 30
0.0
  0
VERTEX
  5
E47
  8
0
 10
82.7102587891051257
 20
44.00747953347296
 30
0.0
  0
VERTEX
  5
E48
  8
0
 10
82.7013747117399731
 20
44.0111610245895193
 30
0.0
  0
VERTEX
  5
E49
  8
0
 10
82.6922040512340004
 20
44.0140489008546396
 30
0.0
  0
VERTEX
  5
E4A
  8
0
 10
82.6828129421582076
 20
44.0161321398397689
 30
0.0
  0
VERTEX
  5
E4B
  8
0
 10
82.6732895639404433
 20
44.0173886966879166
 30
0.0
  0
VERTEX
  5
E4C
  8
0
 10
82.6636780062947878
 20
44.0178075489706302
 30
0.0
  0
VERTEX
  5
E4D
  8
0
 10
82.3043468374312539
 20
44.0178075489706302
 30
0.0
  0
VERTEX
  5
E4E
  8
0
 10
82.3043468374312539
 20
44.0111940918750193
 30
0.0
  0
VERTEX
  5
E4F
  8
0
 10
82.6636780062947878
 20
44.0111940918750193
 30
0.0
  0
VERTEX
  5
E50
  8
0
 10
82.6727053752303505
 20
44.0107972844492892
 30
0.0
  0
VERTEX
  5
E51
  8
0
 10
82.6816666095949131
 20
44.0096178846005017
 30
0.0
  0
VERTEX
  5
E52
  8
0
 10
82.6904955748176178
 20
44.0076669147573085
 30
0.0
  0
VERTEX
  5
E53
  8
0
 10
82.6991151138989551
 20
44.0049443749196101
 30
0.0
  0
VERTEX
  5
E54
  8
0
 10
82.7074701146964628
 20
44.0014833323728922
 30
0.0
  0
VERTEX
  5
E55
  8
0
 10
82.7154834202107025
 20
43.9973168544026407
 30
0.0
  0
VERTEX
  5
E56
  8
0
 10
82.7231109407276648
 20
43.9924559634373225
 30
0.0
  0
VERTEX
  5
E57
  8
0
 10
82.7302755192479395
 20
43.9869557716194421
 30
0.0
  0
VERTEX
  5
E58
  8
0
 10
82.7369440884860694
 20
43.9808493462344785
 30
0.0
  0
VERTEX
  5
E59
  8
0
 10
82.7430505138710259
 20
43.9741807769963629
 30
0.0
  0
VERTEX
  5
E5A
  8
0
 10
82.7485507056889134
 20
43.967016198476081
 30
0.0
  0
VERTEX
  5
E5B
  8
0
 10
82.7534115966542316
 20
43.9593886779590903
 30
0.0
  0
VERTEX
  5
E5C
  8
0
 10
82.757578074624476
 20
43.9513753724448719
 30
0.0
  0
VERTEX
  5
E5D
  8
0
 10
82.7610391171711939
 20
43.9430203716473713
 30
0.0
  0
VERTEX
  5
E5E
  8
0
 10
82.7637616570089278
 20
43.9344008325660482
 30
0.0
  0
VERTEX
  5
E5F
  8
0
 10
82.765712626852121
 20
43.9255718673433506
 30
0.0
  0
VERTEX
  5
E60
  8
0
 10
82.7668920267008446
 20
43.9166106329787382
 30
0.0
  0
VERTEX
  5
E61
  8
0
 10
82.7672888341266031
 20
43.9075832640432182
 30
0.0
  0
VERTEX
  5
E62
  8
0
 10
82.7672888341266031
 20
42.1037628412053877
 30
0.0
  0
VERTEX
  5
E63
  8
0
 10
82.7562664056338662
 20
42.1037628412053877
 30
0.0
  0
VERTEX
  5
E64
  8
0
 10
82.7562664056338662
 20
43.9075832640432182
 30
0.0
  0
VERTEX
  5
E65
  8
0
 10
82.7559136879220887
 20
43.9156516816998774
 30
0.0
  0
VERTEX
  5
E66
  8
0
 10
82.7548555347867705
 20
43.9236649872140887
 30
0.0
  0
VERTEX
  5
E67
  8
0
 10
82.7531139910849163
 20
43.9315460235864279
 30
0.0
  0
VERTEX
  5
E68
  8
0
 10
82.7506780343880308
 20
43.9392507011028286
 30
0.0
  0
VERTEX
  5
E69
  8
0
 10
82.7475917544100525
 20
43.94671288519244
 30
0.0
  0
VERTEX
  5
E6A
  8
0
 10
82.7438661735795193
 20
43.9538774637127219
 30
0.0
  0
VERTEX
  5
E6B
  8
0
 10
82.7395233367533507
 20
43.9606893245212333
 30
0.0
  0
VERTEX
  5
E6C
  8
0
 10
82.7346073336455845
 20
43.9670933554755123
 30
0.0
  0
VERTEX
  5
E6D
  8
0
 10
82.7291512315416782
 20
43.9730564892900802
 30
0.0
  0
VERTEX
  5
E6E
  8
0
 10
82.7231880977271032
 20
43.9785125913939865
 30
0.0
  0
VERTEX
  5
E6F
  8
0
 10
82.716784066772874
 20
43.9834285945017669
 30
0.0
  0
VERTEX
  5
E70
  8
0
 10
82.7099722059643341
 20
43.9877714313279213
 30
0.0
  0
VERTEX
  5
E71
  8
0
 10
82.7028076274440451
 20
43.9914970121584616
 30
0.0
  0
VERTEX
  5
E72
  8
0
 10
82.6953454433544408
 20
43.9945832921363902
 30
0.0
  0
VERTEX
  5
E73
  8
0
 10
82.6876407658380259
 20
43.997019248833297
 30
0.0
  0
VERTEX
  5
E74
  8
0
 10
82.6797597294656725
 20
43.9987607925351512
 30
0.0
  0
VERTEX
  5
E75
  8
0
 10
82.671746423951447
 20
43.999818945670512
 30
0.0
  0
VERTEX
  5
E76
  8
0
 10
82.6636780062947878
 20
44.0001716633822468
 30
0.0
  0
SEQEND
  5
E77
  8
0
  0
LINE
  5
79E
  8
1
  6
CONTINUOUS
 62
    12
 10
82.0931424717716567
 20
37.2350514503805883
 30
0.0
 11
82.0931424717716567
 21
37.2350514503805883
 31
0.0
  0
LINE
  5
7D2
  8
1
  6
CONTINUOUS
 62
    12
 10
77.1905453935716821
 20
40.0292777643806019
 30
0.0
 11
77.1905453935716821
 21
40.0546798217805886
 31
0.0
  0
LINE
  5
846
  8
1
  6
CONTINUOUS
 10
82.7586980478231169
 20
45.2939859870020811
 30
0.0
 11
82.8857083348231356
 21
45.2939859870020811
 31
0.0
  0
LINE
  5
87F
  8
1
  6
CONTINUOUS
 62
    12
 10
79.1465038133716519
 20
42.010638241580601
 30
0.0
 11
80.8992457739716855
 21
42.0098893001857903
 31
0.0
  0
LINE
  5
88F
  8
1
  6
CONTINUOUS
 62
    12
 10
87.1735539517678149
 20
34.6948457103805978
 30
0.0
 11
82.0931424717678055
 21
34.6948457103805978
 31
0.0
  0
LINE
  5
891
  8
1
  6
CONTINUOUS
 62
    12
 10
82.0931424717716567
 20
34.6948457103805978
 30
0.0
 11
70.1787385477804833
 21
34.7035429058992335
 31
0.0
  0
ARC
  5
892
  8
1
  6
CONTINUOUS
 62
    12
 10
70.34469092427166
 20
36.282474297880583
 30
0.0
 40
1.5876285874999769
 50
180.0000000000007958
 51
264.0000000000014779
  0
LINE
  5
893
  8
1
  6
CONTINUOUS
 62
    12
 10
68.7570623367716678
 20
36.282474297880583
 30
0.0
 11
68.7570623367716678
 21
37.4255668808806021
 31
0.0
  0
LINE
  5
8B2
  8
1
 10
84.327891088921163
 20
47.3937324398252073
 30
0.0
 11
84.327891088921163
 21
47.3937324398252073
 31
0.0
  0
LINE
  5
8BE
  8
1
 10
95.8561285759981843
 20
38.035278448017678
 30
0.0
 11
92.4615149029358747
 21
38.035278448017678
 31
0.0
  0
LINE
  5
8BF
  8
1
 10
95.8561285759981843
 20
38.035278448017678
 30
0.0
 11
96.5951232839857994
 21
38.4014843515288078
 31
0.0
  0
LINE
  5
8C0
  8
1
 10
96.5951232839857994
 20
38.4014843515288078
 30
0.0
 11
100.509634086771598
 21
38.4014843515288078
 31
0.0
  0
LINE
  5
8C1
  8
1
 10
90.8304584654066076
 20
39.6644924256850331
 30
0.0
 11
90.830458465406636
 21
45.413723752851908
 31
0.0
  0
LINE
  5
8C2
  8
1
 10
88.6467699989638334
 20
47.5994983630536126
 30
0.0
 11
84.5869957541393802
 21
47.5994983630536126
 31
0.0
  0
ARC
  5
8C3
  8
1
 10
88.6467699989638334
 20
45.4158089010836932
 30
0.0
 40
2.1836894619699359
 50
359.9452897430808775
 51
90.0
  0
LINE
  5
8C4
  8
1
 10
82.6810303339020152
 20
45.2939859870020811
 30
0.0
 11
82.1572038100239297
 21
45.2939859870020811
 31
0.0
  0
ARC
  5
8C6
  8
1
 10
92.4596734837057568
 20
39.6644924256850331
 30
0.0
 40
1.629215018299121
 50
180.0
 51
270.0647585318570805
  0
LINE
  5
8C7
  8
1
  6
CONTINUOUS
 62
    12
 10
70.3446909242716032
 20
50.698141872380603
 30
0.0
 11
98.9220054992717337
 21
50.698141872380603
 31
0.0
  0
LINE
  5
8D7
  8
1
  6
CONTINUOUS
 62
    12
 10
100.509634086771598
 20
49.1105132848805894
 30
0.0
 11
100.509634086771598
 21
47.9674207018805774
 31
0.0
  0
LINE
  5
8DA
  8
1
  6
CONTINUOUS
 62
    12
 10
81.880892092039133
 20
45.2939859870020811
 30
0.0
 11
81.3504992287725202
 21
45.2939859870020811
 31
0.0
  0
LINE
  5
8DB
  8
1
  6
CONTINUOUS
 62
    12
 10
81.3504992287725202
 20
45.2939859870020811
 30
0.0
 11
80.8992457739716855
 21
45.2939859870020811
 31
0.0
  0
LINE
  5
8DC
  8
1
  6
CONTINUOUS
 62
    12
 10
80.8992457739716855
 20
45.2939859870020811
 30
0.0
 11
80.8992457739716855
 21
43.4227506282546329
 31
0.0
  0
LINE
  5
8DD
  8
1
  6
CONTINUOUS
 62
    12
 10
80.8992457739716855
 20
43.4227506282546329
 30
0.0
 11
80.8992457739716855
 21
45.2939859870020811
 31
0.0
  0
LINE
  5
8DE
  8
1
  6
CONTINUOUS
 62
    12
 10
80.8992457739716855
 20
45.2939859870020811
 30
0.0
 11
80.8992457739716855
 21
43.4227506282546329
 31
0.0
  0
LINE
  5
8DF
  8
1
  6
CONTINUOUS
 62
    12
 10
80.8992457739716855
 20
43.4227506282546329
 30
0.0
 11
79.3399015198519919
 21
43.42299263302057
 31
0.0
  0
LINE
  5
8E0
  8
1
  6
CONTINUOUS
 62
    12
 10
79.3399015198519919
 20
43.42299263302057
 30
0.0
 11
79.1465038133716519
 21
43.42299263302057
 31
0.0
  0
LINE
  5
8FF
  8
1
  6
CONTINUOUS
 62
    12
 10
76.8848348359653357
 20
45.6944562110103973
 30
0.0
 11
76.8822238882031712
 21
45.7941642833529485
 31
0.0
  0
LINE
  5
91D
  8
1
  6
CONTINUOUS
 62
    12
 10
74.9796805309653251
 20
47.5996105160104079
 30
0.0
 11
74.6387785655291367
 21
47.5996105160104079
 31
0.0
  0
LINE
  5
91E
  8
1
  6
CONTINUOUS
 62
    12
 10
74.6387785655291367
 20
47.5996105160104079
 30
0.0
 11
74.112382920257204
 21
47.5990908695805928
 31
0.0
  0
LINE
  5
91F
  8
1
  6
CONTINUOUS
 62
    12
 10
74.112382920257204
 20
47.5990908695805928
 30
0.0
 11
73.3294326687716875
 21
47.5990908695805928
 31
0.0
  0
LINE
  5
920
  8
1
  6
CONTINUOUS
 62
    12
 10
73.3294326687716875
 20
47.5990908695805928
 30
0.0
 11
72.5673709467716606
 21
47.9674207018805916
 31
0.0
  0
LINE
  5
921
  8
1
  6
CONTINUOUS
 62
    12
 10
72.5673709467716606
 20
47.9674207018805916
 30
0.0
 11
68.7570623367716678
 21
47.9674207018805916
 31
0.0
  0
LINE
  5
922
  8
1
  6
CONTINUOUS
 62
    12
 10
68.7570623367716678
 20
47.9674207018805916
 30
0.0
 11
68.7570623367716678
 21
49.1105132848805965
 31
0.0
  0
LINE
  5
932
  8
1
  6
CONTINUOUS
 62
    12
 10
70.3446909242716032
 20
50.698141872380603
 30
0.0
 11
98.9220054992717337
 21
50.698141872380603
 31
0.0
  0
ARC
  5
935
  8
1
 10
70.3446909242716032
 20
49.1105132848806321
 30
0.0
 40
1.5876285874999461
 50
90.0
 51
180.0000000000019895
  0
ARC
  5
93D
  8
1
 10
74.9796805309653251
 20
45.6945617752159876
 30
0.0
 40
1.9050487407944381
 50
2.8768775102769939
 51
90.0
  0
ARC
  5
93F
  8
1
 10
79.1563196226734647
 20
45.6944562110103973
 30
0.0
 40
2.2714847867081391
 50
180.0
 51
269.7524059156480121
  0
ARC
  5
940
  8
1
 10
98.9220054992717337
 20
49.1105132848806605
 30
0.0
 40
1.5876285874999321
 50
359.9999999999976126
 51
90.0
  0
LINE
  5
957
  8
1
  6
CONTINUOUS
 10
84.5869957541393802
 20
47.3960648864927521
 30
0.0
 11
88.6467699989638334
 21
47.3960648864927521
 31
0.0
  0
ARC
  5
958
  8
1
  6
CONTINUOUS
 10
88.6467699989638334
 20
45.4140417817688302
 30
0.0
 40
1.9820231047238981
 50
359.9908065073818193
 51
90.0
  0
LINE
  5
959
  8
1
  6
CONTINUOUS
 10
90.6287930781727624
 20
45.413723752851908
 30
0.0
 11
90.6287930781727766
 21
39.6644924256850331
 31
0.0
  0
ARC
  5
95A
  8
1
  6
CONTINUOUS
 10
92.4615149029358747
 20
39.6714187246805281
 30
0.0
 40
1.832734912795837
 50
180.2165335761237088
 51
270.0
  0
LINE
  5
95B
  8
1
  6
CONTINUOUS
 10
92.4615149029358747
 20
37.8386838118847066
 30
0.0
 11
95.937263754771692
 21
37.8386838118847066
 31
0.0
  0
LINE
  5
961
  8
1
  6
CONTINUOUS
 10
95.9372637547716636
 20
37.9656940988846827
 30
0.0
 11
92.4615149029358747
 21
37.9656940988846827
 31
0.0
  0
ARC
  5
962
  8
1
  6
CONTINUOUS
 10
92.4536515406009443
 20
39.6644924256850331
 30
0.0
 40
1.6988165255868071
 50
180.0
 51
270.2652076175430125
  0
LINE
  5
963
  8
1
  6
CONTINUOUS
 10
90.7548350150141658
 20
39.6644924256850331
 30
0.0
 11
90.7548350150141658
 21
45.413723752851908
 31
0.0
  0
ARC
  5
964
  8
1
  6
CONTINUOUS
 10
88.6467699989638334
 20
45.4150097651804288
 30
0.0
 40
2.1080654083123371
 50
359.9650470601609982
 51
90.0
  0
LINE
  5
965
  8
1
  6
CONTINUOUS
 10
88.6467699989638334
 20
47.5230751734927495
 30
0.0
 11
84.5869957541393802
 21
47.5230751734927495
 31
0.0
  0
POLYLINE
  5
966
  8
1
  6
CONTINUOUS
 66
     1
 10
0.0
 20
0.0
 30
0.0
  0
VERTEX
  5
E78
  8
1
  6
CONTINUOUS
 10
95.937263754771692
 20
37.8386838118847066
 30
0.0
  0
VERTEX
  5
E79
  8
1
  6
CONTINUOUS
 10
96.6993254767716621
 20
37.6989724961846733
 30
0.0
  0
VERTEX
  5
E7A
  8
1
  6
CONTINUOUS
 10
100.509634086771598
 20
37.6989724961846733
 30
0.0
  0
VERTEX
  5
E7B
  8
1
  6
CONTINUOUS
 10
100.509634086771598
 20
38.1054054145847232
 30
0.0
  0
VERTEX
  5
E7C
  8
1
  6
CONTINUOUS
 10
96.6993254767716621
 20
38.1054054145847232
 30
0.0
  0
VERTEX
  5
E7D
  8
1
  6
CONTINUOUS
 10
95.9372637547716636
 20
37.9656940988846827
 30
0.0
  0
SEQEND
  5
E7E
  8
1
  6
CONTINUOUS
  0
POLYLINE
  5
976
  8
1
  6
CONTINUOUS
 66
     1
 10
0.0
 20
0.0
 30
0.0
  0
VERTEX
  5
E7F
  8
1
  6
CONTINUOUS
 10
95.937263754771692
 20
47.3948719650687877
 30
0.0
  0
VERTEX
  5
E80
  8
1
  6
CONTINUOUS
 10
96.6993254767716621
 20
47.2551606493687828
 30
0.0
  0
VERTEX
  5
E81
  8
1
  6
CONTINUOUS
 10
100.509634086771598
 20
47.2551606493687828
 30
0.0
  0
VERTEX
  5
E82
  8
1
  6
CONTINUOUS
 10
100.509634086771598
 20
47.6615935677687972
 30
0.0
  0
VERTEX
  5
E83
  8
1
  6
CONTINUOUS
 10
96.6993254767716621
 20
47.6615935677687972
 30
0.0
  0
VERTEX
  5
E84
  8
1
  6
CONTINUOUS
 10
95.9372637547716636
 20
47.5218822520687993
 30
0.0
  0
SEQEND
  5
E85
  8
1
  6
CONTINUOUS
  0
ARC
  5
977
  8
1
 10
70.34469092427166
 20
36.2824742978806114
 30
0.0
 40
1.5876285874999989
 50
180.0
 51
270.0
  0
LINE
  5
97A
  8
1
 10
82.0931424717678055
 20
34.6948457103805978
 30
0.0
 11
87.1735539517678149
 21
34.6948457103805978
 31
0.0
  0
LINE
  5
97C
  8
1
 10
87.1735539517716802
 20
34.6948457103805978
 30
0.0
 11
98.9220054992716769
 21
34.6948457103805978
 31
0.0
  0
ARC
  5
97D
  8
1
 10
98.9220054992716769
 20
36.2824742978806114
 30
0.0
 40
1.587628587499998
 50
270.0
 51
353.9999999999990905
  0
LINE
  5
97E
  8
1
 10
100.500936891253005
 20
36.1165219213894133
 30
0.0
 11
100.509634086771598
 21
37.3773702926901024
 31
0.0
  0
LINE
  5
980
  8
1
 10
100.509634086771598
 20
37.3934068184845003
 30
0.0
 11
96.5951232839857994
 21
37.3934068184845003
 31
0.0
  0
LINE
  5
981
  8
1
 10
96.5951232839857994
 20
37.3934068184845003
 30
0.0
 11
95.8561285759981843
 21
37.7557872450977214
 31
0.0
  0
LINE
  5
982
  8
1
 10
95.8561285759981843
 20
37.7557872450977214
 30
0.0
 11
92.4615149029358747
 21
37.7557872450977214
 31
0.0
  0
ARC
  5
983
  8
1
 10
92.4615149029358747
 20
39.6644924256850331
 30
0.0
 40
1.9087051805873061
 50
180.0
 51
270.0
  0
LINE
  5
984
  8
1
 10
90.552809722348556
 20
39.6644924256850331
 30
0.0
 11
90.552809722348556
 21
45.413723752851908
 31
0.0
  0
ARC
  5
985
  8
1
 10
88.6467699989638334
 20
45.413723752851908
 30
0.0
 40
1.906039723384749
 50
0.0
 51
90.0
  0
LINE
  5
986
  8
1
 10
88.6467699989638334
 20
47.3197634762366732
 30
0.0
 11
84.5869957541393802
 21
47.3198587142927494
 31
0.0
  0
LINE
  5
989
  8
1
 10
82.962695449365583
 20
45.2939859870020811
 30
0.0
 11
89.0538258719607256
 21
45.2939859870020811
 31
0.0
  0
LINE
  5
98A
  8
1
 10
89.0538258719607256
 20
45.2939859870020882
 30
0.0
 11
89.0538258719607256
 21
39.1463608505073424
 31
0.0
  0
LINE
  5
98B
  8
1
 10
89.0538258719607256
 20
39.1463608505073424
 30
0.0
 11
80.9034941144048361
 21
39.1463608505073424
 31
0.0
  0
LINE
  5
98C
  8
1
 10
80.9034941144048361
 20
39.1463608505073424
 30
0.0
 11
80.8992457739716855
 21
42.0098893001857903
 31
0.0
  0
LINE
  5
98D
  8
1
 10
80.8992457739716855
 20
42.0098893001857903
 30
0.0
 11
79.1465038133716519
 21
42.010638241580601
 31
0.0
  0
ARC
  5
98E
  8
1
 10
79.1465038133716519
 20
40.0545169880792997
 30
0.0
 40
1.9561212535012811
 50
90.0
 51
180.7392901236937917
  0
LINE
  5
98F
  8
1
 10
77.1905453935716821
 20
40.0292777643806019
 30
0.0
 11
77.1874818815307293
 21
39.9122869594986867
 31
0.0
  0
ARC
  5
990
  8
1
 10
75.0661844708360633
 20
39.9122869594986867
 30
0.0
 40
2.1212974106946598
 50
266.9999999999993179
 51
0.0
  0
LINE
  5
991
  8
1
 10
74.9551643423716882
 20
37.7938967131806081
 30
0.0
 11
73.3294326687716875
 21
37.7938967131806081
 31
0.0
  0
LINE
  5
992
  8
1
 10
73.3294326687716875
 20
37.7938967131806081
 30
0.0
 11
72.5673709467716606
 21
37.4255668808806021
 31
0.0
  0
LINE
  5
993
  8
1
 10
72.5673709467716606
 20
37.4255668808806021
 30
0.0
 11
68.7570623367716678
 21
37.4255668808806021
 31
0.0
  0
LINE
  5
994
  8
1
 10
68.7570623367716678
 20
37.4255668808806021
 30
0.0
 11
68.7570623367716678
 21
36.2824742978806114
 31
0.0
  0
ARC
  5
995
  8
1
 10
84.5864017488543851
 20
45.6941270406927487
 30
0.0
 40
1.9053714149523691
 50
89.9821378676511472
 51
180.0
  0
ARC
  5
996
  8
1
 10
84.5876462963194058
 20
45.6941270406927487
 30
0.0
 40
1.8289482484963091
 50
90.0203796483203149
 51
180.0
  0
ARC
  5
998
  8
1
 10
84.5876463049567917
 20
45.6941270406927487
 30
0.0
 40
1.7019379701336641
 50
90.0219008082309244
 51
180.0
  0
ARC
  5
99C
  8
1
 10
84.5869957541393802
 20
45.6955576006300035
 30
0.0
 40
1.6243011136627421
 50
90.0
 51
180.0571806167615989
  0
LINE
  5
99D
  8
1
 10
100.509634086771598
 20
38.4014843515288078
 30
0.0
 11
100.509634086771598
 21
46.9505882876131793
 31
0.0
  0
LINE
  5
9C4
  8
1
 10
100.509634086771598
 20
47.9674207018805916
 30
0.0
 11
96.4416768328666905
 21
47.9674207018805916
 31
0.0
  0
ARC
  5
9C8
  8
1
 10
83.791931897440449
 20
47.6447768415442425
 30
0.0
 40
1.9110398054013189
 50
90.0
 51
180.0
  0
LINE
  5
9C9
  8
1
 10
81.880892092039133
 20
45.6939365645806035
 30
0.0
 11
81.880892092039133
 21
47.6447768415442425
 31
0.0
  0
LINE
  5
9CA
  8
1
 10
100.509634086771598
 20
46.9505882876131793
 30
0.0
 11
96.4416768328666905
 21
46.9505882876131793
 31
0.0
  0
LINE
  5
9CD
  8
1
 10
95.9372637547716636
 20
47.5218822520687993
 30
0.0
 11
94.4252968344984964
 21
47.5218822520687993
 31
0.0
  0
LINE
  5
9CE
  8
1
 10
95.937263754771692
 20
47.3948719650687877
 30
0.0
 11
94.4252968344984964
 21
47.3948719650687877
 31
0.0
  0
LINE
  5
9D6
  8
1
 10
94.4252968344984964
 20
47.5987543433569869
 30
0.0
 11
95.6992016431574228
 21
47.5987543433569869
 31
0.0
  0
LINE
  5
9D7
  8
1
 10
95.6992016431574228
 20
47.5987543433569869
 30
0.0
 11
96.4416768328666905
 21
47.9674207018805916
 31
0.0
  0
LINE
  5
9D9
  8
1
 10
94.4252968344984964
 20
47.3167199778641177
 30
0.0
 11
95.6992016431574228
 21
47.3167199778641177
 31
0.0
  0
LINE
  5
9DB
  8
1
 10
95.6992016431574228
 20
47.3167199778641177
 30
0.0
 11
96.4416768328666905
 21
46.9505882876131793
 31
0.0
  0
LINE
  5
9DF
  8
1
 10
90.6102720539519737
 20
49.4786683099118818
 30
0.0
 11
83.7919318974404348
 21
49.4786683099118676
 31
0.0
  0
LINE
  5
9E0
  8
1
 10
81.9574555577818558
 20
45.6939365645805324
 30
0.0
 11
81.9574555577818558
 21
47.6447768415441573
 31
0.0
  0
ARC
  5
9E1
  8
1
 10
83.7913471193844543
 20
47.6447768415441573
 30
0.0
 40
1.833891561602591
 50
89.981729936584685
 51
180.0
  0
LINE
  5
9EB
  8
1
 10
82.1572038100239297
 20
45.6941270406927487
 30
0.0
 11
82.1572038100239297
 21
47.6447768415442425
 31
0.0
  0
LINE
  5
9F1
  8
1
 10
81.9574555577818415
 20
45.2939859870020172
 30
0.0
 11
82.083651548732206
 21
45.2939859870020172
 31
0.0
  0
LINE
  5
9F2
  8
1
 10
82.0836515487322202
 20
45.6939365645805324
 30
0.0
 11
82.0836515487322202
 21
47.6447768415441573
 31
0.0
  0
LINE
  5
9F5
  8
1
 10
83.7919318974404348
 20
49.2743512122819425
 30
0.0
 11
90.6102720539519737
 21
49.274351212281907
 31
0.0
  0
ARC
  5
9FC
  8
1
 10
83.7919318974404348
 20
47.6396149752540623
 30
0.0
 40
1.6347362370278691
 50
90.0
 51
179.819081734649501
  0
LINE
  5
9FD
  8
1
 10
83.7919318974404348
 20
49.3425635377518432
 30
0.0
 11
90.6102720539519737
 21
49.3518287142269898
 31
0.0
  0
ARC
  5
A01
  8
1
 10
83.7907038631320944
 20
47.6355116650690604
 30
0.0
 40
1.707052314399901
 50
89.9587820546327066
 51
180.0
  0
INSERT
  5
AB0
  8
1
  2
*U3
 10
103.5302316352181009
 20
24.293706284699919
 30
0.0
 41
25.3999999999999986
 42
25.3999999999999986
 43
25.3999999999999986
  0
INSERT
  5
B30
  8
1
  2
*U5
 10
103.5660120901439001
 20
18.98481339867703
 30
0.0
 41
10.0
 42
10.0
 43
10.0
  0
TEXT
  5
B39
  8
1
 10
117.1093920512685003
 20
15.4174296088961
 30
0.0
 40
1.9935374493197739
  1
cm
  7
SIMPLEX
  0
TEXT
  5
B3A
  8
1
 10
146.1909130844956053
 20
20.6635825163527898
 30
0.0
 40
2.203384564496218
  1
inches
  7
SIMPLEX
  0
LINE
  5
B78
  8
1
 10
81.880892092039133
 20
45.6939365645806035
 30
0.0
 11
81.880892092039133
 21
45.2939859870020811
 31
0.0
  0
LINE
  5
B79
  8
1
 10
81.9574555577818558
 20
45.6939365645805324
 30
0.0
 11
81.9574555577818415
 21
45.2939859870020172
 31
0.0
  0
LINE
  5
B7A
  8
1
 10
82.0836515487322202
 20
45.6939365645805324
 30
0.0
 11
82.083651548732206
 21
45.2939859870020172
 31
0.0
  0
LINE
  5
B7B
  8
1
 10
82.1572038100239297
 20
45.6941270406927487
 30
0.0
 11
82.1572038100239297
 21
45.2939859870020811
 31
0.0
  0
LINE
  5
B7C
  8
1
 10
82.6810303339020152
 20
45.6941270406927487
 30
0.0
 11
82.6810303339020152
 21
45.2939859870020811
 31
0.0
  0
LINE
  5
B7D
  8
1
 10
82.7586980478231169
 20
45.6941270406927487
 30
0.0
 11
82.7586980478231169
 21
45.2939859870020811
 31
0.0
  0
LINE
  5
B7E
  8
1
 10
82.8857083348231214
 20
45.6941270406927487
 30
0.0
 11
82.8857083348231214
 21
45.2939859870020811
 31
0.0
  0
LINE
  5
B7F
  8
1
 10
82.9626954493656257
 20
45.6939365645806106
 30
0.0
 11
82.962695449365583
 21
45.2939859870020811
 31
0.0
  0
CIRCLE
  5
B8F
  8
2
  6
CONTINUOUS
 62
     5
 10
84.1924244183592947
 20
45.7907199675832288
 30
0.0
 40
0.254020574
  0
CIRCLE
  5
B97
  8
2
  6
CONTINUOUS
 62
     5
 10
85.2381008908506175
 20
45.9113029434833422
 30
0.0
 40
0.254020574
  0
CIRCLE
  5
B9F
  8
2
  6
CONTINUOUS
 62
     5
 10
86.2837773633419403
 20
45.8711086181832997
 30
0.0
 40
0.254020574
  0
CIRCLE
  5
BA7
  8
2
  6
CONTINUOUS
 62
     5
 10
87.5037305356036796
 20
45.8443124013160102
 30
0.0
 40
0.254020574
  0
CIRCLE
  5
BAF
  8
2
  6
CONTINUOUS
 62
     5
 10
88.3349176157117455
 20
45.857710509750568
 30
0.0
 40
0.254020574
  0
LINE
  5
BB7
  8
1
 10
83.791931897440449
 20
49.5558166469455585
 30
0.0
 11
90.6102720539520021
 21
49.5558166469455514
 31
0.0
  0
ARC
  5
BC1
  8
1
 10
90.5999575484092929
 20
47.4464842187990072
 30
0.0
 40
2.109357646643915
 50
49.6339182733021715
 51
89.7198294032952788
  0
ARC
  5
BC2
  8
1
 10
90.5999575484092929
 20
47.4464842187990072
 30
0.0
 40
2.0322102669745541
 50
49.2700774104546824
 51
89.7091933928599445
  0
LINE
  5
BC3
  8
1
 10
91.9259630599716786
 20
48.9864803072690265
 30
0.0
 11
93.0967084640724352
 21
48.0141955683866399
 31
0.0
  0
LINE
  5
BC6
  8
1
 10
91.9661230382441914
 20
49.053649902802789
 30
0.0
 11
93.1506074676799471
 21
48.068231814462699
 31
0.0
  0
ARC
  5
BCB
  8
1
 10
94.4252968344984964
 20
49.5639626774333308
 30
0.0
 40
1.9652083340763431
 50
229.5617530948082106
 51
269.9999999999997726
  0
ARC
  5
BCC
  8
1
 10
94.4252968344984964
 20
49.5607459115672668
 30
0.0
 40
2.038863659498467
 50
229.3352550825439096
 51
269.9999999999997726
  0
ARC
  5
BCD
  8
1
 10
90.5999575484092929
 20
47.4464842187990072
 30
0.0
 40
1.9053724138032111
 50
49.7929690793397128
 51
89.6898346394017807
  0
ARC
  5
BCE
  8
1
 10
90.5999575484092929
 20
47.4464842187990072
 30
0.0
 40
1.8278960952113159
 50
49.6438535189262069
 51
89.6766879839477156
  0
LINE
  5
BCF
  8
1
 10
91.82997339737868
 20
48.9016491739042394
 30
0.0
 11
93.0234435745041992
 21
47.9177040662143483
 31
0.0
  0
LINE
  5
BD1
  8
1
 10
91.7835876075090056
 20
48.8394034620016981
 30
0.0
 11
92.9761029339570086
 21
47.8564579630383378
 31
0.0
  0
ARC
  5
BD3
  8
1
 10
94.4252968344984822
 20
49.5356605314556475
 30
0.0
 40
2.1407885663868589
 50
229.0932148989566883
 51
270.0000000000002842
  0
ARC
  5
BD4
  8
1
 10
94.4252968344985106
 20
49.5321283053275323
 30
0.0
 40
2.2154083274634142
 50
229.1452986787309953
 51
269.9999999999997158
  0
ENDSEC
  0
EOF
